<svg width="32" height="32" viewBox="0 0 32 32" fill="none" xmlns="http://www.w3.org/2000/svg">
<rect width="32" height="32" rx="16" fill="white"/>
<rect x="0.5" y="0.5" width="31" height="31" rx="15.5" stroke="#FF916C" stroke-opacity="0.5"/>
<rect x="12.6014" y="15.4766" width="6.73484" height="1.04748" rx="0.52374" fill="white"/>
<rect x="12.6014" y="18.4814" width="6.73484" height="1.04748" rx="0.52374" fill="white"/>
<path d="M23.78 7.59277H8.2208C7.30422 7.59277 6.55408 8.26043 6.55408 9.07621V11.0541C6.55408 11.8699 7.30422 12.5375 8.2208 12.5375H9.88752V23.9128C9.88752 24.1847 10.1376 24.4072 10.4431 24.4072C10.7486 24.4072 10.9987 24.1847 10.9987 23.9128V23.5817C10.9987 22.9488 11.5824 22.4293 12.2934 22.4293C13.0045 22.4293 13.5937 22.9488 13.5937 23.5817V23.9128C13.5937 24.1847 13.8383 24.4072 14.1493 24.4072C14.4603 24.4072 14.7048 24.1847 14.7048 23.9128V23.5817C14.7048 22.9488 15.2831 22.4293 15.9996 22.4293C16.7161 22.4293 17.2944 22.9488 17.2944 23.5817V23.9128C17.2944 24.1847 17.5444 24.4072 17.85 24.4072C18.1555 24.4072 18.4055 24.1847 18.4055 23.9128V23.5817C18.4055 22.9488 18.9892 22.4293 19.7058 22.4293C20.4223 22.4293 21.0006 22.9488 21.0006 23.5817V23.9128C21.0006 24.1847 21.2506 24.4072 21.5561 24.4072C21.8617 24.4072 22.1117 24.1847 22.1117 23.9128L22.1125 12.5382H23.7792C24.6958 12.5382 25.4459 11.8706 25.4459 11.0548V9.07693C25.4459 8.26114 24.6958 7.59349 23.7792 7.59349L23.78 7.59277ZM12.6661 18.968C12.6661 18.6961 12.9161 18.4735 13.2216 18.4735H18.7781C19.0836 18.4735 19.3337 18.6961 19.3337 18.968C19.3337 19.2399 19.0836 19.4625 18.7781 19.4625H13.2216C12.9161 19.4625 12.6661 19.2399 12.6661 18.968ZM12.6661 16.0004C12.6661 15.7285 12.9161 15.5059 13.2216 15.5059H18.7781C19.0836 15.5059 19.3337 15.7285 19.3337 16.0004C19.3337 16.2723 19.0836 16.4949 18.7781 16.4949H13.2216C12.9161 16.4949 12.6661 16.2723 12.6661 16.0004ZM18.779 13.5272H13.2226C12.917 13.5272 12.667 13.3047 12.667 13.0328C12.667 12.7608 12.917 12.5383 13.2226 12.5383H18.779C19.0845 12.5383 19.3346 12.7608 19.3346 13.0328C19.3346 13.3047 19.0845 13.5272 18.779 13.5272ZM24.3355 11.0548C24.3355 11.3267 24.0854 11.5493 23.7799 11.5493H22.1132V10.5603H22.6688C22.9743 10.5603 23.2243 10.3377 23.2243 10.0658C23.2243 9.7939 22.9743 9.57135 22.6688 9.57135H9.33261C9.02709 9.57135 8.77704 9.7939 8.77704 10.0658C8.77704 10.3377 9.02709 10.5603 9.33261 10.5603H9.88818V11.5493H8.22146C7.91594 11.5493 7.66589 11.3267 7.66589 11.0548V9.07693C7.66589 8.805 7.91594 8.58245 8.22146 8.58245H23.7798C24.0854 8.58245 24.3354 8.805 24.3354 9.07693L24.3355 11.0548Z" fill="#F25722"/>
</svg>
