<svg width="135" height="274" viewBox="0 0 135 274" fill="none" xmlns="http://www.w3.org/2000/svg">
<g clip-path="url(#clip0_2931_55133)">
<g opacity="0.9" clip-path="url(#clip1_2931_55133)">
<path opacity="0.5" d="M89.8897 383.532C89.7474 383.979 89.6087 384.425 89.4645 384.872C89.6995 384.366 89.9477 383.861 90.179 383.353C90.3869 382.817 90.6033 382.282 90.8054 381.744C90.5003 382.341 90.1988 382.937 89.8897 383.532ZM-12.5018 259.247C-13.4398 259.147 -14.4204 259.067 -15.3707 258.973C-16.4399 259.003 -17.5579 259.057 -18.6609 259.103C-17.5529 259.144 -16.4201 259.173 -15.3378 259.227C-14.396 259.236 -13.432 259.233 -12.5018 259.247ZM-9.31124 259.601C-9.62401 259.563 -9.92066 259.519 -10.2361 259.483C-10.5961 259.475 -10.9801 259.479 -11.3482 259.475C-10.6665 259.515 -9.98488 259.556 -9.31124 259.601ZM87.1887 390.155C87.0399 390.686 86.8804 391.214 86.7268 391.743C87.0039 391.108 87.2685 390.469 87.5389 389.832C87.6864 389.418 87.8263 389.002 87.9718 388.586C87.7163 389.112 87.4472 389.632 87.1887 390.155ZM88.0229 387.032C87.8461 387.702 87.6691 388.37 87.4875 389.039C87.896 388.2 88.2929 387.358 88.6909 386.518C88.8881 385.931 89.0731 385.342 89.2589 384.753C88.8559 385.515 88.4327 386.272 88.0229 387.032ZM-5.66638 259.407C-6.70637 259.208 -7.80781 259.036 -8.87636 258.849C-10.5048 258.872 -12.088 258.871 -13.7484 258.909C-12.5714 259.025 -11.375 259.132 -10.2283 259.263C-8.67362 259.295 -7.18562 259.357 -5.66638 259.407ZM-2.13215 260.144C-2.88388 259.989 -3.61598 259.826 -4.37747 259.675C-5.61426 259.63 -6.83594 259.578 -8.08258 259.537C-7.37216 259.623 -6.68053 259.717 -5.97637 259.806C-4.66354 259.904 -3.41476 260.032 -2.13215 260.144ZM0.375535 260.669C0.186244 260.628 -0.00747186 260.589 -0.196763 260.549L-0.57635 260.513C-0.250395 260.562 0.0514231 260.62 0.375535 260.669ZM83.8749 400.039C83.8514 400.13 83.8268 400.22 83.8032 400.31C83.8707 400.11 83.9404 399.913 84.0068 399.712C83.9628 399.821 83.9199 399.931 83.8749 400.039ZM84.6447 396.924C84.5266 397.418 84.4113 397.913 84.2892 398.404C84.5258 397.819 84.7661 397.235 84.9978 396.649C85.1783 396.081 85.3658 395.517 85.5415 394.947C85.2416 395.606 84.9504 396.268 84.6447 396.924ZM85.38 393.771C85.2354 394.428 85.0831 395.082 84.9307 395.736C85.2959 394.939 85.66 394.141 86.0164 393.341C86.2214 392.655 86.4263 391.968 86.6265 391.28C86.2107 392.111 85.8046 392.945 85.38 393.771ZM86.0481 390.643C85.8927 391.388 85.7325 392.13 85.5722 392.873C86.0473 391.938 86.5145 390.998 86.978 390.058C87.1797 389.339 87.367 388.616 87.5571 387.893C87.056 388.81 86.5588 389.729 86.0481 390.643ZM0.202307 259.626C-0.781584 259.336 -1.79671 259.06 -2.80558 258.781C-4.38534 258.778 -6.03781 258.811 -7.67618 258.836C-6.56054 259.037 -5.45023 259.242 -4.36139 259.454C-2.82622 259.505 -1.28394 259.552 0.202307 259.626ZM3.63146 260.69C2.75834 260.419 1.89758 260.141 1.01009 259.876C-0.312039 259.806 -1.70161 259.768 -3.07617 259.723C-2.09875 259.92 -1.13921 260.124 -0.177828 260.329C1.10155 260.446 2.39051 260.557 3.63146 260.69ZM7.10579 261.768C6.31174 261.506 5.46941 261.264 4.65831 261.009C3.72174 260.904 2.73532 260.821 1.75867 260.734C2.61905 260.924 3.47501 261.117 4.31927 261.313C5.24488 261.467 6.19805 261.607 7.10579 261.768ZM9.40602 262.572C9.0571 262.452 8.72246 262.326 8.36986 262.207C7.91377 262.123 7.43981 262.046 6.96862 261.969C7.78431 262.169 8.60636 262.366 9.40602 262.572ZM81.8034 406.574C81.7784 406.696 81.7544 406.818 81.7293 406.939C81.8022 406.691 81.873 406.441 81.9459 406.193C81.8982 406.321 81.8503 406.447 81.8034 406.574ZM82.4451 403.424C82.3306 404.009 82.2069 404.588 82.0893 405.17C82.3421 404.478 82.587 403.781 82.8338 403.085C82.9686 402.591 83.0975 402.093 83.2295 401.598C82.9723 402.21 82.7062 402.815 82.4451 403.424ZM82.9998 400.372C82.8792 401.056 82.7587 401.739 82.6311 402.418C82.9822 401.592 83.3295 400.765 83.6717 399.935C83.8434 399.269 84.0092 398.6 84.1728 397.929C83.7875 398.747 83.3922 399.56 82.9998 400.372ZM83.5137 397.313C83.3979 398.053 83.2782 398.792 83.1516 399.527C83.5827 398.626 84.0176 397.726 84.4389 396.82C84.6233 396.049 84.8145 395.281 84.9911 394.507C84.5061 395.446 84.0113 396.379 83.5137 397.313ZM83.9862 394.259C83.8723 395.046 83.7448 395.828 83.6231 396.611C84.1396 395.634 84.6648 394.66 85.1687 393.677C85.3452 392.884 85.513 392.086 85.6789 391.288C85.1211 392.281 84.5566 393.271 83.9862 394.259ZM5.96284 259.982C5.0849 259.607 4.20061 259.234 3.30194 258.866C1.53592 258.834 -0.194622 258.784 -2.00422 258.772C-0.975729 259.061 0.0367323 259.357 1.04118 259.656C2.71819 259.748 4.32591 259.872 5.96284 259.982ZM9.06503 261.35C8.23695 260.981 7.40794 260.611 6.56456 260.247C5.00301 260.138 3.47427 260.012 1.88066 259.916C2.82888 260.203 3.76283 260.496 4.6941 260.79C6.18379 260.962 7.60575 261.165 9.06503 261.35ZM12.1503 262.745C11.3749 262.381 10.5771 262.026 9.78565 261.669C8.48792 261.498 7.20005 261.324 5.88628 261.161C6.73738 261.435 7.58395 261.71 8.41809 261.991C9.6882 262.23 10.9015 262.496 12.1503 262.745ZM14.8449 264.059C14.2099 263.749 13.5848 263.436 12.9398 263.129C11.9355 262.924 10.925 262.722 9.91625 262.519C10.5227 262.728 11.12 262.941 11.7184 263.154C12.7862 263.445 13.7968 263.76 14.8449 264.059ZM17.1091 265.163C16.7484 264.981 16.3688 264.805 16.0045 264.624C15.7034 264.536 15.3961 264.451 15.0968 264.362C15.7863 264.621 16.4312 264.899 17.1091 265.163ZM80.0471 413.094C80.0192 413.271 79.9915 413.45 79.9636 413.628C80.055 413.257 80.1495 412.89 80.2389 412.518C80.1764 412.712 80.1097 412.901 80.0471 413.094ZM80.5008 410.001C80.4243 410.566 80.3477 411.132 80.265 411.691C80.4787 411.026 80.6871 410.356 80.8947 409.686C81.0257 409.107 81.1608 408.532 81.2877 407.95C81.0278 408.636 80.7668 409.32 80.5008 410.001ZM80.9118 406.927C80.822 407.648 80.7231 408.362 80.6263 409.079C80.9568 408.223 81.273 407.356 81.5943 406.493C81.7378 405.806 81.8771 405.114 82.0164 404.423C81.6516 405.261 81.2837 406.095 80.9118 406.927ZM81.2573 403.915C81.1726 404.678 81.086 405.44 80.9953 406.198C81.4177 405.249 81.8271 404.289 82.2385 403.331C82.3794 402.6 82.5084 401.861 82.6393 401.123C82.1836 402.057 81.7229 402.987 81.2573 403.915ZM81.5551 400.928C81.4843 401.709 81.4145 402.49 81.3327 403.264C81.8264 402.273 82.3102 401.276 82.792 400.277C82.9295 399.493 83.066 398.708 83.1955 397.919C82.655 398.926 82.1064 399.927 81.5551 400.928ZM81.8156 397.95C81.752 398.757 81.6814 399.558 81.6089 400.359C82.1802 399.316 82.7464 398.267 83.3048 397.216C83.4326 396.409 83.5622 395.602 83.6821 394.791C83.0685 395.85 82.441 396.899 81.8156 397.95ZM11.3703 260.363C10.6056 259.902 9.84996 259.437 9.06997 258.981C7.40734 258.921 5.65147 258.907 3.92397 258.878C4.83555 259.254 5.71487 259.643 6.60773 260.027C8.20891 260.133 9.82602 260.23 11.3703 260.363ZM14.0197 261.996C13.2799 261.533 12.533 261.072 11.779 260.615C10.3047 260.485 8.74244 260.396 7.20946 260.293C8.09191 260.675 8.96903 261.06 9.83361 261.451C11.2417 261.627 12.6641 261.796 14.0197 261.996ZM16.613 263.646C15.9112 263.19 15.2041 262.737 14.488 262.286C13.218 262.095 11.8759 261.937 10.5542 261.769C11.3831 262.147 12.1914 262.532 13.0033 262.917C14.2174 263.154 15.4441 263.387 16.613 263.646ZM19.0555 265.277C18.4159 264.847 17.779 264.416 17.1276 263.99C16.047 263.747 14.9155 263.526 13.7939 263.303C14.5614 263.671 15.3226 264.042 16.0756 264.415C17.0784 264.698 18.0901 264.977 19.0555 265.277ZM21.446 266.89C20.8847 266.498 20.2999 266.114 19.7278 265.726C18.9147 265.47 18.0767 265.225 17.2342 264.981C17.892 265.313 18.5326 265.651 19.1787 265.987C19.9383 266.286 20.7104 266.58 21.446 266.89ZM23.1536 268.125C22.8618 267.915 22.5782 267.704 22.2837 267.495C21.8189 267.297 21.3577 267.097 20.8803 266.902C21.6396 267.309 22.4105 267.711 23.1536 268.125ZM78.6914 419.387C78.6681 419.647 78.6422 419.9 78.6179 420.159C78.7162 419.634 78.8132 419.106 78.9092 418.577C78.8365 418.846 78.7661 419.119 78.6914 419.387ZM78.93 416.413C78.8853 416.999 78.8406 417.585 78.7927 418.166C78.9738 417.493 79.1609 416.824 79.3367 416.143C79.4391 415.539 79.5374 414.93 79.6344 414.319C79.4011 415.019 79.1688 415.721 78.93 416.413ZM79.1323 413.439C79.0908 414.132 79.0493 414.824 79.0013 415.507C79.2818 414.682 79.5641 413.858 79.8363 413.025C79.948 412.299 80.0608 411.575 80.1661 410.842C79.823 411.71 79.4829 412.581 79.1323 413.439ZM79.3001 410.474C79.263 411.23 79.2206 411.978 79.1762 412.725C79.5515 411.797 79.9245 410.864 80.2905 409.927C80.3982 409.152 80.506 408.378 80.6067 407.599C80.1731 408.558 79.7429 409.524 79.3001 410.474ZM79.4287 407.518C79.3988 408.307 79.3627 409.091 79.3264 409.872C79.791 408.87 80.2466 407.86 80.7001 406.848C80.7965 406.064 80.8848 405.271 80.9722 404.479C80.4604 405.495 79.9516 406.512 79.4287 407.518ZM79.5084 404.603C79.4916 405.402 79.4748 406.201 79.4477 406.991C79.9888 405.944 80.5176 404.885 81.0476 403.828C81.1338 403.025 81.2141 402.218 81.2902 401.407C80.7 402.475 80.1107 403.543 79.5084 404.603ZM79.5557 401.699C79.5477 402.512 79.5377 403.323 79.5206 404.129C80.1366 403.04 80.7393 401.938 81.3433 400.839C81.4193 400.017 81.4972 399.196 81.5652 398.369C80.9003 399.482 80.2335 400.594 79.5557 401.699ZM16.7181 260.91C16.0791 260.366 15.4619 259.815 14.8121 259.274C13.0537 259.178 11.3369 259.062 9.5288 258.99C10.3169 259.453 11.069 259.928 11.8409 260.396C13.509 260.548 15.0935 260.738 16.7181 260.91ZM18.9184 262.809C18.2939 262.26 17.6548 261.714 17.0175 261.168C15.4377 260.997 13.8882 260.812 12.2684 260.659C13.0365 261.127 13.8027 261.595 14.5546 262.068C16.0454 262.299 17.4623 262.562 18.9184 262.809ZM21.0461 264.717C20.4484 264.175 19.8569 263.631 19.2465 263.092C17.8572 262.853 16.4821 262.608 15.0626 262.383C15.7901 262.845 16.4941 263.313 17.2062 263.779C18.5141 264.079 19.7667 264.404 21.0461 264.717ZM23.1259 266.63C22.5522 266.095 21.971 265.561 21.3863 265.029C20.1791 264.73 18.979 264.428 17.7486 264.14C18.4431 264.598 19.1331 265.057 19.8141 265.519C20.9357 265.882 22.0232 266.26 23.1259 266.63ZM25.1473 268.535C24.612 268.022 24.0721 267.509 23.5277 266.999C22.5305 266.66 21.5316 266.323 20.5193 265.991C21.1499 266.423 21.7652 266.862 22.384 267.298C23.3156 267.706 24.2274 268.123 25.1473 268.535ZM26.9947 270.348C26.5331 269.892 26.0724 269.437 25.6035 268.983C24.8294 268.632 24.0491 268.284 23.2669 267.936C23.7901 268.31 24.3099 268.686 24.826 269.063C25.559 269.487 26.2705 269.92 26.9947 270.348ZM28.5736 271.897C28.2744 271.595 27.9579 271.296 27.6541 270.995C27.3382 270.805 27.0143 270.618 26.6983 270.428C27.3406 270.912 27.944 271.409 28.5736 271.897ZM77.7621 422.657C77.7621 423.28 77.7563 423.892 77.7527 424.508C77.9012 423.796 78.0483 423.08 78.1911 422.359C78.25 421.775 78.3032 421.181 78.3586 420.591C78.1637 421.285 77.9623 421.97 77.7621 422.657ZM77.7408 419.765C77.7486 420.475 77.7543 421.184 77.7566 421.886C78.0004 421.039 78.2432 420.191 78.4794 419.333C78.5403 418.639 78.5936 417.935 78.648 417.232C78.3506 418.083 78.0447 418.923 77.7408 419.765ZM77.6905 416.88C77.7079 417.631 77.7263 418.383 77.736 419.122C78.0657 418.203 78.3962 417.283 78.7171 416.351C78.7743 415.592 78.8273 414.829 78.877 414.06C78.4869 415.008 78.0883 415.944 77.6905 416.88ZM77.6132 414.005C77.6383 414.786 77.66 415.562 77.6785 416.333C78.0939 415.35 78.5121 414.367 78.918 413.372C78.9677 412.576 79.0176 411.781 79.06 410.977C78.5845 411.993 78.0989 413 77.6132 414.005ZM77.5107 411.139C77.5443 411.94 77.5703 412.73 77.5964 413.521C78.0958 412.484 78.5964 411.45 79.0854 410.404C79.1256 409.596 79.1596 408.782 79.1925 407.966C78.637 409.029 78.0765 410.087 77.5107 411.139ZM77.3736 408.299C77.4149 409.103 77.454 409.903 77.4888 410.697C78.0675 409.616 78.647 408.533 79.2143 407.44C79.2433 406.632 79.262 405.814 79.2807 404.996C78.6505 406.103 78.0152 407.204 77.3736 408.299ZM77.2084 405.476C77.2603 406.282 77.3099 407.086 77.3532 407.881C78.0039 406.766 78.6543 405.647 79.2929 404.523C79.3114 403.703 79.3258 402.88 79.3352 402.053C78.6316 403.198 77.9242 404.341 77.2084 405.476ZM21.7871 261.453C21.2778 260.827 20.784 260.199 20.2664 259.575C18.6274 259.453 16.8827 259.384 15.1779 259.293C15.8331 259.841 16.4538 260.399 17.099 260.95C18.6716 261.114 20.276 261.261 21.7871 261.453ZM23.5201 263.593C23.0209 262.965 22.5078 262.34 21.9983 261.713C20.5152 261.522 18.9413 261.372 17.3995 261.209C18.048 261.765 18.7001 262.32 19.335 262.879C20.7386 263.113 22.1689 263.334 23.5201 263.593ZM25.192 265.735C24.7092 265.114 24.2375 264.493 23.7464 263.873C22.4262 263.617 21.0339 263.395 19.663 263.162C20.283 263.712 20.8767 264.27 21.4859 264.824C22.7305 265.124 23.9947 265.415 25.192 265.735ZM26.8499 267.887C26.3805 267.27 25.9029 266.654 25.4262 266.038C24.26 265.722 23.0369 265.433 21.8271 265.137C22.4335 265.69 23.0407 266.243 23.6353 266.8C24.7145 267.158 25.8081 267.512 26.8499 267.887ZM28.4576 270.03C28.0113 269.429 27.5668 268.829 27.1131 268.229C26.1124 267.865 25.0716 267.518 24.0352 267.169C24.6066 267.708 25.1608 268.251 25.7222 268.793C26.6426 269.202 27.5703 269.608 28.4576 270.03ZM30.0012 272.137C29.5857 271.566 29.1684 270.995 28.7465 270.425C27.9087 270.022 27.0439 269.631 26.1774 269.24C26.7156 269.763 27.253 270.288 27.7812 270.814C28.5296 271.252 29.2816 271.689 30.0012 272.137ZM31.4709 274.166C31.1092 273.658 30.7382 273.15 30.371 272.642C29.7374 272.245 29.0931 271.851 28.4406 271.46C28.9073 271.93 29.3613 272.402 29.8198 272.873C30.3747 273.303 30.9359 273.731 31.4709 274.166ZM32.5893 275.772C32.3796 275.471 32.1727 275.171 31.9612 274.871C31.601 274.574 31.2464 274.275 30.8772 273.981C31.4496 274.577 32.0304 275.172 32.5893 275.772ZM76.1696 420.378C76.2573 421.152 76.3448 421.924 76.4265 422.685C76.7963 421.702 77.1617 420.712 77.5226 419.715C77.5131 418.941 77.499 418.158 77.4827 417.371C77.0515 418.382 76.6106 419.381 76.1696 420.378ZM75.8443 417.591C75.939 418.38 76.0324 419.164 76.1211 419.94C76.5764 418.908 77.0273 417.871 77.4718 416.825C77.4547 416.031 77.4346 415.235 77.4108 414.429C76.8945 415.492 76.3704 416.542 75.8443 417.591ZM75.5037 414.81C75.6051 415.61 75.701 416.4 75.7966 417.189C76.3341 416.114 76.8672 415.033 77.3939 413.944C77.3682 413.138 77.3435 412.333 77.3102 411.517C76.7144 412.623 76.1092 413.717 75.5037 414.81ZM75.1454 412.038C75.252 412.844 75.3531 413.639 75.454 414.434C76.0703 413.319 76.6844 412.201 77.2891 411.073C77.2554 410.271 77.2142 409.46 77.172 408.647C76.5041 409.785 75.8248 410.912 75.1454 412.038ZM74.7672 409.281C74.8803 410.086 74.9921 410.888 75.0974 411.679C75.786 410.534 76.4744 409.386 77.1533 408.227C77.1109 407.422 77.0621 406.609 77.0112 405.793C76.2702 406.964 75.5177 408.122 74.7672 409.281ZM26.7766 262.187C26.397 261.481 26.0239 260.775 25.6405 260.069C23.9604 259.909 22.3052 259.737 20.5708 259.603C21.0918 260.234 21.5917 260.867 22.1054 261.499C23.7039 261.708 25.2243 261.955 26.7766 262.187ZM28.0467 264.555C27.6746 263.85 27.2893 263.144 26.9106 262.437C25.3891 262.207 23.8854 261.969 22.3176 261.76C22.8326 262.395 23.3548 263.028 23.8596 263.665C25.2895 263.946 26.6561 264.256 28.0467 264.555ZM29.2775 266.922C28.9123 266.22 28.5564 265.519 28.1855 264.817C26.8278 264.522 25.4827 264.222 24.0869 263.945C24.5845 264.575 25.0583 265.208 25.5477 265.839C26.8186 266.188 28.0387 266.56 29.2775 266.922ZM30.5082 269.297C30.1507 268.599 29.7838 267.899 29.4207 267.2C28.2152 266.844 27.0177 266.485 25.78 266.142C26.2685 266.774 26.7608 267.406 27.2412 268.039C28.3515 268.449 29.4227 268.876 30.5082 269.297ZM31.7053 271.662C31.3582 270.974 31.0157 270.286 30.6639 269.598C29.6179 269.189 28.5763 268.779 27.5042 268.38C27.9721 269 28.4253 269.624 28.8849 270.245C29.8409 270.711 30.7691 271.188 31.7053 271.662ZM32.8846 274.016C32.5501 273.343 32.2119 272.67 31.8726 271.995C30.9793 271.54 30.0868 271.086 29.1747 270.639C29.6258 271.251 30.0761 271.862 30.5189 272.474C31.3174 272.985 32.0988 273.502 32.8846 274.016ZM34.0296 276.335C33.7159 275.693 33.4004 275.051 33.0812 274.409C32.3558 273.931 31.6277 273.454 30.8888 272.98C31.305 273.559 31.7111 274.138 32.1199 274.718C32.7609 275.255 33.3948 275.795 34.0296 276.335ZM35.0951 278.537C34.8201 277.966 34.5453 277.396 34.2666 276.824C33.718 276.356 33.1658 275.888 32.6119 275.421C32.9711 275.932 33.3276 276.444 33.6813 276.956C34.1565 277.482 34.6235 278.01 35.0951 278.537ZM35.9598 280.325C35.7891 279.968 35.6118 279.609 35.4401 279.251C35.1977 278.978 34.9499 278.705 34.7075 278.432C35.1355 279.062 35.5403 279.694 35.9598 280.325ZM73.9938 421.226C74.1625 422.01 74.3311 422.793 74.4955 423.562C74.9835 422.495 75.4668 421.418 75.9466 420.335C75.8564 419.545 75.7646 418.748 75.6684 417.944C75.1141 419.046 74.5562 420.14 73.9938 421.226ZM73.4113 418.53C73.5837 419.323 73.7533 420.107 73.9206 420.886C74.4922 419.78 75.0572 418.664 75.6198 417.543C75.524 416.744 75.4273 415.944 75.3256 415.132C74.6914 416.273 74.0536 417.406 73.4113 418.53ZM72.8244 415.836C72.9991 416.633 73.1699 417.419 73.3406 418.204C73.9905 417.063 74.6358 415.912 75.2768 414.756C75.1752 413.955 75.0723 413.15 74.9651 412.339C74.256 413.512 73.5424 414.677 72.8244 415.836ZM72.2323 413.146C72.409 413.945 72.5831 414.736 72.7558 415.523C73.4817 414.35 74.2029 413.167 74.9188 411.978C74.813 411.181 74.7005 410.372 74.5868 409.562C73.8061 410.764 73.0209 411.958 72.2323 413.146ZM31.5519 262.919C31.3045 262.14 31.0583 261.362 30.8098 260.581C29.222 260.395 27.5525 260.249 25.9008 260.093C26.2866 260.805 26.6639 261.515 27.0459 262.227C28.5611 262.45 30.0943 262.667 31.5519 262.919ZM32.3706 265.502C32.1266 264.728 31.8782 263.947 31.6319 263.17C30.1912 262.919 28.6775 262.702 27.1798 262.477C27.5619 263.189 27.9506 263.902 28.3262 264.614C29.6863 264.905 31.0615 265.189 32.3706 265.502ZM33.1799 268.084C32.9368 267.31 32.6968 266.538 32.4516 265.763C31.1592 265.45 29.8037 265.167 28.4614 264.877C28.836 265.588 29.1973 266.297 29.5663 267.008C30.7827 267.361 32.0099 267.71 33.1799 268.084ZM33.9889 270.663C33.7494 269.897 33.5064 269.124 33.2647 268.354C32.1117 267.984 30.9069 267.635 29.7102 267.284C30.0791 267.994 30.4518 268.706 30.8151 269.415C31.8829 269.827 32.9596 270.235 33.9889 270.663ZM34.7868 273.233C34.5505 272.471 34.3174 271.714 34.079 270.95C33.0688 270.527 32.0176 270.122 30.9716 269.715C31.3306 270.419 31.6782 271.122 32.0325 271.825C32.9587 272.292 33.8929 272.754 34.7868 273.233ZM35.5789 275.792C35.3478 275.045 35.1154 274.294 34.8832 273.545C34.0096 273.075 33.103 272.618 32.1991 272.16C32.55 272.858 32.9019 273.557 33.248 274.253C34.0324 274.763 34.8214 275.272 35.5789 275.792ZM36.3582 278.325C36.1357 277.599 35.9122 276.872 35.6876 276.143C34.9557 275.638 34.1997 275.142 33.4445 274.645C33.7806 275.325 34.1101 276.004 34.4414 276.683C35.0861 277.229 35.7352 277.773 36.3582 278.325ZM37.1173 280.805C36.9071 280.118 36.6968 279.43 36.4854 278.741C35.8939 278.214 35.287 277.693 34.6774 277.173C34.994 277.825 35.3104 278.476 35.6231 279.127C36.1258 279.686 36.6311 280.243 37.1173 280.805ZM37.8372 283.163C37.6538 282.559 37.4663 281.95 37.2818 281.342C36.8509 280.841 36.4119 280.341 35.9682 279.842C36.2472 280.425 36.5214 281.007 36.7966 281.59C37.1459 282.114 37.4989 282.638 37.8372 283.163ZM38.399 285.02L38.0737 283.945C37.8576 283.609 37.6452 283.272 37.4254 282.936C37.7509 283.631 38.0792 284.326 38.399 285.02ZM71.2323 422.296C71.4779 423.076 71.7229 423.85 71.9659 424.614C72.5695 423.484 73.1669 422.338 73.763 421.189C73.5941 420.403 73.4228 419.613 73.2498 418.813C72.5792 419.981 71.9092 421.145 71.2323 422.296ZM70.4133 419.682C70.6575 420.467 70.9007 421.242 71.1424 422.011C71.8255 420.848 72.5033 419.668 73.1789 418.486C73.0067 417.695 72.8355 416.905 72.6592 416.101C71.9128 417.302 71.1661 418.499 70.4133 419.682ZM69.6022 417.064C69.8451 417.854 70.0854 418.628 70.3267 419.403C71.086 418.21 71.8388 417 72.5897 415.788C72.4167 414.998 72.241 414.201 72.0639 413.398C71.2467 414.626 70.4267 415.853 69.6022 417.064ZM36.1951 263.81C36.0776 262.961 35.9606 262.108 35.8436 261.255C34.2642 261.032 32.6866 260.808 31.0494 260.612C31.2992 261.398 31.547 262.181 31.7957 262.965C33.2993 263.23 34.7414 263.523 36.1951 263.81ZM36.583 266.599C36.4632 265.755 36.3463 264.903 36.2287 264.053C34.7947 263.767 33.3606 263.48 31.8768 263.217C32.1255 264.001 32.3754 264.787 32.621 265.568C33.9737 265.897 35.2731 266.251 36.583 266.599ZM36.9825 269.383C36.8617 268.538 36.7393 267.696 36.619 266.847C35.327 266.501 34.0367 266.154 32.7019 265.827C32.9488 266.611 33.1915 267.39 33.4372 268.171C34.6464 268.564 35.8091 268.976 36.9825 269.383ZM37.38 272.156C37.2576 271.323 37.1394 270.476 37.0192 269.638C35.8648 269.235 34.713 268.83 33.522 268.442C33.7657 269.222 34.0124 270.004 34.2547 270.78C35.3188 271.229 36.3445 271.695 37.38 272.156ZM37.7927 274.922C37.6682 274.088 37.5417 273.26 37.4186 272.421C36.4024 271.966 35.3897 271.51 34.3439 271.067C34.5864 271.844 34.8226 272.614 35.0629 273.388C35.9911 273.893 36.8879 274.409 37.7927 274.922ZM38.2027 277.672C38.079 276.854 37.9571 276.027 37.8348 275.204C36.9505 274.701 36.0689 274.196 35.1603 273.701C35.3982 274.469 35.6379 275.238 35.8737 276.003C36.6632 276.554 37.4293 277.114 38.2027 277.672ZM38.6211 280.402C38.4966 279.595 38.3713 278.79 38.2482 277.978C37.4977 277.434 36.7499 276.891 35.9823 276.354C36.2154 277.111 36.446 277.863 36.6769 278.617C37.3346 279.21 37.9751 279.807 38.6211 280.402ZM39.0398 283.099C38.918 282.319 38.7968 281.536 38.6756 280.751C38.056 280.177 37.4364 279.603 36.8042 279.033C37.0294 279.768 37.2546 280.503 37.4786 281.235C38.0041 281.855 38.5197 282.477 39.0398 283.099ZM39.4528 285.729C39.3365 284.995 39.2207 284.256 39.1049 283.518C38.6204 282.936 38.134 282.353 37.6422 281.773C37.8542 282.469 38.0642 283.162 38.275 283.855C38.6697 284.48 39.0599 285.105 39.4528 285.729ZM39.8535 288.218C39.7498 287.573 39.6445 286.929 39.5416 286.282C39.2004 285.737 38.8574 285.192 38.5142 284.646C38.699 285.256 38.8827 285.864 39.0663 286.471C39.3312 287.054 39.5905 287.636 39.8535 288.218ZM40.1559 290.097C40.0987 289.748 40.0428 289.394 39.9864 289.044C39.8427 288.724 39.6971 288.404 39.5535 288.085C39.7567 288.758 39.9557 289.426 40.1559 290.097ZM67.9092 423.567C68.2244 424.335 68.5399 425.098 68.8552 425.849C69.5707 424.666 70.2838 423.467 70.9925 422.262C70.7485 421.488 70.504 420.71 70.2585 419.921C69.4781 421.144 68.6955 422.364 67.9092 423.567ZM66.8772 421.019C67.1864 421.793 67.4964 422.557 67.8067 423.314C68.5975 422.102 69.3879 420.875 70.1729 419.642C69.9303 418.864 69.6886 418.086 69.4445 417.292C68.5915 418.543 67.736 419.788 66.8772 421.019ZM40.674 264.734C40.6815 263.822 40.6972 262.9 40.7087 261.983C39.2 261.732 37.6381 261.507 36.068 261.284C36.1855 262.142 36.3029 262.999 36.4209 263.853C37.8585 264.138 39.2926 264.425 40.674 264.734ZM40.6522 267.716C40.6553 266.807 40.6634 265.893 40.6705 264.978C39.3011 264.668 37.8791 264.381 36.4546 264.097C36.5737 264.952 36.6919 265.809 36.8114 266.658C38.109 267.004 39.4046 267.349 40.6522 267.716ZM40.6527 270.688C40.6513 269.782 40.6499 268.875 40.6527 267.963C39.4164 267.597 38.1329 267.253 36.8476 266.908C36.9685 267.764 37.0917 268.613 37.214 269.464C38.3738 269.865 39.5356 270.267 40.6527 270.688ZM40.6558 273.641C40.6493 272.748 40.655 271.837 40.6524 270.937C39.5458 270.518 38.3981 270.117 37.2504 269.716C37.3724 270.563 37.4923 271.418 37.6156 272.26C38.6404 272.716 39.6687 273.17 40.6558 273.641ZM40.6938 276.589C40.6823 275.692 40.6668 274.802 40.6594 273.9C39.6819 273.432 38.6685 272.979 37.6552 272.525C37.7802 273.374 37.9079 274.213 38.0333 275.058C38.9292 275.565 39.8294 276.07 40.6938 276.589ZM40.7301 279.51C40.7141 278.633 40.7078 277.742 40.6966 276.858C39.8428 276.344 38.9587 275.842 38.0745 275.339C38.1991 276.175 38.3232 277.016 38.4492 277.847C39.2174 278.399 39.9899 278.949 40.7301 279.51ZM40.7959 282.419C40.7755 281.545 40.751 280.676 40.7346 279.797C40.0055 279.244 39.2502 278.699 38.4958 278.154C38.6228 278.987 38.7508 279.81 38.8793 280.639C39.5229 281.23 40.173 281.821 40.7959 282.419ZM40.8695 285.294C40.8453 284.447 40.8249 283.592 40.8037 282.739C40.194 282.151 39.5625 281.57 38.9319 280.988C39.0579 281.801 39.183 282.614 39.3095 283.423C39.8334 284.045 40.3629 284.668 40.8695 285.294ZM40.9574 288.126C40.9296 287.308 40.904 286.485 40.8793 285.661C40.3884 285.053 39.882 284.447 39.3756 283.841C39.5002 284.631 39.6254 285.418 39.7505 286.202C40.1553 286.844 40.5647 287.484 40.9574 288.126ZM41.0639 290.902C41.0332 290.13 41.0025 289.358 40.975 288.581C40.6032 287.972 40.2212 287.363 39.8392 286.754C39.9582 287.498 40.078 288.239 40.1976 288.979C40.488 289.62 40.7803 290.263 41.0639 290.902ZM41.163 293.465C41.1343 292.815 41.1143 292.15 41.0871 291.497C40.8381 290.934 40.5844 290.37 40.3306 289.806C40.4359 290.449 40.5404 291.093 40.6454 291.733C40.8176 292.311 40.992 292.89 41.163 293.465ZM41.2636 295.438C41.2462 295.087 41.2266 294.742 41.21 294.39L40.935 293.465C41.0436 294.123 41.1533 294.782 41.2636 295.438ZM45.0007 265.782C45.1304 264.809 45.2759 263.817 45.4131 262.835C43.9477 262.551 42.4519 262.28 40.9259 262.023C40.9138 262.945 40.8986 263.871 40.8906 264.787C42.2915 265.105 43.6532 265.44 45.0007 265.782ZM44.5908 268.951C44.713 267.977 44.8377 267 44.9675 266.018C43.6323 265.678 42.2756 265.346 40.8879 265.03C40.8804 265.95 40.8729 266.87 40.8702 267.784C42.1384 268.161 43.3682 268.555 44.5908 268.951ZM44.2046 272.105C44.32 271.137 44.4405 270.165 44.5616 269.189C43.3512 268.795 42.1257 268.406 40.8699 268.031C40.8677 268.949 40.8679 269.863 40.8698 270.775C42.0067 271.207 43.107 271.656 44.2046 272.105ZM43.8336 275.235C43.94 274.279 44.0606 273.307 44.1753 272.343C43.0892 271.897 41.995 271.454 40.8706 271.025C40.873 271.933 40.8689 272.85 40.8753 273.751C41.8826 274.237 42.8577 274.736 43.8336 275.235ZM43.5064 278.355C43.606 277.397 43.7006 276.445 43.8078 275.479C42.8424 274.984 41.8744 274.491 40.8779 274.009C40.8853 274.921 40.9009 275.821 40.9124 276.726C41.7953 277.263 42.6486 277.81 43.5064 278.355ZM43.1832 281.441C43.273 280.506 43.383 279.55 43.4804 278.607C42.6343 278.067 41.7883 277.527 40.9171 276.996C40.9284 277.891 40.9351 278.795 40.9513 279.683C41.7094 280.264 42.443 280.853 43.1832 281.441ZM42.9077 284.52C42.9914 283.58 43.0641 282.651 43.1554 281.703C42.4273 281.124 41.7019 280.543 40.9548 279.969C40.972 280.867 40.999 281.75 41.0202 282.641C41.6605 283.265 42.281 283.894 42.9077 284.52ZM42.6438 287.557C42.7174 286.647 42.802 285.725 42.8832 284.806C42.2687 284.19 41.6569 283.573 41.0279 282.961C41.0493 283.835 41.0692 284.713 41.0946 285.581C41.6192 286.238 42.1284 286.899 42.6438 287.557ZM42.4102 290.562C42.4755 289.671 42.5433 288.777 42.6162 287.877C42.1143 287.233 41.6153 286.589 41.1043 285.948C41.1299 286.808 41.1604 287.662 41.1909 288.516C41.6017 289.198 42.0032 289.881 42.4102 290.562ZM42.2065 293.522C42.2632 292.666 42.3217 291.809 42.3843 290.945C41.9936 290.288 41.604 289.63 41.2078 288.973C41.2375 289.8 41.2698 290.625 41.3035 291.446C41.6064 292.139 41.9045 292.83 42.2065 293.522ZM42.0168 296.352C42.0628 295.574 42.1228 294.778 42.1737 293.995C41.8918 293.345 41.6101 292.696 41.3254 292.046C41.3577 292.815 41.3891 293.585 41.4246 294.349C41.6236 295.018 41.8196 295.684 42.0168 296.352ZM41.8803 299.062C41.9151 298.378 41.9442 297.701 41.9842 297.012L41.4744 295.284C41.5068 295.962 41.5427 296.636 41.5785 297.311C41.6772 297.898 41.7799 298.477 41.8803 299.062ZM41.7812 301.012C41.796 300.694 41.8141 300.373 41.8296 300.054L41.6707 299.135C41.7066 299.763 41.7439 300.388 41.7812 301.012ZM49.1778 266.899C49.4241 265.872 49.696 264.822 49.9541 263.783C48.5394 263.467 47.1025 263.161 45.6273 262.873C45.4895 263.859 45.3426 264.855 45.2123 265.833C46.5618 266.176 47.8837 266.532 49.1778 266.899ZM48.4008 270.24C48.6407 269.205 48.8694 268.18 49.1196 267.136C47.8328 266.768 46.5204 266.414 45.1812 266.07C45.051 267.058 44.9258 268.039 44.8032 269.019C46.0241 269.416 47.2271 269.822 48.4008 270.24ZM47.6434 273.554C47.8709 272.535 48.1094 271.504 48.3471 270.475C47.1809 270.057 45.9873 269.653 44.7739 269.256C44.6514 270.236 44.5297 271.215 44.4149 272.188C45.5087 272.637 46.5907 273.089 47.6434 273.554ZM46.9172 276.845C47.1344 275.834 47.3625 274.812 47.5897 273.789C46.5445 273.325 45.4709 272.874 44.3847 272.426C44.2698 273.398 44.1488 274.376 44.0424 275.34C45.0144 275.836 45.9819 276.335 46.9172 276.845ZM46.238 280.122C46.4459 279.111 46.6495 278.104 46.8676 277.085C45.9391 276.576 44.9818 276.078 44.0165 275.584C43.9092 276.558 43.8127 277.519 43.712 278.485C44.5648 279.026 45.4176 279.569 46.238 280.122ZM45.5684 283.355C45.7622 282.371 45.9838 281.359 46.1878 280.365C45.3733 279.815 44.5309 279.274 43.6859 278.736C43.5877 279.688 43.476 280.656 43.3852 281.6C44.1211 282.183 44.8596 282.764 45.5684 283.355ZM44.965 286.59C45.152 285.594 45.3211 284.614 45.5183 283.608C44.8155 283.021 44.0865 282.442 43.3575 281.863C43.2658 282.825 43.1933 283.766 43.1092 284.721C43.7336 285.342 44.3625 285.963 44.965 286.59ZM44.3734 289.775C44.5452 288.813 44.733 287.834 44.914 286.862C44.3185 286.24 43.7003 285.624 43.084 285.008C43.0025 285.942 42.9151 286.883 42.8403 287.81C43.3552 288.463 43.8758 289.117 44.3734 289.775ZM43.8261 292.938C43.9877 291.985 44.1474 291.033 44.3183 290.071C43.828 289.421 43.3184 288.775 42.8126 288.129C42.7388 289.056 42.6723 289.973 42.606 290.891C43.0149 291.574 43.4302 292.255 43.8261 292.938ZM43.3138 296.069C43.4623 295.143 43.6124 294.215 43.7703 293.282C43.3821 292.612 42.9793 291.943 42.5801 291.275C42.5153 292.172 42.4532 293.067 42.3951 293.957C42.7029 294.661 43.0136 295.366 43.3138 296.069ZM42.8291 299.103C42.9599 298.234 43.1093 297.346 43.2486 296.469C42.9593 295.791 42.6594 295.109 42.3624 294.429C42.3082 295.283 42.2514 296.138 42.2029 296.985C42.4124 297.692 42.6219 298.4 42.8291 299.103ZM42.4053 302.105C42.5217 301.278 42.6306 300.46 42.7548 299.626C42.5614 298.968 42.3658 298.306 42.1702 297.643C42.1259 298.447 42.0882 299.243 42.0488 300.039C42.1672 300.73 42.2856 301.42 42.4053 302.105ZM42.0251 304.798C42.112 304.141 42.2134 303.471 42.3055 302.81C42.2019 302.221 42.1005 301.626 41.9982 301.031C41.9693 301.654 41.9288 302.292 41.9033 302.911C41.944 303.541 41.983 304.173 42.0251 304.798ZM41.7852 306.624C41.8181 306.367 41.8425 306.118 41.8762 305.86C41.8601 305.633 41.8472 305.402 41.8318 305.174C41.8143 305.659 41.7993 306.141 41.7852 306.624ZM53.2071 268.101C53.5671 267.02 53.9613 265.909 54.34 264.81C52.9913 264.465 51.5785 264.149 50.1667 263.834C49.9062 264.876 49.6338 265.931 49.3861 266.963C50.6833 267.332 51.9661 267.707 53.2071 268.101ZM52.0786 271.613C52.4333 270.516 52.7649 269.439 53.1315 268.332C51.8971 267.939 50.6164 267.566 49.3287 267.198C49.0781 268.247 48.848 269.277 48.6067 270.317C49.7864 270.74 50.9472 271.17 52.0786 271.613ZM50.9624 275.089C51.2989 274.016 51.6544 272.926 52.0047 271.842C50.8809 271.401 49.7241 270.974 48.553 270.553C48.3141 271.587 48.0743 272.623 47.8454 273.648C48.9053 274.12 49.9428 274.601 50.9624 275.089ZM49.8969 278.543C50.2226 277.473 50.5508 276.399 50.8902 275.317C49.8782 274.83 48.844 274.354 47.7927 273.884C47.5642 274.912 47.3358 275.941 47.1176 276.96C48.0622 277.48 48.9845 278.01 49.8969 278.543ZM48.8774 281.972C49.1907 280.908 49.5024 279.846 49.8285 278.771C48.9229 278.241 48.0057 277.715 47.067 277.198C46.8477 278.225 46.6421 279.24 46.4331 280.258C47.265 280.824 48.0726 281.398 48.8774 281.972ZM47.8785 285.356C48.173 284.318 48.5011 283.253 48.8093 282.203C48.0104 281.632 47.208 281.064 46.383 280.502C46.1771 281.504 45.9526 282.526 45.7579 283.519C46.4786 284.127 47.1767 284.741 47.8785 285.356ZM46.9548 288.738C47.2427 287.689 47.5117 286.657 47.8122 285.595C47.1183 284.986 46.4244 284.376 45.7099 283.774C45.511 284.791 45.3385 285.783 45.1497 286.79C45.7635 287.436 46.3565 288.089 46.9548 288.738ZM46.0485 292.062C46.3157 291.048 46.606 290.015 46.886 288.99C46.2948 288.346 45.7063 287.701 45.0997 287.062C44.9153 288.047 44.7244 289.041 44.5503 290.017C45.0585 290.696 45.5503 291.379 46.0485 292.062ZM45.2 295.367C45.4564 294.357 45.7068 293.353 45.9751 292.332C45.4842 291.658 44.997 290.984 44.4961 290.312C44.3219 291.297 44.162 292.267 43.998 293.241C44.4048 293.95 44.7987 294.658 45.2 295.367ZM44.3917 298.628C44.6297 297.649 44.8729 296.665 45.1229 295.676C44.7293 294.979 44.3404 294.282 43.9412 293.586C43.7809 294.542 43.6241 295.496 43.474 296.442C43.7844 297.172 44.0851 297.899 44.3917 298.628ZM43.6201 301.809C43.8367 300.876 44.0757 299.925 44.3034 298.983C44.0051 298.271 43.7088 297.56 43.4076 296.848C43.2617 297.771 43.1141 298.696 42.9784 299.61C43.1934 300.345 43.4052 301.075 43.6201 301.809ZM42.914 304.985C43.117 304.074 43.3088 303.173 43.5211 302.253C43.3155 301.547 43.1101 300.843 42.9034 300.135C42.7708 301.032 42.65 301.918 42.5258 302.807C42.6547 303.538 42.7855 304.259 42.914 304.985ZM42.2511 307.969C42.4213 307.168 42.6137 306.346 42.7915 305.538C42.6705 304.859 42.5489 304.182 42.4288 303.502C42.3212 304.288 42.1959 305.092 42.0942 305.87C42.1433 306.575 42.1988 307.269 42.2511 307.969ZM41.6737 310.803C41.8163 310.098 41.9401 309.409 42.0894 308.697C42.047 308.134 42.0014 307.575 41.959 307.012C41.8669 307.739 41.7894 308.452 41.7033 309.173C41.6885 309.723 41.6835 310.259 41.6737 310.803ZM41.2613 312.905C41.3204 312.602 41.3795 312.3 41.4394 311.996C41.443 311.772 41.445 311.55 41.4486 311.326C41.3902 311.849 41.3165 312.386 41.2613 312.905ZM57.0936 269.42C57.5619 268.287 58.0552 267.133 58.5459 265.982C57.2317 265.6 55.9273 265.214 54.5553 264.859C54.1751 265.962 53.7785 267.077 53.418 268.162C54.6768 268.567 55.8857 268.994 57.0936 269.42ZM55.622 273.075C56.0837 271.931 56.524 270.806 57.0003 269.651C55.798 269.224 54.5957 268.798 53.3417 268.395C52.9736 269.507 52.6397 270.589 52.2836 271.689C53.425 272.139 54.527 272.605 55.622 273.075ZM54.1685 276.687C54.6078 275.571 55.0746 274.432 55.5311 273.301C54.4419 272.833 53.3454 272.367 52.2105 271.918C51.8589 273.008 51.5012 274.103 51.1624 275.181C52.1871 275.675 53.185 276.178 54.1685 276.687ZM52.7839 280.281C53.2133 279.159 53.6325 278.046 54.0783 276.912C53.0996 276.404 52.1083 275.901 51.0903 275.41C50.7497 276.498 50.4202 277.578 50.0924 278.655C51.0059 279.19 51.9042 279.731 52.7839 280.281ZM51.4425 283.842C51.8547 282.734 52.2715 281.625 52.6993 280.506C51.8246 279.958 50.9337 279.417 50.0249 278.883C49.6975 279.964 49.383 281.034 49.0674 282.104C49.8705 282.679 50.6681 283.256 51.4425 283.842ZM50.1328 287.357C50.5251 286.273 50.9484 285.164 51.3571 284.068C50.5877 283.484 49.7976 282.909 48.9985 282.336C48.6875 283.395 48.3593 284.468 48.0628 285.514C48.7607 286.126 49.4594 286.738 50.1328 287.357ZM48.902 290.87C49.2867 289.775 49.6508 288.697 50.051 287.59C49.3815 286.974 48.6903 286.363 47.9965 285.754C47.6931 286.824 47.4206 287.868 47.131 288.927C47.7271 289.573 48.3268 290.218 48.902 290.87ZM47.6936 294.318C48.0533 293.262 48.4421 292.18 48.8173 291.111C48.2461 290.463 47.6533 289.821 47.0621 289.178C46.7796 290.215 46.4841 291.262 46.2144 292.287C46.7102 292.963 47.2133 293.639 47.6936 294.318ZM46.5526 297.761C46.9016 296.7 47.2386 295.65 47.6039 294.575C47.1279 293.901 46.6317 293.23 46.14 292.557C45.8671 293.597 45.6172 294.616 45.3571 295.644C45.7572 296.35 46.1638 297.056 46.5526 297.761ZM45.4538 301.16C45.7824 300.128 46.1171 299.091 46.4603 298.047C46.0767 297.349 45.6756 296.651 45.28 295.953C45.0255 296.962 44.7752 297.968 44.5334 298.965C44.8412 299.698 45.1528 300.43 45.4538 301.16ZM44.4007 304.486C44.7054 303.494 45.0324 302.483 45.3507 301.478C45.0546 300.761 44.7479 300.04 44.4451 299.32C44.2089 300.299 43.9718 301.279 43.7476 302.247C43.9657 302.994 44.1849 303.743 44.4007 304.486ZM43.4184 307.813C43.7077 306.834 43.983 305.865 44.286 304.874C44.0758 304.15 43.8621 303.419 43.6487 302.69C43.4274 303.651 43.2232 304.596 43.0139 305.546C43.1482 306.303 43.2827 307.061 43.4184 307.813ZM42.4842 310.978C42.736 310.09 43.017 309.177 43.2808 308.279C43.1498 307.556 43.0209 306.826 42.8913 306.097C42.7009 306.967 42.4892 307.856 42.3092 308.717C42.3662 309.473 42.4231 310.228 42.4842 310.978ZM41.6294 314.1C41.8608 313.25 42.0684 312.422 42.3111 311.564C42.255 310.883 42.2037 310.193 42.1516 309.505C41.9752 310.356 41.8236 311.185 41.6566 312.028C41.6476 312.719 41.6359 313.412 41.6294 314.1ZM40.8798 316.915C41.0495 316.266 41.2243 315.614 41.4009 314.96C41.4047 314.384 41.4152 313.8 41.424 313.218C41.3011 313.851 41.1682 314.495 41.0504 315.122C40.9955 315.718 40.9356 316.319 40.8798 316.915ZM40.4319 318.596C40.466 318.463 40.5054 318.326 40.5395 318.193C40.5555 318.018 40.574 317.84 40.5899 317.664C40.5338 317.978 40.4863 318.284 40.4319 318.596ZM60.8539 270.78C61.4309 269.589 62.0183 268.389 62.6186 267.18C61.3869 266.777 60.0546 266.418 58.757 266.045C58.2648 267.2 57.77 268.357 57.2993 269.495C58.4984 269.917 59.7126 270.331 60.8539 270.78ZM59.0473 274.585C59.6148 273.391 60.1641 272.211 60.7462 271.006C59.6107 270.559 58.3986 270.147 57.206 269.725C56.7282 270.885 56.2856 272.014 55.8226 273.163C56.9127 273.63 58.0063 274.096 59.0473 274.585ZM57.2638 278.341C57.8028 277.179 58.3823 275.985 58.942 274.806C57.9067 274.319 56.8152 273.857 55.7308 273.391C55.2729 274.526 54.803 275.67 54.3622 276.791C55.3458 277.3 56.3223 277.814 57.2638 278.341ZM55.5709 282.081C56.1037 280.904 56.609 279.749 57.1609 278.558C56.2241 278.032 55.2498 277.523 54.272 277.014C53.824 278.156 53.4035 279.274 52.9719 280.402C53.8537 280.956 54.7231 281.515 55.5709 282.081ZM53.9164 285.777C54.4257 284.626 54.9471 283.465 55.4745 282.299C54.6315 281.734 53.7653 281.179 52.8874 280.628C52.4575 281.754 52.0377 282.87 51.6223 283.983C52.4019 284.576 53.1636 285.175 53.9164 285.777ZM52.3088 289.431C52.7984 288.296 53.3113 287.144 53.819 285.994C53.0721 285.395 52.3125 284.798 51.5378 284.209C51.1264 285.315 50.7028 286.431 50.3078 287.524C50.9879 288.155 51.6493 288.793 52.3088 289.431ZM50.7798 293.07C51.2587 291.931 51.7185 290.806 52.2147 289.653C51.5601 289.018 50.9011 288.385 50.2249 287.757C49.8218 288.872 49.4532 289.96 49.0664 291.062C49.6497 291.729 50.213 292.4 50.7798 293.07ZM49.2811 296.64C49.7296 295.541 50.217 294.413 50.6835 293.299C50.1209 292.633 49.5599 291.966 48.9818 291.305C48.6039 292.383 48.2088 293.477 47.8473 294.542C48.3341 295.241 48.8044 295.941 49.2811 296.64ZM47.8628 300.205C48.3028 299.096 48.7214 298.005 49.1795 296.881C48.707 296.186 48.2392 295.492 47.7567 294.8C47.3873 295.889 47.0505 296.951 46.6976 298.028C47.0922 298.753 47.4737 299.479 47.8628 300.205ZM46.4909 303.712C46.9048 302.639 47.3281 301.558 47.7583 300.472C47.3736 299.753 46.9946 299.034 46.6034 298.315C46.2568 299.372 45.9146 300.426 45.5835 301.47C45.8911 302.219 46.1881 302.964 46.4909 303.712ZM45.172 307.153C45.5596 306.116 45.9713 305.058 46.3753 304.008C46.0762 303.269 45.7819 302.533 45.4799 301.793C45.1541 302.825 44.8264 303.857 44.5152 304.876C44.7357 305.639 44.9528 306.395 45.172 307.153ZM43.9263 310.601C44.2996 309.569 44.6564 308.549 45.0451 307.504C44.8299 306.757 44.6169 306.014 44.3995 305.265C44.0893 306.285 43.8006 307.288 43.504 308.296C43.6445 309.068 43.7862 309.833 43.9263 310.601ZM42.7294 313.912C43.0629 312.958 43.4316 311.973 43.7789 311.007C43.6416 310.257 43.5031 309.515 43.3664 308.763C43.0919 309.703 42.7924 310.663 42.5307 311.591C42.5955 312.37 42.6625 313.141 42.7294 313.912ZM41.6083 317.229C41.9268 316.281 42.2212 315.355 42.5543 314.395C42.4897 313.666 42.4221 312.943 42.3608 312.21C42.0969 313.154 41.8681 314.068 41.6171 315C41.611 315.749 41.6089 316.49 41.6083 317.229ZM40.5634 320.394C40.8336 319.561 41.1135 318.72 41.395 317.878C41.3937 317.205 41.3866 316.539 41.3887 315.861C41.1777 316.656 40.9557 317.459 40.7531 318.244C40.6857 318.966 40.6207 319.684 40.5634 320.394ZM39.6628 323.143C39.8589 322.517 40.0818 321.87 40.284 321.239C40.3289 320.665 40.3645 320.1 40.4136 319.521C40.2417 320.203 40.0998 320.859 39.9348 321.535C39.8449 322.07 39.7458 322.614 39.6628 323.143ZM39.1373 324.905C39.1668 324.808 39.1928 324.714 39.2231 324.618C39.2327 324.556 39.2397 324.495 39.2493 324.433C39.2128 324.589 39.1729 324.748 39.1373 324.905ZM64.4331 272.302C65.1105 271.063 65.7759 269.834 66.4766 268.577C65.2696 268.132 64.0865 267.675 62.8262 267.255C62.2258 268.464 61.6384 269.663 61.0615 270.855C62.2266 271.318 63.316 271.816 64.4331 272.302ZM62.3188 276.221C62.9812 274.991 63.6324 273.77 64.3105 272.528C63.1981 272.042 62.1153 271.545 60.9529 271.081C60.3684 272.291 59.8168 273.475 59.2479 274.673C60.306 275.174 61.3043 275.701 62.3188 276.221ZM60.2335 280.087C60.8622 278.892 61.5464 277.655 62.1993 276.441C61.1887 275.922 60.195 275.395 59.1425 274.894C58.5805 276.077 57.9978 277.277 57.4575 278.443C58.4093 278.98 59.3201 279.535 60.2335 280.087ZM58.2575 283.947C58.8865 282.727 59.4714 281.54 60.1212 280.304C59.2097 279.752 58.3036 279.198 57.3545 278.661C56.8005 279.859 56.2939 281.018 55.7579 282.201C56.6112 282.776 57.4375 283.36 58.2575 283.947ZM56.3123 287.752C56.9103 286.565 57.53 285.364 58.1487 284.162C57.3317 283.577 56.5109 282.992 55.6606 282.419C55.1301 283.591 54.6066 284.759 54.0941 285.916C54.8482 286.523 55.5861 287.135 56.3123 287.752ZM54.4275 291.519C55.007 290.344 55.603 289.156 56.2032 287.964C55.4809 287.349 54.7478 286.738 53.9976 286.133C53.4861 287.29 52.972 288.451 52.4795 289.593C53.1391 290.232 53.7923 290.873 54.4275 291.519ZM52.619 295.267C53.1856 294.092 53.7365 292.928 54.3228 291.737C53.6906 291.093 53.0421 290.454 52.3864 289.816C51.8864 290.977 51.4218 292.111 50.9409 293.257C51.5057 293.926 52.0733 294.594 52.619 295.267ZM50.8452 298.943C51.3787 297.81 51.9586 296.639 52.5119 295.49C51.9692 294.818 51.4074 294.153 50.8447 293.486C50.3742 294.608 49.8815 295.748 49.4292 296.856C49.9046 297.551 50.3855 298.246 50.8452 298.943ZM49.1585 302.625C49.6873 301.472 50.1839 300.343 50.7326 299.175C50.2759 298.48 49.7999 297.788 49.3268 297.097C48.8636 298.235 48.4443 299.337 47.9992 300.461C48.3878 301.182 48.7829 301.903 49.1585 302.625ZM47.5184 306.251C48.0164 305.135 48.5273 304.01 49.0443 302.879C48.671 302.162 48.2809 301.444 47.8956 300.727C47.4611 301.827 47.0291 302.924 46.6119 304.009C46.9156 304.757 47.2213 305.505 47.5184 306.251ZM45.9377 309.811C46.4082 308.727 46.9046 307.624 47.3931 306.525C47.0996 305.786 46.7955 305.045 46.4944 304.304C46.0817 305.38 45.6708 306.454 45.2752 307.515C45.4971 308.282 45.7191 309.05 45.9377 309.811ZM44.4374 313.374C44.8923 312.293 45.3292 311.227 45.8033 310.133C45.5875 309.381 45.3684 308.623 45.1503 307.866C44.7545 308.934 44.3853 309.979 44.0057 311.031C44.1492 311.815 44.2926 312.597 44.4374 313.374ZM42.9917 316.804C43.4029 315.798 43.8547 314.759 44.2832 313.74C44.1408 312.977 44.0005 312.207 43.8594 311.439C43.5028 312.433 43.1188 313.451 42.7768 314.433C42.8468 315.226 42.9176 316.017 42.9917 316.804ZM41.6259 320.242C42.0242 319.236 42.3965 318.251 42.8119 317.231C42.7402 316.468 42.6717 315.698 42.6031 314.929C42.2524 315.946 41.9482 316.924 41.6129 317.926C41.615 318.7 41.6197 319.473 41.6259 320.242ZM40.3378 323.554C40.6885 322.641 41.0477 321.719 41.4121 320.794C41.4046 320.058 41.402 319.315 41.3994 318.573C41.0985 319.482 40.788 320.398 40.5 321.296C40.4443 322.051 40.3902 322.803 40.3378 323.554ZM39.1635 326.608C39.4524 325.83 39.7714 325.028 40.0707 324.242C40.1181 323.545 40.1698 322.842 40.2205 322.14C39.9481 322.998 39.6971 323.839 39.4358 324.687C39.3444 325.328 39.2547 325.966 39.1635 326.608ZM38.1025 329.595C38.3361 328.944 38.5534 328.306 38.7937 327.647C38.8652 327.134 38.9401 326.617 39.0124 326.103C38.8049 326.792 38.5974 327.481 38.3976 328.163C38.2932 328.645 38.2043 329.115 38.1025 329.595ZM37.4228 331.509C37.4692 331.377 37.5174 331.244 37.5637 331.112C37.5981 330.944 37.6334 330.776 37.667 330.609C37.5819 330.913 37.508 331.206 37.4228 331.509ZM96.5263 368.503C96.916 367.803 97.3131 367.102 97.6955 366.403C114.572 326.057 114.759 286.504 66.6853 268.654C65.9821 269.914 65.3144 271.148 64.6355 272.39C109.029 291.804 110.502 329.966 96.5263 368.503ZM94.2831 372.455C94.7743 371.607 95.2645 370.758 95.7437 369.91C110.234 330.988 109.263 292.242 64.5128 272.615C63.8314 273.861 63.1779 275.087 62.5131 276.321C103.723 297.571 106.106 335.172 94.2831 372.455ZM92.0237 376.293C92.5965 375.338 93.1533 374.382 93.7111 373.427C105.861 335.911 103.796 297.944 62.3937 276.542C61.7384 277.76 61.0511 279.002 60.42 280.202C98.3877 303.27 101.681 340.281 92.0237 376.293ZM89.6828 380.105C90.307 379.097 90.9451 378.089 91.5561 377.08C101.456 340.902 98.4038 303.618 60.3087 280.42C59.6566 281.66 59.0686 282.853 58.4373 284.079C93.0633 308.967 97.1954 345.375 89.6828 380.105ZM87.2647 383.956C87.9625 382.865 88.6479 381.771 89.3295 380.677C97.002 345.851 93.0167 309.273 58.3275 284.293C57.7066 285.501 57.0838 286.709 56.4826 287.901C87.7743 314.617 92.6866 350.47 87.2647 383.956ZM84.7719 387.804C85.5102 386.681 86.2387 385.552 86.9616 384.424C92.5012 350.877 87.6978 314.903 56.3736 288.113C55.7695 289.312 55.174 290.505 54.5907 291.689C82.5115 320.231 88.1452 355.545 84.7719 387.804ZM82.1971 391.651C82.9688 390.508 83.747 389.365 84.5051 388.217C87.9703 355.918 82.4215 320.513 54.485 291.908C53.8956 293.105 53.34 294.277 52.7705 295.46C77.282 325.815 83.5725 360.605 82.1971 391.651ZM79.5321 395.555C80.3494 394.375 81.1568 393.189 81.9603 392.001C83.4018 360.937 77.1733 326.087 52.6625 295.683C52.1062 296.84 51.5197 298.019 50.9833 299.16C72.0983 331.346 78.9745 365.673 79.5321 395.555ZM76.7756 399.493C77.6305 398.289 78.476 397.075 79.3179 395.861C78.8066 365.977 71.9745 331.614 50.8716 299.393C50.3178 300.574 49.821 301.711 49.2879 302.876C66.9651 336.878 74.3476 370.759 76.7756 399.493ZM73.9169 403.461C74.8069 402.236 75.7006 401.01 76.5802 399.773C74.1841 371.051 66.8326 337.154 49.1728 303.131C48.653 304.27 48.134 305.409 47.6331 306.532C61.8717 342.353 69.6832 375.833 73.9169 403.461ZM70.9682 407.479C71.8949 406.229 72.8183 404.974 73.7353 403.712C69.5216 376.107 61.7294 342.633 47.5072 306.809C47.0096 307.928 46.5137 309.047 46.036 310.151C56.8316 347.792 64.9976 380.919 70.9682 407.479ZM67.9291 411.541C68.8895 410.275 69.8435 408.991 70.7967 407.708C64.837 381.184 56.6835 348.089 45.9005 310.472C45.4199 311.585 44.9713 312.673 44.5096 313.771C51.8551 353.217 60.2914 386.022 67.9291 411.541ZM64.7903 415.631C65.7834 414.347 66.7776 413.055 67.7661 411.754C60.1346 386.277 51.7034 353.524 44.3565 314.138C43.9199 315.179 43.4533 316.246 43.035 317.274C46.9261 358.549 55.553 391.1 64.7903 415.631ZM61.5546 419.765C62.5821 418.463 63.611 417.156 64.6365 415.832C55.404 391.35 46.7743 358.874 42.8543 317.701C42.4206 318.771 42.0447 319.795 41.6299 320.849C42.0731 363.896 50.8003 396.204 61.5546 419.765ZM58.2306 423.938C59.2893 422.622 60.3478 421.294 61.406 419.954C50.6628 396.457 41.9297 364.267 41.4151 321.4C41.0349 322.372 40.6485 323.348 40.2838 324.308C37.2732 369.16 46.0279 401.286 58.2306 423.938ZM65.7175 418.665C64.7601 419.962 63.7981 421.24 62.8377 422.515C63.204 423.283 63.5732 424.034 63.9439 424.781C64.841 423.524 65.7367 422.262 66.6305 420.982C66.3261 420.217 66.0219 419.447 65.7175 418.665ZM68.6411 414.658C67.7197 415.932 66.795 417.202 65.868 418.458C66.1713 419.238 66.4742 420.005 66.7784 420.766C67.6419 419.527 68.5034 418.277 69.3603 417.018C69.1216 416.242 68.8814 415.45 68.6411 414.658ZM71.4652 410.698C70.5807 411.95 69.6942 413.202 68.8025 414.438C69.0425 415.227 69.2814 416.016 69.519 416.79C70.3508 415.569 71.1735 414.331 71.9971 413.093C71.822 412.301 71.6432 411.5 71.4652 410.698ZM74.1925 406.793C73.3447 408.021 72.4923 409.242 71.6347 410.457C71.8122 411.254 71.9909 412.053 72.1644 412.839C72.9611 411.639 73.7504 410.43 74.5382 409.215C74.4253 408.412 74.3112 407.607 74.1925 406.793ZM76.8247 402.952C76.016 404.153 75.1938 405.34 74.3736 406.529C74.4916 407.336 74.6072 408.138 74.7195 408.935C75.4788 407.76 76.237 406.585 76.9857 405.398C76.9353 404.587 76.8837 403.775 76.8247 402.952ZM79.3556 399.131C78.581 400.31 77.8055 401.49 77.0197 402.659C77.0787 403.472 77.1313 404.277 77.1839 405.082C77.9083 403.931 78.6266 402.776 79.3389 401.615C79.3484 400.79 79.358 399.964 79.3556 399.131ZM81.7766 395.393C81.0465 396.533 80.3144 397.671 79.5723 398.803C79.5748 399.628 79.566 400.443 79.5584 401.26C80.2487 400.132 80.9232 398.995 81.6007 397.858C81.6659 397.04 81.7232 396.217 81.7766 395.393ZM84.0883 391.753C83.4107 392.841 82.7146 393.922 82.0234 395.004C81.9728 395.819 81.9125 396.63 81.851 397.439C82.4986 396.349 83.1404 395.257 83.7743 394.16C83.888 393.361 83.9853 392.556 84.0883 391.753ZM86.3017 388.127C85.6635 389.181 85.0245 390.236 84.3729 391.286C84.2741 392.076 84.1744 392.865 84.0649 393.65C84.6612 392.614 85.2565 391.578 85.8393 390.538C86.0011 389.737 86.1504 388.931 86.3017 388.127ZM88.4048 384.598C87.8195 385.595 87.2315 386.592 86.6328 387.585C86.4901 388.354 86.357 389.126 86.2047 389.892C86.7538 388.906 87.2799 387.913 87.8155 386.922C88.0154 386.148 88.2134 385.373 88.4048 384.598ZM90.3824 381.2C89.8662 382.106 89.332 383.008 88.8034 383.912C88.6303 384.628 88.463 385.347 88.2814 386.061C88.7543 385.179 89.2207 384.296 89.6823 383.412C89.9157 382.675 90.1603 381.939 90.3824 381.2ZM92.1745 377.977C91.7404 378.763 91.3157 379.551 90.8721 380.336C90.6921 380.946 90.5093 381.557 90.3217 382.166C90.7013 381.429 91.0827 380.693 91.4548 379.955C91.6969 379.296 91.9409 378.637 92.1745 377.977ZM93.6148 375.367C93.3793 375.804 93.1289 376.241 92.8907 376.679C92.7341 377.133 92.5673 377.586 92.4032 378.039C92.6777 377.481 92.9382 376.921 93.2091 376.363C93.347 376.031 93.4795 375.698 93.6148 375.367ZM69.0753 264.429C118.777 279.953 119.244 318.155 101.856 358.425C123.153 315.551 125.427 274.821 71.2236 260.635C70.4913 261.912 69.7929 263.164 69.0753 264.429ZM64.8717 263.168C66.2469 263.547 67.5483 263.958 68.8604 264.365C69.5756 263.103 70.2725 261.855 71.0031 260.581C69.5956 260.215 68.1774 259.855 66.697 259.524C66.0689 260.753 65.4859 261.95 64.8717 263.168ZM60.4454 262.092C61.8661 262.422 63.3109 262.741 64.6595 263.104C65.2713 261.888 65.8538 260.696 66.4794 259.469C65.0281 259.15 63.4923 258.87 61.9618 258.587C61.445 259.766 60.9504 260.925 60.4454 262.092ZM55.8641 261.056C57.368 261.362 58.791 261.705 60.23 262.042C60.7334 260.877 61.2255 259.721 61.7409 258.547C60.1915 258.261 58.6775 257.957 57.0552 257.705C56.6545 258.826 56.2546 259.946 55.8641 261.056ZM51.073 260.204C52.619 260.465 54.1712 260.723 55.6462 261.018C56.0351 259.91 56.4336 258.794 56.8328 257.677C55.2507 257.437 53.5718 257.243 51.9097 257.04C51.6308 258.094 51.3425 259.157 51.073 260.204ZM46.1122 259.421C47.7314 259.651 49.307 259.902 50.8578 260.165C51.1258 259.122 51.4143 258.061 51.6917 257.01C50.0155 256.806 48.3321 256.604 46.5813 256.436C46.4266 257.429 46.2585 258.437 46.1122 259.421ZM40.9749 258.764C42.65 258.957 44.2887 259.168 45.8953 259.394C46.041 258.412 46.2085 257.408 46.3617 256.418C44.629 256.253 42.8546 256.109 41.0455 255.981C41.0228 256.908 40.9936 257.843 40.9749 258.764ZM35.6547 258.232C37.3819 258.388 39.101 258.547 40.7581 258.736C40.7762 257.82 40.8057 256.887 40.8288 255.964C39.034 255.839 37.1878 255.741 35.3166 255.653C35.4287 256.513 35.5402 257.376 35.6547 258.232ZM30.1415 257.771C31.9512 257.896 33.6882 258.057 35.4313 258.213C35.3182 257.361 35.2069 256.5 35.0933 255.644C33.2121 255.558 31.3396 255.466 29.3846 255.415C29.6372 256.2 29.8909 256.987 30.1415 257.771ZM24.4678 257.482C26.2956 257.564 28.1509 257.633 29.9059 257.751C29.6557 256.971 29.4032 256.187 29.1529 255.406C27.2551 255.36 25.2635 255.36 23.287 255.355C23.68 256.064 24.0767 256.773 24.4678 257.482ZM18.5625 257.223C20.503 257.278 22.336 257.385 24.2116 257.471C23.8227 256.765 23.4282 256.06 23.0365 255.354C21.0151 255.346 19.0496 255.31 16.9582 255.338C17.4949 255.967 18.0315 256.595 18.5625 257.223ZM12.5626 257.173C14.4782 257.184 16.4328 257.174 18.2738 257.222C17.7449 256.596 17.2123 255.97 16.6779 255.345C14.6976 255.377 12.6003 255.465 10.5393 255.536C11.2192 256.08 11.8918 256.626 12.5626 257.173ZM6.29204 257.151C8.31275 257.134 10.2528 257.156 12.2115 257.17C11.5457 256.627 10.8818 256.085 10.2043 255.546C8.10042 255.616 6.03825 255.666 3.86348 255.771C4.69158 256.225 5.48642 256.69 6.29204 257.151ZM-0.0396154 257.3C1.94837 257.244 3.95064 257.182 5.86768 257.161C5.14409 256.747 4.43303 256.329 3.6888 255.923L3.67995 255.918L3.67184 255.912L3.52584 255.792C1.49123 255.894 -0.629429 256.038 -2.73581 256.176L-2.429 256.349C-1.61263 256.658 -0.831929 256.981 -0.0396154 257.3ZM-6.6538 257.51C-4.59606 257.425 -2.59508 257.369 -0.596766 257.313C-1.23194 257.058 -1.85735 256.798 -2.51216 256.551L-2.51889 256.549L-2.52774 256.544C-2.73004 256.429 -2.93225 256.315 -3.13548 256.2C-5.2567 256.339 -7.3487 256.462 -9.52843 256.63C-9.23794 256.742 -8.94663 256.854 -8.65522 256.967C-7.97149 257.14 -7.31707 257.327 -6.6538 257.51ZM-13.2967 257.86C-11.2942 257.745 -9.29155 257.63 -7.35287 257.546C-7.8038 257.421 -8.25012 257.295 -8.71718 257.175L-8.72391 257.173L-8.72971 257.171C-9.16148 257.004 -9.59234 256.838 -10.0231 256.672C-12.0675 256.834 -14.1837 257.032 -16.2963 257.229L-14.8843 257.583C-14.3404 257.671 -13.8208 257.766 -13.2967 257.86ZM-20.2107 258.292C-18.2025 258.149 -16.2287 258.026 -14.2771 257.913C-14.4903 257.874 -14.7018 257.836 -14.923 257.801L-14.9277 257.8L-14.9334 257.799C-15.6114 257.628 -16.2872 257.459 -16.9612 257.29C-19.0655 257.486 -21.1371 257.665 -23.2891 257.886C-22.5637 257.993 -21.8355 258.099 -21.1062 258.207C-20.7994 258.231 -20.506 258.262 -20.2107 258.292ZM-27.0604 258.835C-25.1561 258.677 -23.2472 258.519 -21.3909 258.385C-22.3099 258.25 -23.2262 258.115 -24.1396 257.982C-26.0664 258.185 -28.0541 258.42 -30.0402 258.653L-27.3369 258.826C-27.2417 258.828 -27.1528 258.833 -27.0604 258.835ZM-34.0166 259.45C-32.1953 259.271 -30.4105 259.111 -28.6486 258.961L-31.2733 258.794C-33.2104 259.023 -35.0839 259.219 -37.0459 259.461L-34.0166 259.45ZM-40.2971 260.102C-38.9354 259.963 -37.5436 259.808 -36.1969 259.677L-38.6875 259.686C-40.0411 259.86 -41.4469 260.06 -42.8386 260.253L-40.2971 260.102ZM-45.9964 260.692C-45.747 260.664 -45.518 260.645 -45.2705 260.617L-45.6822 260.641C-45.875 260.668 -46.0642 260.694 -46.257 260.72L-45.9964 260.692ZM-34.0059 259.668C-34.2078 259.687 -34.4231 259.713 -34.6277 259.733C-34.2912 259.71 -33.96 259.69 -33.6244 259.667L-34.0059 259.668ZM-27.0534 259.055C-28.5331 259.177 -29.957 259.27 -31.4607 259.404C-30.5412 259.376 -29.6641 259.371 -28.7524 259.348C-27.4148 259.265 -26.095 259.192 -24.791 259.127C-25.54 259.101 -26.2786 259.068 -27.0534 259.055ZM-20.2065 258.51C-21.7954 258.621 -23.4453 258.763 -25.0848 258.898C-23.9466 258.925 -22.843 258.968 -21.7262 259.005C-20.1458 258.941 -18.5501 258.87 -16.9918 258.817C-18.0559 258.712 -19.1111 258.602 -20.2065 258.51ZM-13.3015 258.082C-15.1757 258.187 -17.034 258.283 -18.9533 258.412C-17.7394 258.517 -16.5575 258.637 -15.3703 258.754C-13.57 258.701 -11.8257 258.675 -10.0689 258.642C-11.1395 258.453 -12.204 258.26 -13.3015 258.082ZM-6.67163 257.732C-8.50775 257.808 -10.4202 257.921 -12.321 258.03C-11.156 258.223 -10.0123 258.427 -8.86767 258.629C-7.08821 258.601 -5.31051 258.573 -3.58432 258.57C-4.60746 258.288 -5.62886 258.005 -6.67163 257.732ZM-0.0694229 257.524C-2.02534 257.575 -3.96357 257.617 -5.97266 257.694C-4.89994 257.979 -3.83873 258.269 -2.78296 258.561C-0.910793 258.566 0.890334 258.604 2.71459 258.633C1.79316 258.26 0.866291 257.89 -0.0694229 257.524ZM6.24371 257.375C4.3804 257.394 2.42208 257.458 0.487727 257.511C1.44123 257.887 2.39473 258.264 3.33561 258.644C5.12991 258.671 6.93307 258.693 8.66342 258.75C7.86435 258.289 7.05357 257.832 6.24371 257.375ZM12.493 257.398C10.5602 257.382 8.66032 257.351 6.66808 257.365C7.48706 257.83 8.31323 258.292 9.12235 258.76C10.9663 258.827 12.7208 258.939 14.5133 259.032C13.848 258.485 13.1664 257.942 12.493 257.398ZM18.4668 257.449C16.6583 257.401 14.7273 257.412 12.8441 257.4C13.5228 257.951 14.2143 258.499 14.8847 259.051C16.6247 259.139 18.3957 259.212 20.068 259.331C19.5426 258.703 18.9988 258.077 18.4668 257.449ZM24.3422 257.707C22.4917 257.62 20.6757 257.517 18.7639 257.46C19.298 258.091 19.8432 258.721 20.37 259.354C22.1349 259.487 23.8003 259.667 25.5102 259.826C25.1259 259.12 24.7322 258.414 24.3422 257.707ZM29.9831 257.993C28.243 257.875 26.4096 257.802 24.5984 257.718C24.9906 258.429 25.3848 259.14 25.7713 259.85C27.4406 260.004 29.1277 260.15 30.7322 260.335C30.4839 259.556 30.2335 258.774 29.9831 257.993ZM35.4636 258.452C33.7372 258.295 32.0117 258.138 30.2197 258.013C30.4715 258.799 30.7222 259.585 30.9719 260.368C32.6286 260.563 34.2114 260.793 35.8113 261.016C35.6943 260.162 35.5782 259.309 35.4636 258.452ZM40.7515 258.978C39.1056 258.788 37.402 258.626 35.686 258.471C35.8011 259.332 35.9176 260.19 36.0348 261.045C37.6177 261.265 39.1918 261.491 40.7116 261.742C40.7229 260.822 40.7326 259.906 40.7515 258.978ZM45.8615 259.632C44.266 259.407 42.6323 259.199 40.9683 259.005C40.9499 259.938 40.9405 260.857 40.9287 261.781C42.4677 262.037 43.9659 262.314 45.4453 262.598C45.583 261.611 45.7138 260.631 45.8615 259.632ZM50.7973 260.406C49.253 260.143 47.6901 259.89 46.0784 259.661C45.9301 260.662 45.7988 261.647 45.6614 262.637C47.1458 262.924 48.5902 263.23 50.0141 263.546C50.2744 262.501 50.526 261.462 50.7973 260.406ZM55.5638 261.255C54.0973 260.961 52.55 260.705 51.0124 260.444C50.7406 261.504 50.4874 262.546 50.2266 263.596C51.6478 263.911 53.0619 264.231 54.4208 264.576C54.8015 263.469 55.1728 262.37 55.5638 261.255ZM60.1273 262.28C58.6939 261.944 57.281 261.599 55.7827 261.294C55.3902 262.413 55.0174 263.515 54.6353 264.626C56.0147 264.981 57.3247 265.367 58.6454 265.748C59.1368 264.595 59.6256 263.442 60.1273 262.28ZM64.5384 263.344C63.1953 262.981 61.7588 262.661 60.3427 262.331C59.8395 263.496 59.3483 264.653 58.8554 265.81C60.1605 266.184 61.494 266.545 62.7332 266.949C63.3284 265.753 63.932 264.549 64.5384 263.344ZM68.7268 264.602C67.4204 264.196 66.121 263.786 64.7515 263.409C64.1436 264.617 63.5381 265.822 62.9423 267.02C64.2102 267.442 65.3927 267.902 66.6063 268.348C67.2996 267.109 68.0205 265.85 68.7268 264.602ZM99.6508 362.727C118.868 321.011 120.204 280.725 68.9417 264.666C68.233 265.918 67.5105 267.18 66.8148 268.422C114.269 285.98 114.864 324.612 98.816 364.328C99.0978 363.795 99.3711 363.262 99.6508 362.727ZM95.5428 371.149C95.7594 370.727 95.988 370.305 96.1999 369.884C96.4161 369.393 96.6471 368.901 96.8586 368.411C96.559 368.951 96.2603 369.491 95.9579 370.032C95.8192 370.404 95.6842 370.775 95.5428 371.149ZM93.2971 375.448C93.7318 374.639 94.1478 373.829 94.5704 373.02C94.7848 372.474 94.9918 371.929 95.1959 371.384C94.783 372.103 94.3467 372.822 93.9254 373.541C93.7163 374.177 93.511 374.813 93.2971 375.448ZM91.1651 379.311C91.6726 378.402 92.1763 377.493 92.6707 376.582C92.908 375.894 93.1294 375.204 93.3535 374.513C92.8276 375.406 92.3074 376.3 91.7684 377.192C91.5682 377.898 91.3681 378.605 91.1651 379.311ZM88.9921 383.119C89.55 382.155 90.1162 381.19 90.6607 380.224C90.8865 379.457 91.102 378.689 91.3173 377.921C90.7353 378.876 90.1393 379.83 89.5441 380.784C89.3689 381.564 89.1758 382.34 88.9921 383.119ZM86.7526 386.94C87.377 385.897 87.9842 384.85 88.5935 383.804C88.7861 383.003 88.9786 382.202 89.1636 381.399C88.5095 382.444 87.8441 383.486 87.1758 384.528C87.0414 385.333 86.8974 386.136 86.7526 386.94ZM84.4479 390.715C85.1118 389.639 85.7718 388.561 86.4214 387.481C86.5741 386.654 86.7306 385.827 86.8718 384.997C86.1582 386.106 85.4466 387.217 84.7176 388.322C84.6328 389.121 84.5452 389.92 84.4479 390.715ZM82.0587 394.519C82.7638 393.409 83.4717 392.298 84.1632 391.181C84.2649 390.365 84.3618 389.547 84.4518 388.726C83.7047 389.854 82.9365 390.977 82.1759 392.1C82.1405 392.909 82.106 393.718 82.0587 394.519ZM79.5677 398.395C80.324 397.238 81.0683 396.072 81.8109 394.908C81.8615 394.093 81.9004 393.272 81.9393 392.451C81.1452 393.622 80.3442 394.788 79.5373 395.951C79.5511 396.769 79.563 397.585 79.5677 398.395ZM76.9907 402.286C77.7844 401.102 78.5727 399.911 79.3534 398.718C79.35 397.903 79.3366 397.08 79.3231 396.257C78.4875 397.459 77.6512 398.663 76.8036 399.857C76.8702 400.671 76.9315 401.479 76.9907 402.286ZM74.3247 406.198C75.151 404.996 75.98 403.793 76.7959 402.58C76.7371 401.769 76.6741 400.954 76.607 400.134C75.7355 401.358 74.8487 402.57 73.9668 403.784C74.0899 404.595 74.2072 405.396 74.3247 406.198ZM71.5687 410.16C72.4317 408.934 73.2902 407.701 74.1435 406.461C74.0255 405.654 73.9088 404.85 73.7852 404.033C72.8736 405.286 71.9548 406.53 71.0337 407.771C71.2145 408.573 71.3928 409.369 71.5687 410.16ZM68.7197 414.169C69.617 412.923 70.5089 411.661 71.3982 410.4C71.221 409.605 71.0425 408.808 70.8623 408.001C69.9147 409.275 68.9645 410.55 68.0098 411.808C68.2474 412.601 68.4836 413.39 68.7197 414.169ZM65.7697 418.21C66.7014 416.946 67.6323 415.673 68.5584 414.389C68.3221 413.609 68.0838 412.817 67.845 412.022C66.8613 413.316 65.8732 414.603 64.8841 415.879C65.1802 416.662 65.4744 417.445 65.7697 418.21ZM62.7299 422.284C63.6935 421.003 64.6585 419.718 65.6191 418.416C65.3218 417.65 65.0264 416.865 64.7302 416.08C63.7096 417.397 62.6846 418.696 61.6612 419.993C62.0159 420.766 62.3715 421.53 62.7299 422.284ZM59.5994 426.4C60.595 425.105 61.5897 423.8 62.5846 422.478C62.2251 421.723 61.8674 420.956 61.5125 420.181C60.4567 421.518 59.3996 422.841 58.3433 424.153C58.7566 424.917 59.1788 425.657 59.5994 426.4ZM35.5033 429.437C24.1529 409.043 21.3248 378.83 36.5051 334.094C37.032 332.123 37.5898 330.126 38.1845 328.098C38.6575 325.923 39.1773 323.704 39.7246 321.462C40.0673 319.362 40.4313 317.241 40.8344 315.084C41.028 313.131 41.2478 311.151 41.4862 309.152C41.5352 307.093 41.5991 305.015 41.6855 302.911C41.5673 301.069 41.4595 299.21 41.3606 297.337C41.0484 295.501 40.7394 293.649 40.4331 291.789C39.9138 290.049 39.39 288.302 38.8597 286.546C38.1222 284.933 37.3695 283.316 36.6053 281.697C35.5963 280.161 34.567 278.628 33.5111 277.096C32.2657 275.737 30.9874 274.385 29.6775 273.042C28.0672 271.766 26.4154 270.502 24.7148 269.255C22.8926 268.214 21.0165 267.193 19.093 266.191C16.6942 265.22 14.2185 264.281 11.6712 263.371C9.27888 262.725 6.80371 262.116 4.27766 261.53C0.96594 260.979 -2.46594 260.483 -5.986 260.026C-9.01851 259.792 -12.1442 259.603 -15.3437 259.447C-19.6628 259.414 -24.1594 259.467 -28.751 259.567C-32.3296 259.762 -35.9845 259.995 -39.76 260.289L-39.7627 260.289L-40.2826 260.32C-42.1687 260.512 -44.0211 260.686 -45.9727 260.91L-45.9736 260.91L-53.2678 261.691C-62.0985 262.993 -70.7141 264.269 -79.062 265.504C-92.3845 267.475 -105.015 269.344 -117.004 271.101L-117.026 270.883C-105.041 269.126 -92.4136 267.258 -79.093 265.287C-72.4886 264.31 -65.7173 263.308 -58.745 262.278L-68.446 263.32C-85.8791 265.192 -102.129 266.937 -117.263 268.517L-117.284 268.3C-102.153 266.72 -85.9036 264.975 -68.4686 263.103C-63.5081 262.57 -58.4518 262.027 -53.2987 261.475L-52.2155 261.315C-50.9589 261.13 -49.7837 260.987 -48.552 260.815C-53.8588 261.133 -59.06 261.446 -64.1566 261.754C-83.4515 262.916 -101.237 263.986 -117.625 264.894L-117.647 264.676C-101.257 263.768 -83.4696 262.697 -64.1701 261.535C-58.1603 261.173 -52.0062 260.802 -45.7038 260.425C-43.9066 260.175 -42.0959 259.918 -40.3482 259.693C-49.2052 259.728 -57.7655 259.77 -66.0346 259.812C-84.8751 259.906 -102.206 259.992 -118.118 259.966L-118.14 259.747C-102.224 259.772 -84.8849 259.687 -66.036 259.592C-57.2553 259.549 -48.148 259.503 -38.7039 259.467C-36.6078 259.198 -34.5585 258.955 -32.5173 258.714C-46.8088 257.809 -60.3153 257.002 -73.0792 256.239C-89.5238 255.257 -104.736 254.348 -118.776 253.399L-118.798 253.179C-104.75 254.128 -89.5262 255.037 -73.0676 256.021C-59.9282 256.806 -46.0032 257.638 -31.2833 258.573C-29.1657 258.324 -27.0436 258.073 -24.9888 257.857C-46.0373 254.785 -65.4791 252.172 -83.3578 249.767C-96.2609 248.033 -108.34 246.408 -119.637 244.798L-119.659 244.574C-108.35 246.185 -96.2522 247.813 -83.3293 249.55C-65.2252 251.984 -45.5182 254.634 -24.1376 257.759C-21.9269 257.529 -19.7649 257.324 -17.6153 257.125C-45.8554 250.072 -71.4198 244.517 -94.2888 239.547C-103.549 237.535 -112.366 235.619 -120.743 233.739L-120.766 233.51C-112.37 235.396 -103.529 237.316 -94.2441 239.334C-71.2086 244.339 -45.4397 249.939 -16.952 257.066C-14.7777 256.863 -12.5969 256.659 -10.4934 256.492C-44.9005 243.272 -76.0634 233.844 -103.38 225.579C-109.849 223.622 -116.101 221.73 -122.132 219.868L-122.155 219.632C-116.099 221.502 -109.817 223.403 -103.317 225.37C-75.8873 233.669 -44.5805 243.14 -9.99893 256.448C-7.78888 256.277 -5.63992 256.136 -3.49456 255.997C-41.6852 234.393 -77.7177 220.677 -109.058 208.748C-114.098 206.83 -119.018 204.957 -123.807 203.105L-123.831 202.861C-119.011 204.725 -114.057 206.612 -108.978 208.544C-77.5533 220.505 -41.4107 234.262 -3.09203 255.974C-0.951366 255.834 1.20606 255.685 3.27228 255.583C-35.3571 223.761 -75.7239 205.933 -110.997 190.357C-116.022 188.137 -120.939 185.964 -125.738 183.802L-125.763 183.551C-120.928 185.73 -115.973 187.919 -110.909 190.158C-75.5677 205.764 -35.1153 223.629 3.59242 255.564C5.75714 255.461 7.83847 255.398 9.93492 255.328L9.88939 255.291L9.87935 255.284L9.87187 255.275C-25.6645 211.891 -70.2929 190.474 -109.752 171.537C-115.93 168.572 -121.975 165.669 -127.845 162.75L-127.871 162.492C-121.964 165.43 -115.879 168.354 -109.658 171.34C-70.1816 190.284 -25.5335 211.712 10.033 255.127C10.1128 255.19 10.1909 255.254 10.269 255.318C12.3559 255.246 14.4829 255.155 16.4892 255.125C16.3572 254.968 16.2251 254.811 16.0894 254.654L16.08 254.644L16.0743 254.633C-13.1852 199.092 -62.2325 174.774 -106.169 152.992C-114.353 148.934 -122.36 144.963 -130.031 140.895L-130.057 140.634C-122.351 144.724 -114.301 148.715 -106.072 152.794C-62.1074 174.592 -13.0298 198.924 16.2632 254.521C16.4346 254.719 16.6007 254.918 16.7685 255.116C18.8766 255.088 20.8721 255.116 22.9074 255.124C22.703 254.755 22.5012 254.385 22.292 254.015L22.2864 254.005L22.2824 253.993C1.82998 185.777 -52.1699 159.141 -101.021 135.044C-111.81 129.723 -122.347 124.524 -132.219 119.029L-132.246 118.764C-122.341 124.284 -111.759 129.504 -100.925 134.848C-52.037 158.962 2.00502 185.62 22.4871 253.918C22.7144 254.321 22.9343 254.723 23.157 255.125C25.1466 255.131 27.1663 255.122 29.0743 255.169C28.8823 254.571 28.6915 253.976 28.4982 253.374L28.4955 253.366L28.4933 253.353C18.8665 172.107 -40.7324 143.65 -94.8997 117.787C-108.711 111.192 -122.168 104.766 -134.357 97.6769L-134.384 97.4082C-122.166 104.525 -108.664 110.972 -94.8059 117.59C-40.588 143.475 19.0638 171.959 28.7099 253.313C28.9119 253.937 29.1098 254.557 29.3086 255.177C31.2785 255.228 33.1667 255.318 35.063 255.407C34.9451 254.516 34.8265 253.628 34.7116 252.731L34.7107 252.722L34.7108 252.714C37.5192 158.162 -28.3798 128.31 -88.2138 101.205C-105.363 93.4369 -122.014 85.893 -136.412 77.1173L-136.439 76.844C-122.019 85.6511 -105.322 93.2146 -88.1239 101.006C-28.2294 128.138 37.7359 158.021 34.9283 252.711C35.0452 253.619 35.1656 254.515 35.2845 255.415C37.1649 255.502 39.032 255.596 40.8343 255.721C40.8634 254.514 40.8874 253.312 40.9263 252.091L40.9266 252.086L40.9278 252.079C57.4752 143.979 -15.4544 113.104 -81.257 85.2466C-102.014 76.4589 -122.063 67.9717 -138.379 57.4556L-138.407 57.1767C-122.08 67.7263 -101.982 76.2357 -81.1729 85.0451C-15.2974 112.933 57.7119 143.843 41.1435 252.104C41.1048 253.327 41.08 254.531 41.0511 255.739C42.8705 255.868 44.657 256.012 46.3992 256.178C46.6415 254.609 46.878 253.047 47.1423 251.456L47.1436 251.451L47.145 251.446C78.5165 129.564 -2.19881 98.0071 -74.2287 69.8451C-98.8576 60.2156 -122.471 50.9827 -140.258 38.6719L-140.286 38.3866C-122.504 50.735 -98.8375 59.9889 -74.1495 69.6413C-2.03537 97.8359 78.773 129.429 47.3575 251.495C47.0953 253.079 46.859 254.634 46.6178 256.195C48.3742 256.365 50.0748 256.561 51.7558 256.767C52.2756 254.799 52.7987 252.827 53.3602 250.821L53.3624 250.815C100.485 114.914 11.2051 82.9974 -67.2714 54.9432C-96.0743 44.6467 -123.422 34.8676 -142.06 20.6621L-142.09 20.3638C-123.476 34.6166 -96.0685 44.4167 -67.1971 54.7371C11.374 82.8257 100.761 114.781 53.5711 250.882C53.0131 252.878 52.4926 254.838 51.9755 256.795C53.645 256.998 55.3315 257.193 56.9212 257.435C57.7767 255.046 58.6546 252.639 59.5795 250.19L59.5819 250.187C109.148 133.324 60.4028 88.0545 -3.75854 60.7318C-22.0552 52.9404 -41.6058 46.6071 -60.4898 40.4897C-93.8753 29.6752 -125.176 19.5334 -143.807 3.20076L-143.838 2.88402C-125.263 19.2773 -93.8904 29.4407 -60.423 40.2825C-41.5342 46.4013 -21.9769 52.7367 -3.67344 60.5312C60.5938 87.8983 109.42 133.238 59.7847 250.269C58.8654 252.7 57.9943 255.091 57.1437 257.464C58.7699 257.718 60.2965 258.017 61.8507 258.305C63.113 255.433 64.4281 252.52 65.799 249.562L65.7998 249.56C122.515 134.243 86.1554 84.1416 27.7216 55.2918C2.68429 42.9296 -26.4082 34.4648 -53.9697 26.4457C-92.0571 15.3629 -127.227 5.12898 -144.788 -13.3719C-145.046 -13.6445 -145.295 -13.9217 -145.546 -14.1979L-145.583 -14.5608C-145.27 -14.2125 -144.955 -13.8654 -144.629 -13.5221C-127.108 4.93703 -91.9664 15.1627 -53.9088 26.2362C-26.3366 34.259 2.76542 42.7265 27.8184 55.0965C86.359 84 122.79 134.181 65.9966 249.658C64.634 252.597 63.3284 255.492 62.0726 258.346C63.6058 258.628 65.1507 258.905 66.6048 259.225C68.3258 255.859 70.1419 252.419 72.0178 248.935L72.0186 248.934C136.544 131.939 108.053 78.003 53.0426 47.5489C23.6334 31.2677 -13.3606 21.6899 -47.7787 12.7778C-83.6578 3.48767 -116.738 -5.07889 -135.547 -19.7672L-135.234 -19.7986C-116.433 -5.22511 -83.4689 3.31026 -47.7246 12.5654C-13.2941 21.48 23.7115 31.0621 53.1472 47.3574C108.263 77.8692 136.818 131.891 72.2096 249.039C70.3433 252.507 68.5366 255.928 66.8232 259.278C68.3083 259.61 69.7304 259.972 71.1416 260.337C73.3974 256.408 75.7631 252.397 78.2356 248.308C150.894 128.124 128.33 70.6807 75.5402 38.6474C42.8253 18.7958 -1.50158 8.69075 -41.9758 -0.536009C-70.3541 -7.00643 -96.8388 -13.0442 -116.116 -21.7113L-115.678 -21.7551C-96.4542 -13.1816 -70.1274 -7.17835 -41.9265 -0.749877C-1.43694 8.48094 42.908 18.5898 75.6536 38.4598C128.548 70.5564 151.171 128.089 78.4228 248.421C75.9623 252.49 73.6076 256.481 71.3621 260.392C127.604 275.086 123.272 318.246 99.8846 362.821C98.7854 365.203 97.6364 367.589 96.426 369.976C95.4707 372.14 94.4653 374.305 93.4261 376.467C92.4598 378.801 91.4533 381.131 90.3909 383.453C89.5505 385.62 88.6674 387.781 87.7481 389.932C86.9369 392.215 86.0921 394.488 85.2046 396.743C84.5169 398.903 83.7941 401.046 83.0416 403.172C82.429 405.393 81.7776 407.59 81.1036 409.765C80.6119 411.94 80.0957 414.092 79.5478 416.207C79.193 418.307 78.8104 420.372 78.4058 422.403C78.3113 423.336 78.212 424.26 78.1081 425.176L77.8861 425.199L77.9445 424.657L77.8297 425.202L77.5339 425.232C77.5389 424.631 77.5407 424.025 77.5433 423.419C77.3576 424.046 77.1694 424.668 76.98 425.287L76.7441 425.311C77.0152 424.42 77.2827 423.521 77.5458 422.617C77.5449 421.872 77.537 421.114 77.5292 420.358C77.1845 421.303 76.8332 422.238 76.4798 423.171C76.5557 423.893 76.6289 424.605 76.7009 425.316L76.4853 425.338C76.4276 424.771 76.3676 424.199 76.3075 423.626C76.0783 424.229 75.8479 424.828 75.6154 425.425L75.3703 425.449C75.6677 424.683 75.9629 423.912 76.2567 423.136C76.1733 422.358 76.0848 421.567 75.9952 420.774C75.5249 421.832 75.0501 422.882 74.5717 423.923L74.9067 425.495L74.6883 425.517L74.4184 424.252C74.2096 424.705 74.0007 425.156 73.7907 425.606L73.5364 425.632C73.8052 425.054 74.0739 424.474 74.3415 423.892C74.1751 423.113 74.0058 422.324 73.8351 421.529C73.2458 422.663 72.6551 423.791 72.0584 424.906L72.3292 425.753L72.1081 425.775L71.9155 425.171L71.5616 425.829L71.2971 425.856C71.4722 425.531 71.6471 425.204 71.822 424.878C71.5767 424.11 71.3303 423.332 71.0833 422.546C70.3822 423.734 69.68 424.921 68.973 426.088L68.6966 426.115L68.718 426.079C68.4006 425.324 68.0839 424.559 67.7666 423.787C67.1949 424.659 66.6222 425.522 66.0491 426.38L65.7607 426.409C66.3961 425.457 67.0312 424.502 67.6631 423.534C67.3516 422.775 67.0405 422.009 66.7291 421.232C65.8401 422.504 64.9472 423.758 64.0551 425.008C64.3045 425.51 64.5545 426.009 64.805 426.504L64.5765 426.526C64.355 426.09 64.1341 425.649 63.9139 425.207C63.5563 425.707 63.1994 426.204 62.8413 426.7L62.5436 426.73C62.963 426.149 63.382 425.565 63.8008 424.978C63.429 424.229 63.0578 423.478 62.6903 422.708C61.6994 424.022 60.7079 425.321 59.7163 426.611L59.935 426.993L59.6991 427.016L59.574 426.798L59.3821 427.048L59.0771 427.078L59.4551 426.586C59.0326 425.843 58.6103 425.1 58.1951 424.337C57.363 425.37 56.5314 426.398 55.7007 427.416L55.3874 427.448C56.2845 426.349 57.1832 425.238 58.0813 424.121C45.901 401.553 37.1358 369.582 40.0156 324.994C39.669 325.912 39.3354 326.819 39.0036 327.726C32.601 373.951 41.0897 405.772 54.4494 427.541L54.2024 427.566C40.9513 405.933 32.5057 374.413 38.6364 328.764C38.3411 329.579 38.0579 330.386 37.7737 331.193C28.536 376.421 35.4206 407.205 48.4872 428.138L48.2283 428.164C35.3193 407.439 28.4612 377.096 37.2366 332.708C37.0713 333.186 36.8827 333.682 36.7217 334.157C24.8943 378.414 29.9039 408.42 42.21 428.766L41.9326 428.794C30.0154 409.05 24.9435 380.254 35.4145 338.208C21.7794 380.695 24.7843 409.67 35.7963 429.408L35.5033 429.437Z" fill="#496AD0"/>
</g>
</g>
<defs>
<clipPath id="clip0_2931_55133">
<rect width="135" height="273" fill="white" transform="translate(0 0.796875)"/>
</clipPath>
<clipPath id="clip1_2931_55133">
<rect width="464.001" height="255.964" fill="white" transform="translate(-99.8091 442.973) rotate(-95.7132)"/>
</clipPath>
</defs>
</svg>
