<svg width="325" height="369" viewBox="0 0 325 369" fill="none" xmlns="http://www.w3.org/2000/svg">
<g clip-path="url(#clip0_2931_55136)">
<g clip-path="url(#clip1_2931_55136)">
<path opacity="0.5" d="M36.4799 317.726C36.1098 318.334 35.7364 318.936 35.3679 319.546C35.7141 318.773 36.0456 317.987 36.3962 317.218C36.8037 316.446 37.2004 315.667 37.6151 314.901C37.2355 315.844 36.8527 316.781 36.4799 317.726ZM280.55 311.359C281.597 312.333 282.664 313.376 283.716 314.371C284.745 315.624 285.795 316.958 286.839 318.266C285.69 317.039 284.53 315.771 283.392 314.586C282.446 313.516 281.49 312.41 280.55 311.359ZM276.972 308.059C277.327 308.379 277.672 308.675 278.027 309C278.394 309.404 278.772 309.848 279.142 310.265C278.418 309.525 277.693 308.786 276.972 308.059ZM31.5838 327.403C31.1233 328.102 30.6786 328.809 30.2255 329.511C30.6767 328.562 31.1453 327.624 31.6056 326.681C31.9328 326.101 32.2698 325.527 32.6009 324.947C32.2534 325.762 31.9254 326.587 31.5838 327.403ZM34.3291 323.343C33.7385 324.212 33.149 325.079 32.5647 325.951C33.1181 324.65 33.687 323.359 34.2539 322.067C34.7295 321.258 35.219 320.461 35.7089 319.663C35.2372 320.882 34.7917 322.119 34.3291 323.343ZM273.571 303.694C274.832 304.686 276.124 305.777 277.4 306.814C278.994 308.7 280.568 310.512 282.176 312.45C280.873 311.218 279.561 309.955 278.271 308.772C276.689 307.024 275.138 305.384 273.571 303.694ZM269.212 300.382C270.137 301.088 271.053 301.763 271.982 302.485C273.263 303.856 274.538 305.203 275.824 306.589C275.019 305.861 274.224 305.163 273.422 304.446C272.004 303.04 270.616 301.738 269.212 300.382ZM266.119 298.032C266.354 298.208 266.591 298.392 266.825 298.568L267.244 298.967C266.864 298.642 266.497 298.355 266.119 298.032ZM23.5641 341.024C23.4834 341.142 23.4057 341.258 23.3261 341.375C23.4877 341.099 23.6442 340.823 23.8078 340.548C23.7269 340.706 23.643 340.865 23.5641 341.024ZM26.365 337.046C25.917 337.672 25.4654 338.296 25.024 338.924C25.4586 338.072 25.8877 337.216 26.3287 336.368C26.7998 335.596 27.2583 334.821 27.7357 334.054C27.28 335.052 26.8124 336.043 26.365 337.046ZM29.2432 333.069C28.6349 333.888 28.0376 334.712 27.4404 335.537C27.9891 334.327 28.5411 333.116 29.1029 331.913C29.6837 330.996 30.2667 330.078 30.855 329.165C30.3176 330.467 29.7664 331.762 29.2432 333.069ZM32.1592 329.194C31.4611 330.113 30.7704 331.034 30.0798 331.956C30.6781 330.482 31.2887 329.014 31.9037 327.549C32.527 326.602 33.1682 325.669 33.8069 324.732C33.2549 326.218 32.6974 327.701 32.1592 329.194ZM267.485 297.193C268.795 298.032 270.12 298.919 271.442 299.797C273.017 301.602 274.622 303.526 276.223 305.426C274.882 304.35 273.545 303.282 272.219 302.247C270.634 300.54 269.047 298.822 267.485 297.193ZM262.858 294.326C264.036 295.057 265.209 295.766 266.396 296.518C267.79 297.961 269.215 299.515 270.633 301.043C269.436 300.12 268.248 299.225 267.059 298.327C265.652 296.98 264.244 295.614 262.858 294.326ZM258.169 291.422C259.258 292.07 260.373 292.794 261.472 293.468C262.523 294.436 263.598 295.483 264.668 296.514C263.596 295.718 262.524 294.93 261.46 294.159C260.364 293.252 259.256 292.301 258.169 291.422ZM254.961 289.588C255.445 289.868 255.922 290.126 256.41 290.411C256.959 290.849 257.518 291.316 258.075 291.779C257.036 291.043 255.992 290.298 254.961 289.588ZM18.1441 349.892C18.0295 350.042 17.9129 350.192 17.7994 350.341C18.0107 350.011 18.227 349.681 18.4383 349.351C18.3394 349.532 18.2427 349.712 18.1441 349.892ZM21.1111 346.026C20.5553 346.739 20.0161 347.456 19.4662 348.17C20.0071 347.192 20.5614 346.219 21.1129 345.244C21.5441 344.599 21.9858 343.956 22.4217 343.313C21.9775 344.215 21.5486 345.122 21.1111 346.026ZM24.0532 342.357C23.3906 343.175 22.728 343.992 22.078 344.813C22.6744 343.59 23.2752 342.371 23.8859 341.153C24.4779 340.294 25.0783 339.439 25.6837 338.585C25.1303 339.84 24.593 341.1 24.0532 342.357ZM27.044 338.727C26.3121 339.595 25.5858 340.467 24.8698 341.343C25.4727 339.953 26.0701 338.561 26.688 337.178C27.3874 336.201 28.0764 335.218 28.7868 334.246C28.195 335.734 27.6183 337.229 27.044 338.727ZM30.0701 335.15C29.2821 336.063 28.5146 336.986 27.7388 337.904C28.3434 336.341 28.9361 334.772 29.5604 333.218C30.2933 332.226 31.0392 331.242 31.7879 330.258C31.2057 331.884 30.6337 333.515 30.0701 335.15ZM261.35 290.954C262.652 291.586 263.958 292.227 265.273 292.89C267.066 294.88 268.843 296.811 270.656 298.87C269.303 297.98 267.958 297.116 266.616 296.264C264.844 294.435 263.103 292.719 261.35 290.954ZM256.699 288.763C257.945 289.344 259.192 289.925 260.448 290.529C262.126 292.207 263.79 293.832 265.483 295.562C264.213 294.761 262.949 293.983 261.687 293.209C260.008 291.676 258.362 290.25 256.699 288.763ZM252.036 286.618C253.223 287.144 254.422 287.704 255.618 288.255C257.103 289.571 258.583 290.872 260.076 292.214C258.917 291.512 257.76 290.816 256.609 290.141C255.073 288.925 253.562 287.8 252.036 286.618ZM247.852 284.84C248.838 285.259 249.818 285.663 250.81 286.097C252.044 287.042 253.28 287.998 254.515 288.95C253.672 288.465 252.835 287.992 251.996 287.52C250.602 286.586 249.237 285.742 247.852 284.84ZM244.337 283.346C244.904 283.578 245.482 283.838 246.052 284.075C246.452 284.332 246.855 284.599 247.255 284.853C246.272 284.322 245.313 283.86 244.337 283.346ZM12.4266 358.386C12.2515 358.594 12.0741 358.804 11.899 359.012C12.2317 358.539 12.5586 358.065 12.8952 357.594C12.7356 357.858 12.5851 358.122 12.4266 358.386ZM15.5163 354.791C14.9452 355.441 14.3741 356.09 13.8159 356.741C14.3646 355.836 14.9243 354.931 15.4847 354.027C16.0175 353.301 16.5412 352.575 17.0819 351.851C16.5547 352.83 16.0317 353.809 15.5163 354.791ZM18.6264 351.264C17.8898 352.084 17.1708 352.907 16.4467 353.731C17.0976 352.502 17.7759 351.277 18.4444 350.051C19.0879 349.204 19.7415 348.357 20.394 347.51C19.7979 348.761 19.2088 350.011 18.6264 351.264ZM21.7301 347.874C20.9409 348.73 20.1545 349.587 19.3771 350.444C20.0442 349.016 20.7356 347.594 21.4231 346.17C22.1201 345.282 22.8372 344.4 23.5526 343.516C22.9361 344.966 22.3293 346.419 21.7301 347.874ZM24.8534 344.563C24.0296 345.421 23.2049 346.278 22.4004 347.141C23.0443 345.59 23.7044 344.045 24.3683 342.5C25.1292 341.563 25.892 340.627 26.6674 339.693C26.0519 341.313 25.4508 342.937 24.8534 344.563ZM28.003 341.304C27.143 342.179 26.2955 343.057 25.4508 343.936C26.0777 342.244 26.7144 340.554 27.3634 338.869C28.1594 337.921 28.9539 336.971 29.7633 336.027C29.1619 337.782 28.5844 339.543 28.003 341.304ZM255.537 285.143C256.826 285.559 258.108 285.963 259.406 286.402C261.127 288.246 262.89 290.241 264.64 292.19C263.303 291.521 261.984 290.901 260.657 290.261C258.944 288.533 257.224 286.779 255.537 285.143ZM251.034 283.734C252.299 284.12 253.569 284.517 254.842 284.926C256.457 286.484 258.112 288.184 259.755 289.836C258.439 289.206 257.126 288.585 255.82 287.983C254.218 286.547 252.611 285.087 251.034 283.734ZM246.567 282.406C247.786 282.756 249.008 283.114 250.236 283.486C251.718 284.75 253.232 286.129 254.739 287.475C253.482 286.902 252.237 286.36 250.99 285.813C249.511 284.659 248.025 283.486 246.567 282.406ZM242.271 281.232C243.4 281.536 244.526 281.837 245.661 282.159C247.014 283.154 248.391 284.23 249.762 285.292C248.578 284.779 247.397 284.276 246.221 283.785C244.9 282.919 243.574 282.039 242.271 281.232ZM238.048 280.099C239.054 280.352 240.076 280.639 241.088 280.909C242.19 281.585 243.304 282.3 244.421 283.022C243.387 282.599 242.363 282.202 241.335 281.797C240.238 281.225 239.134 280.633 238.048 280.099ZM234.937 279.372C235.467 279.498 235.991 279.612 236.522 279.742C237.212 280.076 237.899 280.405 238.597 280.758C237.376 280.294 236.149 279.812 234.937 279.372ZM6.57121 366.194C6.2971 366.479 6.03265 366.761 5.7605 367.046C6.26333 366.412 6.77155 365.776 7.28174 365.14C7.04566 365.491 6.80337 365.843 6.57121 366.194ZM9.73802 362.965C9.11229 363.598 8.4854 364.232 7.86784 364.865C8.45901 363.988 9.03843 363.108 9.64286 362.23C10.2328 361.512 10.8317 360.795 11.4349 360.076C10.8651 361.039 10.2934 362.003 9.73802 362.965ZM12.9411 359.776C12.1897 360.512 11.4383 361.248 10.7044 361.982C11.3694 360.841 12.0327 359.698 12.7156 358.558C13.4351 357.709 14.1515 356.86 14.8862 356.01C14.2337 357.266 13.5753 358.521 12.9411 359.776ZM16.168 356.636C15.3401 357.43 14.5255 358.222 13.7148 359.016C14.4042 357.663 15.1009 356.309 15.8102 354.958C16.5897 354.065 17.3682 353.172 18.1603 352.282C17.4934 353.732 16.8161 355.184 16.168 356.636ZM19.424 353.55C18.5504 354.369 17.6897 355.189 16.8313 356.007C17.5168 354.479 18.2199 352.953 18.9269 351.428C19.7292 350.538 20.5483 349.649 21.3682 348.761C20.7145 350.357 20.0561 351.95 19.424 353.55ZM22.6815 350.56C21.7836 351.374 20.8856 352.188 20.0084 353.004C20.6693 351.343 21.356 349.685 22.0385 348.028C22.8722 347.13 23.7165 346.236 24.5686 345.343C23.9328 347.08 23.2961 348.817 22.6815 350.56ZM25.9589 347.618C25.0361 348.436 24.1172 349.254 23.2121 350.075C23.8466 348.287 24.5088 346.501 25.1657 344.717C26.0308 343.813 26.8932 342.908 27.7728 342.007C27.1599 343.875 26.5498 345.744 25.9589 347.618ZM249.594 279.565C250.852 279.756 252.096 279.914 253.362 280.12C255.22 282.038 257.06 283.887 258.94 285.886C257.626 285.444 256.335 285.055 255.031 284.637C253.2 282.878 251.406 281.254 249.594 279.565ZM245.233 278.935C246.482 279.103 247.742 279.293 249 279.479C250.767 281.117 252.52 282.707 254.305 284.41C253.006 283.996 251.708 283.584 250.419 283.194C248.673 281.716 246.963 280.356 245.233 278.935ZM240.933 278.396C242.148 278.542 243.359 278.678 244.582 278.841C246.237 280.194 247.885 281.523 249.553 282.925C248.302 282.551 247.065 282.211 245.824 281.86C244.18 280.661 242.564 279.549 240.933 278.396ZM236.676 277.917C237.858 278.042 239.048 278.176 240.238 278.317C241.78 279.402 243.319 280.476 244.872 281.597C243.658 281.257 242.445 280.924 241.24 280.604C239.709 279.682 238.196 278.812 236.676 277.917ZM232.485 277.498C233.605 277.6 234.728 277.709 235.854 277.824C237.233 278.629 238.612 279.437 239.998 280.266C238.876 279.974 237.763 279.706 236.648 279.431C235.255 278.771 233.872 278.141 232.485 277.498ZM228.573 277.186C229.553 277.261 230.533 277.335 231.519 277.421C232.69 277.958 233.864 278.505 235.04 279.055C234.092 278.828 233.145 278.607 232.199 278.391C230.986 277.973 229.783 277.589 228.573 277.186ZM225.23 276.918C225.873 276.96 226.53 277.026 227.177 277.074C227.708 277.247 228.244 277.432 228.776 277.605C227.583 277.351 226.415 277.154 225.23 276.918ZM3.75156 370.51C3.03845 371.129 2.34433 371.744 1.64285 372.36C2.3097 371.483 2.98312 370.603 3.66667 369.722C4.2768 369.074 4.90362 368.423 5.52423 367.772C4.92386 368.685 4.33984 369.597 3.75156 370.51ZM7.08407 367.658C6.26263 368.356 5.44626 369.053 4.64037 369.749C5.36747 368.628 6.09653 367.507 6.84424 366.383C7.57744 365.624 8.3301 364.863 9.08079 364.102C8.40301 365.288 7.7455 366.473 7.08407 367.658ZM10.4356 364.848C9.55877 365.575 8.67997 366.301 7.82488 367.024C8.54903 365.733 9.27352 364.44 10.0214 363.146C10.8326 362.326 11.6539 361.507 12.4845 360.685C11.7868 362.075 11.1116 363.462 10.4356 364.848ZM13.8035 362.078C12.8846 362.826 11.9752 363.572 11.0738 364.318C11.7867 362.864 12.4959 361.408 13.231 359.955C14.0925 359.106 14.9529 358.259 15.8316 357.411C15.1417 358.965 14.4714 360.522 13.8035 362.078ZM17.186 359.346C16.2362 360.103 15.3059 360.859 14.3744 361.616C15.0646 360.013 15.7505 358.412 16.4625 356.811C17.3474 355.962 18.2452 355.114 19.1461 354.265C18.4818 355.958 17.8284 357.651 17.186 359.346ZM20.5733 356.679C19.6125 357.43 18.6578 358.181 17.7145 358.931C18.3765 357.193 19.0399 355.453 19.7269 353.717C20.6227 352.881 21.5404 352.046 22.4581 351.212C21.8178 353.033 21.1885 354.856 20.5733 356.679ZM23.9694 354.061C22.995 354.803 22.0257 355.545 21.0728 356.286C21.7013 354.433 22.3355 352.576 22.9875 350.727C23.9075 349.891 24.8353 349.056 25.7729 348.223C25.162 350.166 24.5567 352.113 23.9694 354.061ZM243.932 274.303C245.155 274.263 246.365 274.204 247.594 274.176C249.363 275.932 251.177 277.859 252.976 279.721C251.697 279.516 250.441 279.36 249.169 279.169C247.418 277.532 245.655 275.842 243.932 274.303ZM239.76 274.446C240.974 274.394 242.201 274.359 243.425 274.319C245.119 275.827 246.854 277.48 248.574 279.083C247.293 278.893 246.01 278.698 244.738 278.528C243.075 277.153 241.399 275.736 239.76 274.446ZM235.645 274.663C236.836 274.598 238.017 274.52 239.214 274.466C240.82 275.723 242.459 277.095 244.088 278.434C242.842 278.271 241.613 278.146 240.373 277.999C238.793 276.873 237.202 275.715 235.645 274.663ZM231.533 274.905C232.707 274.829 233.887 274.763 235.065 274.696C236.587 275.717 238.134 276.829 239.676 277.92C238.44 277.775 237.203 277.63 235.975 277.503C234.491 276.624 232.999 275.724 231.533 274.905ZM227.482 275.195C228.614 275.109 229.742 275.021 230.88 274.944C232.292 275.727 233.725 276.573 235.154 277.413C233.969 277.294 232.796 277.2 231.618 277.096C230.235 276.449 228.848 275.791 227.482 275.195ZM223.535 275.523C224.602 275.431 225.671 275.341 226.743 275.257C228.037 275.816 229.345 276.416 230.654 277.019C229.52 276.924 228.385 276.83 227.257 276.749C226.012 276.328 224.764 275.901 223.535 275.523ZM219.752 275.858C220.694 275.767 221.643 275.687 222.59 275.602C223.675 275.932 224.766 276.278 225.862 276.637C224.861 276.569 223.869 276.519 222.874 276.462C221.83 276.255 220.782 276.038 219.752 275.858ZM216.801 276.175C217.354 276.116 217.904 276.054 218.458 275.997C219.156 276.114 219.85 276.224 220.554 276.354C219.303 276.291 218.044 276.218 216.801 276.175ZM7.94422 370.066C6.97143 370.735 5.9998 371.403 5.04829 372.066C5.80544 370.665 6.57501 369.263 7.35817 367.858C8.25367 367.099 9.1639 366.337 10.0804 365.574C9.35158 367.073 8.64732 368.57 7.94422 370.066ZM11.4577 367.668C10.4605 368.344 9.46988 369.017 8.49398 369.686C9.22188 368.14 9.96108 366.592 10.7166 365.043C11.6423 364.273 12.5738 363.505 13.5192 362.731C12.8162 364.379 12.135 366.023 11.4577 367.668ZM14.9792 365.293C13.9634 365.972 12.9631 366.648 11.9651 367.323C12.6612 365.639 13.3687 363.954 14.0914 362.268C15.0396 361.496 15.9858 360.724 16.9535 359.95C16.2798 361.732 15.6283 363.513 14.9792 365.293ZM18.5089 362.947C17.4809 363.625 16.4697 364.301 15.4596 364.976C16.1227 363.162 16.792 361.347 17.4824 359.533C18.4333 358.775 19.4036 358.015 20.376 357.255C19.7369 359.151 19.1229 361.049 18.5089 362.947ZM22.0411 360.638C21.0075 361.309 19.9782 361.978 18.9675 362.645C19.5936 360.718 20.2232 358.789 20.875 356.859C21.8389 356.107 22.8181 355.354 23.8023 354.602C23.1987 356.614 22.6213 358.627 22.0411 360.638ZM238.131 269.321C239.317 269.053 240.496 268.779 241.686 268.516C243.54 270.279 245.381 272.004 247.259 273.856C246.019 273.886 244.797 273.944 243.564 273.984C241.735 272.362 239.94 270.868 238.131 269.321ZM234.157 270.222C235.334 269.947 236.526 269.686 237.711 269.417C239.488 270.93 241.256 272.414 243.053 274.001C241.815 274.043 240.571 274.074 239.34 274.13C237.596 272.773 235.882 271.517 234.157 270.222ZM230.224 271.167C231.391 270.887 232.547 270.597 233.72 270.323C235.408 271.584 237.089 272.825 238.793 274.148C237.578 274.204 236.382 274.292 235.173 274.359C233.509 273.251 231.871 272.224 230.224 271.167ZM226.282 272.119C227.437 271.834 228.603 271.558 229.764 271.279C231.37 272.305 232.972 273.318 234.595 274.394C233.386 274.464 232.173 274.528 230.97 274.608C229.398 273.744 227.844 272.943 226.282 272.119ZM222.385 273.1C223.518 272.813 224.646 272.521 225.784 272.24C227.291 273.031 228.797 273.815 230.318 274.646C229.143 274.727 227.979 274.828 226.812 274.919C225.327 274.289 223.858 273.701 222.385 273.1ZM218.518 274.091C219.621 273.804 220.728 273.522 221.838 273.239C223.246 273.81 224.654 274.38 226.072 274.98C224.924 275.071 223.776 275.164 222.635 275.266C221.257 274.859 219.888 274.479 218.518 274.091ZM214.725 275.086C215.772 274.806 216.82 274.529 217.873 274.256C219.141 274.612 220.411 274.97 221.688 275.345C220.612 275.444 219.545 275.556 218.475 275.664C217.223 275.464 215.974 275.275 214.725 275.086ZM211.145 276.056C212.072 275.803 212.998 275.55 213.93 275.301C215.011 275.463 216.096 275.63 217.181 275.8C216.238 275.897 215.298 275.998 214.36 276.102C213.285 276.081 212.217 276.072 211.145 276.056ZM208.239 276.843C208.817 276.684 209.405 276.53 209.985 276.37C210.539 276.376 211.097 276.389 211.651 276.394C210.504 276.532 209.378 276.696 208.239 276.843ZM9.13677 373.4C8.07128 373.987 7.0081 374.572 5.96457 375.148C6.69992 373.529 7.45231 371.905 8.21516 370.279C9.20944 369.596 10.2126 368.909 11.2281 368.221C10.518 369.951 9.82058 371.677 9.13677 373.4ZM12.8017 371.387C11.7234 371.977 10.6571 372.562 9.59934 373.145C10.2964 371.392 11.0121 369.636 11.7363 367.877C12.7462 367.192 13.7579 366.507 14.7879 365.817C14.1128 367.677 13.4504 369.533 12.8017 371.387ZM16.4695 369.379C15.3827 369.972 14.3133 370.558 13.245 371.144C13.9052 369.265 14.5813 367.382 15.2675 365.498C16.2856 364.818 17.3092 364.136 18.344 363.452C17.706 365.43 17.0815 367.406 16.4695 369.379ZM20.1376 367.382C19.0469 367.975 17.9681 368.562 16.896 369.147C17.5171 367.149 18.1541 365.148 18.8032 363.146C19.8208 362.475 20.8582 361.8 21.8987 361.124C21.2991 363.213 20.7131 365.299 20.1376 367.382ZM232.546 264.583C233.684 264.091 234.818 263.6 235.959 263.108C237.751 264.74 239.579 266.506 241.399 268.242C240.2 268.508 239.012 268.783 237.818 269.053C236.055 267.54 234.283 266.001 232.546 264.583ZM228.774 266.214C229.903 265.724 231.044 265.232 232.179 264.741C233.899 266.14 235.652 267.657 237.399 269.148C236.203 269.419 235.001 269.683 233.812 269.961C232.127 268.693 230.434 267.402 228.774 266.214ZM225.015 267.855C226.142 267.363 227.264 266.871 228.396 266.38C230.039 267.549 231.711 268.819 233.377 270.067C232.19 270.346 231.02 270.637 229.839 270.922C228.225 269.88 226.605 268.823 225.015 267.855ZM221.258 269.493C222.373 269.005 223.5 268.515 224.621 268.026C226.191 268.978 227.788 270.01 229.38 271.031C228.2 271.315 227.015 271.596 225.842 271.886C224.309 271.073 222.771 270.246 221.258 269.493ZM217.523 271.135C218.63 270.648 219.729 270.162 220.84 269.675C222.328 270.411 223.837 271.212 225.343 272.004C224.181 272.293 223.03 272.594 221.873 272.888C220.418 272.292 218.96 271.682 217.523 271.135ZM213.806 272.772C214.891 272.294 215.982 271.813 217.07 271.335C218.477 271.867 219.901 272.451 221.324 273.03C220.176 273.322 219.027 273.614 217.885 273.91C216.522 273.52 215.155 273.122 213.806 272.772ZM210.131 274.399C211.185 273.931 212.238 273.465 213.296 272.997C214.602 273.333 215.922 273.705 217.242 274.075C216.128 274.367 215.024 274.665 213.917 274.961C212.651 274.765 211.383 274.563 210.131 274.399ZM206.539 275.996C207.534 275.553 208.53 275.11 209.53 274.667C210.72 274.82 211.92 274.997 213.122 275.177C212.061 275.463 211.001 275.748 209.944 276.038C208.805 276.018 207.664 275.994 206.539 275.996ZM203.123 277.516C203.998 277.125 204.881 276.734 205.76 276.342C206.762 276.336 207.771 276.342 208.784 276.353C207.839 276.614 206.9 276.879 205.958 277.144C205.011 277.265 204.06 277.382 203.123 277.516ZM200.439 278.719L201.993 278.023C202.593 277.936 203.19 277.844 203.793 277.762C202.674 278.08 201.551 278.396 200.439 278.719ZM10.6577 377.625C9.52029 378.12 8.39096 378.609 7.27508 379.09C7.96856 377.275 8.68563 375.453 9.40811 373.628C10.4759 373.04 11.551 372.45 12.6385 371.853C11.9687 373.781 11.3016 375.706 10.6577 377.625ZM14.4645 375.963C13.323 376.464 12.1942 376.956 11.073 377.445C11.7254 375.506 12.4017 373.558 13.083 371.609C14.1601 371.019 15.2341 370.43 16.3298 369.833C15.6979 371.88 15.0694 373.926 14.4645 375.963ZM18.2676 374.289C17.122 374.796 15.9967 375.291 14.8695 375.785C15.4805 373.73 16.1174 371.665 16.7582 369.6C17.8338 369.013 18.9214 368.421 20.0167 367.826C19.4236 369.982 18.834 372.141 18.2676 374.289ZM226.909 260.154C227.997 259.444 229.09 258.73 230.184 258.015C232.009 259.602 233.833 261.186 235.686 262.865C234.538 263.36 233.395 263.855 232.25 264.35C230.452 262.892 228.683 261.532 226.909 260.154ZM223.331 262.483C224.416 261.781 225.507 261.068 226.597 260.357C228.351 261.714 230.105 263.07 231.881 264.508C230.737 265.002 229.588 265.498 228.451 265.993C226.729 264.771 225.032 263.636 223.331 262.483ZM219.747 264.794C220.834 264.092 221.919 263.395 223.011 262.689C224.692 263.823 226.372 264.955 228.073 266.158C226.93 266.655 225.798 267.151 224.659 267.647C223.007 266.653 221.38 265.732 219.747 264.794ZM216.177 267.096C217.253 266.407 218.339 265.701 219.419 265.005C221.028 265.926 222.637 266.841 224.264 267.819C223.13 268.316 221.989 268.811 220.86 269.305C219.287 268.534 217.735 267.822 216.177 267.096ZM212.601 269.374C213.68 268.686 214.753 268.008 215.836 267.315C217.367 268.026 218.896 268.731 220.443 269.488C219.313 269.983 218.196 270.478 217.071 270.973C215.57 270.412 214.087 269.899 212.601 269.374ZM209.046 271.638C210.105 270.967 211.173 270.284 212.236 269.606C213.692 270.117 215.146 270.624 216.616 271.172C215.5 271.664 214.382 272.154 213.272 272.645C211.855 272.289 210.453 271.969 209.046 271.638ZM205.504 273.874C206.552 273.214 207.598 272.557 208.65 271.89C210.018 272.209 211.384 272.525 212.762 272.869C211.663 273.356 210.573 273.839 209.481 274.324C208.148 274.161 206.828 274.021 205.504 273.874ZM202.001 276.076C203.015 275.44 204.032 274.8 205.05 274.159C206.323 274.297 207.597 274.436 208.878 274.593C207.813 275.065 206.748 275.538 205.687 276.01C204.455 276.024 203.23 276.053 202.001 276.076ZM198.579 278.219C199.536 277.621 200.497 277.019 201.457 276.418C202.605 276.394 203.756 276.371 204.909 276.357C203.901 276.806 202.899 277.255 201.896 277.703C200.788 277.872 199.685 278.047 198.579 278.219ZM195.333 280.234C196.174 279.711 197.015 279.192 197.858 278.666C198.822 278.515 199.786 278.366 200.752 278.216C199.871 278.61 198.992 279.005 198.114 279.399C197.184 279.675 196.26 279.957 195.333 280.234ZM192.881 281.756C193.337 281.475 193.797 281.187 194.255 280.903C194.763 280.75 195.275 280.598 195.783 280.445C194.81 280.882 193.848 281.318 192.881 281.756ZM12.5071 382.692C11.3139 383.096 10.1267 383.493 8.95372 383.879C9.59676 381.883 10.2601 379.875 10.9348 377.866C12.0633 377.376 13.1976 376.881 14.3445 376.378C13.7201 378.488 13.1019 380.597 12.5071 382.692ZM16.4491 381.341C15.2557 381.756 14.0735 382.161 12.8984 382.558C13.4998 380.448 14.1175 378.324 14.7486 376.199C15.8812 375.703 17.0119 375.206 18.1629 374.696C17.5789 376.917 17.0045 379.134 16.4491 381.341ZM221.398 255.946C222.434 255.03 223.474 254.096 224.513 253.171C226.3 254.648 228.111 256.212 229.926 257.788C228.828 258.506 227.73 259.224 226.635 259.938C224.879 258.576 223.126 257.219 221.398 255.946ZM218.006 258.935C219.043 258.028 220.083 257.11 221.122 256.192C222.839 257.452 224.581 258.794 226.323 260.142C225.225 260.856 224.127 261.572 223.036 262.28C221.35 261.139 219.666 259.999 218.006 258.935ZM214.604 261.89C215.642 260.99 216.682 260.09 217.723 259.181C219.371 260.232 221.041 261.359 222.714 262.488C221.614 263.2 220.52 263.903 219.424 264.609C217.812 263.68 216.196 262.751 214.604 261.89ZM211.221 264.822C212.249 263.942 213.286 263.03 214.319 262.138C215.899 262.988 217.499 263.903 219.099 264.818C218.008 265.521 216.911 266.233 215.825 266.929C214.284 266.209 212.741 265.484 211.221 264.822ZM207.809 267.71C208.847 266.831 209.881 265.964 210.921 265.075C212.428 265.73 213.955 266.439 215.481 267.148C214.385 267.849 213.298 268.537 212.206 269.233C210.735 268.712 209.262 268.183 207.809 267.71ZM204.429 270.572C205.449 269.719 206.475 268.84 207.498 267.974C208.935 268.44 210.389 268.953 211.844 269.465C210.762 270.154 209.676 270.848 208.599 271.531C207.204 271.2 205.807 270.862 204.429 270.572ZM201.034 273.389C202.054 272.544 203.073 271.708 204.096 270.852C205.454 271.137 206.828 271.46 208.202 271.782C207.123 272.465 206.053 273.137 204.977 273.814C203.66 273.665 202.338 273.508 201.034 273.389ZM197.669 276.164C198.663 275.349 199.662 274.523 200.66 273.699C201.938 273.813 203.231 273.958 204.525 274.1C203.469 274.764 202.413 275.43 201.362 276.089C200.129 276.108 198.89 276.121 197.669 276.164ZM194.34 278.879C195.304 278.098 196.271 277.309 197.239 276.518C198.423 276.475 199.62 276.452 200.818 276.43C199.79 277.072 198.765 277.711 197.742 278.348C196.605 278.522 195.465 278.691 194.34 278.879ZM191.056 281.517C191.971 280.785 192.885 280.053 193.801 279.312C194.868 279.132 195.945 278.963 197.022 278.795C196.053 279.398 195.085 279.998 194.119 280.597C193.096 280.902 192.07 281.206 191.056 281.517ZM188.024 283.952C188.796 283.339 189.577 282.701 190.353 282.082C191.244 281.808 192.142 281.537 193.04 281.267C192.199 281.786 191.358 282.307 190.522 282.823C189.689 283.2 188.852 283.576 188.024 283.952ZM185.666 285.799C186.085 285.47 186.499 285.149 186.918 284.818L188.251 284.213C187.39 284.743 186.526 285.273 185.666 285.799ZM215.896 252.035C216.882 250.919 217.873 249.766 218.86 248.633C220.642 250.027 222.44 251.47 224.251 252.962C223.208 253.892 222.162 254.831 221.122 255.75C219.365 254.463 217.627 253.238 215.896 252.035ZM212.676 255.655C213.671 254.546 214.665 253.432 215.66 252.307C217.377 253.498 219.105 254.721 220.847 255.995C219.801 256.918 218.755 257.842 217.712 258.753C216.019 257.677 214.345 256.661 212.676 255.655ZM209.45 259.233C210.443 258.139 211.437 257.034 212.433 255.925C214.088 256.918 215.751 257.935 217.429 258.999C216.381 259.915 215.334 260.823 214.289 261.728C212.663 260.857 211.056 260.043 209.45 259.233ZM206.237 262.769C207.225 261.698 208.217 260.593 209.207 259.503C210.798 260.303 212.392 261.115 214.002 261.975C212.96 262.875 211.914 263.792 210.876 264.681C209.319 264.011 207.778 263.391 206.237 262.769ZM202.99 266.247C203.988 265.18 204.984 264.125 205.983 263.042C207.509 263.655 209.036 264.272 210.578 264.934C209.528 265.832 208.482 266.709 207.434 267.596C205.942 267.119 204.467 266.686 202.99 266.247ZM199.779 269.685C200.76 268.652 201.745 267.576 202.728 266.527C204.187 266.958 205.646 267.39 207.12 267.859C206.084 268.736 205.043 269.627 204.011 270.491C202.592 270.202 201.188 269.947 199.779 269.685ZM196.528 273.062C197.521 272.031 198.512 271.024 199.507 269.977C200.893 270.235 202.28 270.487 203.679 270.772C202.635 271.645 201.597 272.492 200.556 273.354C199.206 273.241 197.869 273.156 196.528 273.062ZM193.314 276.383C194.283 275.394 195.255 274.38 196.225 273.374C197.542 273.464 198.856 273.551 200.183 273.663C199.16 274.508 198.136 275.357 197.117 276.192C195.843 276.245 194.58 276.319 193.314 276.383ZM190.107 279.638C191.063 278.677 192.018 277.711 192.976 276.733C194.212 276.667 195.445 276.598 196.688 276.545C195.678 277.371 194.67 278.185 193.662 278.999C192.472 279.208 191.291 279.427 190.107 279.638ZM186.921 282.815C187.845 281.898 188.768 280.979 189.694 280.049C190.835 279.842 191.976 279.634 193.122 279.435C192.145 280.223 191.169 281.006 190.196 281.784C189.102 282.126 188.014 282.472 186.921 282.815ZM183.87 285.845C184.715 285.02 185.566 284.159 186.413 283.322C187.437 282.998 188.46 282.676 189.487 282.356C188.574 283.083 187.662 283.813 186.752 284.532C185.789 284.969 184.832 285.406 183.87 285.845ZM180.904 288.696C181.653 287.976 182.399 287.269 183.148 286.539L185.632 285.405C184.824 286.041 184.016 286.671 183.209 287.3C182.439 287.771 181.674 288.229 180.904 288.696ZM178.771 290.748C179.12 290.415 179.47 290.075 179.819 289.74L181.029 289.009C180.275 289.592 179.522 290.17 178.771 290.748ZM210.464 248.364C211.395 247.061 212.327 245.706 213.26 244.378C215.028 245.682 216.807 247.023 218.603 248.425C217.612 249.563 216.617 250.722 215.628 251.843C213.893 250.64 212.172 249.48 210.464 248.364ZM207.412 252.576C208.359 251.272 209.305 249.991 210.252 248.666C211.952 249.774 213.663 250.923 215.387 252.115C214.386 253.246 213.387 254.365 212.388 255.479C210.719 254.477 209.059 253.503 207.412 252.576ZM204.372 256.738C205.313 255.463 206.255 254.166 207.197 252.871C208.835 253.79 210.485 254.754 212.146 255.748C211.145 256.863 210.145 257.976 209.146 259.075C207.545 258.269 205.952 257.48 204.372 256.738ZM201.327 260.841C202.269 259.587 203.212 258.309 204.157 257.033C205.728 257.767 207.312 258.548 208.903 259.346C207.905 260.444 206.906 261.555 205.909 262.635C204.374 262.016 202.842 261.404 201.327 260.841ZM198.252 264.876C199.202 263.634 200.152 262.399 201.103 261.136C202.608 261.693 204.129 262.294 205.655 262.907C204.647 263.998 203.643 265.064 202.637 266.14C201.17 265.702 199.701 265.265 198.252 264.876ZM195.217 268.857C196.15 267.657 197.089 266.397 198.024 265.175C199.463 265.561 200.92 265.987 202.376 266.419C201.383 267.479 200.386 268.569 199.396 269.611C197.997 269.349 196.598 269.081 195.217 268.857ZM192.114 272.765C193.068 271.56 194.022 270.392 194.977 269.166C196.348 269.387 197.735 269.646 199.123 269.905C198.113 270.966 197.108 271.985 196.098 273.031C194.766 272.934 193.43 272.831 192.114 272.765ZM189.056 276.609C189.987 275.455 190.92 274.267 191.853 273.093C193.157 273.156 194.476 273.252 195.795 273.345C194.806 274.367 193.817 275.402 192.83 276.41C191.57 276.47 190.304 276.524 189.056 276.609ZM185.98 280.379C186.91 279.247 187.841 278.118 188.772 276.966C190.003 276.881 191.25 276.822 192.492 276.758C191.505 277.764 190.521 278.752 189.535 279.742C188.347 279.952 187.155 280.154 185.98 280.379ZM182.906 284.079C183.817 282.989 184.73 281.894 185.642 280.786C186.794 280.564 187.96 280.36 189.123 280.152C188.16 281.118 187.197 282.079 186.236 283.031C185.124 283.378 184.009 283.723 182.906 284.079ZM179.914 287.651C180.779 286.637 181.646 285.583 182.512 284.551C183.576 284.208 184.655 283.874 185.728 283.538C184.804 284.449 183.882 285.364 182.962 286.261C181.944 286.725 180.924 287.189 179.914 287.651ZM176.899 291.121C177.73 290.165 178.558 289.227 179.39 288.255C180.335 287.823 181.287 287.388 182.24 286.954C181.364 287.804 180.491 288.638 179.618 289.475C178.71 290.026 177.802 290.577 176.899 291.121ZM174.194 294.234C174.86 293.481 175.526 292.698 176.192 291.936C176.968 291.469 177.75 290.993 178.533 290.519C177.848 291.172 177.159 291.852 176.476 292.496C175.714 293.076 174.952 293.66 174.194 294.234ZM172.343 296.324C172.604 296.03 172.866 295.754 173.127 295.459C173.403 295.252 173.68 295.037 173.956 294.828C173.419 295.33 172.881 295.828 172.343 296.324ZM205.082 244.947C205.962 243.46 206.842 241.904 207.724 240.378C209.459 241.579 211.225 242.882 212.99 244.184C212.056 245.519 211.119 246.88 210.185 248.189C208.473 247.071 206.768 245.976 205.082 244.947ZM202.185 249.73C203.088 248.234 203.991 246.784 204.894 245.263C206.571 246.285 208.271 247.381 209.973 248.488C209.021 249.818 208.071 251.106 207.12 252.416C205.463 251.486 203.816 250.585 202.185 249.73ZM199.315 254.465C200.209 253.012 201.103 251.522 201.996 250.043C203.619 250.89 205.258 251.79 206.904 252.712C205.957 254.014 205.01 255.319 204.064 256.599C202.47 255.856 200.888 255.146 199.315 254.465ZM196.421 259.118C197.323 257.681 198.225 256.238 199.127 254.773C200.69 255.448 202.263 256.158 203.847 256.894C202.897 258.178 201.946 259.463 200.997 260.725C199.462 260.161 197.939 259.632 196.421 259.118ZM193.51 263.695C194.416 262.278 195.322 260.866 196.228 259.423C197.736 259.932 199.249 260.46 200.775 261.02C199.817 262.293 198.859 263.537 197.902 264.788C196.427 264.399 194.967 264.045 193.51 263.695ZM190.63 268.202C191.525 266.833 192.418 265.399 193.312 264.003C194.76 264.349 196.209 264.702 197.673 265.088C196.73 266.321 195.784 267.593 194.841 268.803C193.429 268.583 192.031 268.395 190.63 268.202ZM187.676 272.623C188.591 271.25 189.505 269.916 190.421 268.517C191.809 268.705 193.196 268.893 194.596 269.112C193.63 270.351 192.666 271.535 191.701 272.752C190.351 272.692 189.015 272.662 187.676 272.623ZM184.773 276.964C185.668 275.651 186.562 274.291 187.457 272.952C188.782 272.988 190.105 273.021 191.44 273.079C190.495 274.27 189.548 275.477 188.603 276.647C187.32 276.74 186.05 276.856 184.773 276.964ZM181.833 281.222C182.734 279.925 183.635 278.64 184.537 277.317C185.796 277.209 187.052 277.097 188.319 277.002C187.365 278.181 186.414 279.328 185.462 280.485C184.246 280.723 183.044 280.977 181.833 281.222ZM178.904 285.39C179.788 284.144 180.672 282.887 181.556 281.617C182.745 281.376 183.929 281.128 185.124 280.892C184.189 282.026 183.253 283.154 182.318 284.267C181.174 284.638 180.044 285.015 178.904 285.39ZM176.03 289.436C176.883 288.26 177.733 287.041 178.586 285.844C179.697 285.478 180.805 285.11 181.92 284.747C181.008 285.831 180.096 286.92 179.186 287.984C178.131 288.468 177.084 288.952 176.03 289.436ZM173.096 293.402C173.937 292.264 174.778 291.148 175.621 289.99C176.633 289.524 177.643 289.059 178.659 288.592C177.764 289.636 176.87 290.655 175.975 291.681C175.011 292.26 174.056 292.827 173.096 293.402ZM170.34 297.127C171.088 296.136 171.837 295.099 172.586 294.091C173.483 293.555 174.378 293.022 175.276 292.483C174.483 293.388 173.688 294.33 172.898 295.22C172.043 295.865 171.193 296.492 170.34 297.127ZM167.67 300.606C168.336 299.742 169.001 298.916 169.668 298.036C170.354 297.525 171.039 297.022 171.725 296.511C170.985 297.338 170.247 298.136 169.507 298.951C168.892 299.515 168.283 300.054 167.67 300.606ZM165.674 303.168C165.962 302.799 166.249 302.431 166.537 302.061C166.79 301.834 167.043 301.61 167.296 301.383C166.755 301.971 166.213 302.589 165.674 303.168ZM199.708 241.81C200.54 240.147 201.37 238.435 202.2 236.729C203.944 237.854 205.683 238.963 207.453 240.18C206.569 241.712 205.687 243.275 204.803 244.767C203.088 243.728 201.398 242.768 199.708 241.81ZM196.988 247.128C197.838 245.462 198.688 243.84 199.538 242.146C201.221 243.098 202.904 244.051 204.613 245.085C203.706 246.612 202.799 248.07 201.894 249.572C200.244 248.713 198.614 247.915 196.988 247.128ZM194.299 252.383C195.14 250.77 195.979 249.104 196.819 247.457C198.438 248.239 200.062 249.031 201.705 249.882C200.807 251.369 199.909 252.867 199.011 254.327C197.427 253.645 195.859 253.003 194.299 252.383ZM191.561 257.542C192.419 255.934 193.276 254.348 194.131 252.71C195.685 253.326 197.247 253.96 198.821 254.637C197.914 256.109 197.006 257.56 196.098 259.006C194.578 258.492 193.065 258.002 191.561 257.542ZM188.819 262.617C189.677 261.045 190.533 259.464 191.388 257.862C192.885 258.319 194.39 258.8 195.905 259.31C194.993 260.759 194.08 262.184 193.17 263.608C191.713 263.261 190.259 262.921 188.819 262.617ZM186.097 267.612C186.948 266.085 187.797 264.498 188.646 262.94C190.078 263.24 191.523 263.572 192.973 263.918C192.07 265.326 191.168 266.77 190.265 268.149C188.87 267.959 187.475 267.767 186.097 267.612ZM183.3 272.513C184.17 270.985 185.043 269.496 185.912 267.937C187.283 268.09 188.67 268.274 190.056 268.463C189.133 269.875 188.209 271.225 187.285 272.609C185.953 272.569 184.618 272.524 183.3 272.513ZM180.554 277.325C181.406 275.863 182.257 274.343 183.108 272.85C184.418 272.86 185.742 272.9 187.066 272.937C186.161 274.291 185.256 275.67 184.351 276.998C183.083 277.104 181.81 277.199 180.554 277.325ZM177.748 282.054C178.615 280.6 179.483 279.17 180.349 277.683C181.595 277.558 182.856 277.458 184.115 277.352C183.196 278.699 182.278 279.998 181.36 281.318C180.154 281.562 178.942 281.798 177.748 282.054ZM174.95 286.692C175.804 285.29 176.658 283.876 177.512 282.444C178.693 282.189 179.89 281.954 181.083 281.713C180.181 283.008 179.279 284.294 178.377 285.563C177.233 285.939 176.084 286.31 174.95 286.692ZM172.19 291.204C173.022 289.869 173.855 288.489 174.688 287.126C175.804 286.752 176.934 286.386 178.059 286.017C177.173 287.26 176.287 288.506 175.402 289.725C174.33 290.219 173.255 290.712 172.19 291.204ZM169.358 295.636C170.191 294.331 171.026 293.053 171.859 291.721C172.897 291.242 173.947 290.759 174.993 290.279C174.114 291.487 173.234 292.661 172.355 293.845C171.355 294.444 170.354 295.044 169.358 295.636ZM166.664 299.852C167.43 298.681 168.195 297.452 168.961 296.257C169.919 295.688 170.883 295.11 171.846 294.534C171.04 295.616 170.233 296.742 169.426 297.804C168.504 298.491 167.583 299.177 166.664 299.852ZM163.94 303.935C164.683 302.825 165.425 301.764 166.165 300.633C167 300.02 167.841 299.393 168.681 298.768C167.882 299.817 167.084 300.814 166.285 301.843C165.503 302.541 164.721 303.243 163.94 303.935ZM161.463 307.592C162.037 306.753 162.61 305.904 163.183 305.052C163.838 304.475 164.496 303.882 165.153 303.294C164.552 304.063 163.947 304.855 163.346 305.614C162.718 306.269 162.09 306.935 161.463 307.592ZM159.984 309.776C160.102 309.605 160.22 309.424 160.339 309.252C160.523 309.06 160.709 308.862 160.894 308.668C160.59 309.045 160.287 309.404 159.984 309.776ZM194.414 238.857C195.203 237.013 195.992 235.148 196.779 233.258C198.466 234.267 200.201 235.436 201.919 236.55C201.085 238.262 200.252 239.979 199.419 241.648C197.743 240.695 196.061 239.718 194.414 238.857ZM191.854 244.708C192.657 242.872 193.461 241.07 194.262 239.205C195.902 240.061 197.579 241.038 199.248 241.984C198.395 243.684 197.542 245.314 196.688 246.986C195.069 246.203 193.449 245.414 191.854 244.708ZM189.328 250.484C190.122 248.712 190.913 246.862 191.706 245.049C193.292 245.75 194.907 246.539 196.519 247.317C195.675 248.97 194.831 250.646 193.987 252.265C192.426 251.646 190.868 251.038 189.328 250.484ZM186.73 256.141C187.548 254.361 188.367 252.634 189.182 250.818C190.715 251.368 192.267 251.976 193.821 252.59C192.96 254.238 192.098 255.831 191.236 257.447C189.726 256.988 188.221 256.549 186.73 256.141ZM184.144 261.71C184.955 259.982 185.766 258.231 186.577 256.468C188.061 256.871 189.558 257.311 191.061 257.768C190.2 259.379 189.34 260.97 188.478 262.552C187.025 262.249 185.582 261.973 184.144 261.71ZM181.56 267.183C182.372 265.495 183.181 263.761 183.992 262.037C185.421 262.296 186.859 262.573 188.304 262.873C187.447 264.444 186.591 266.038 185.732 267.578C184.334 267.426 182.946 267.303 181.56 267.183ZM178.914 272.552C179.742 270.871 180.573 269.226 181.399 267.512C182.777 267.629 184.157 267.754 185.549 267.903C184.672 269.474 183.793 270.978 182.917 272.516C181.573 272.512 180.245 272.534 178.914 272.552ZM176.318 277.817C177.13 276.211 177.937 274.53 178.748 272.889C180.07 272.872 181.392 272.85 182.723 272.854C181.864 274.359 181.005 275.899 180.145 277.372C178.862 277.509 177.593 277.667 176.318 277.817ZM173.648 282.984C174.48 281.378 175.313 279.814 176.144 278.172C177.408 278.023 178.669 277.867 179.941 277.731C179.06 279.238 178.18 280.679 177.298 282.154C176.076 282.423 174.866 282.708 173.648 282.984ZM170.998 288.041C171.814 286.501 172.63 284.942 173.446 283.369C174.652 283.095 175.851 282.814 177.063 282.547C176.198 283.995 175.332 285.434 174.466 286.851C173.303 287.244 172.155 287.645 170.998 288.041ZM168.369 292.973C169.172 291.498 169.973 289.975 170.774 288.468C171.917 288.076 173.052 287.681 174.2 287.291C173.342 288.69 172.487 290.091 171.629 291.461C170.537 291.967 169.456 292.47 168.369 292.973ZM165.661 297.827C166.472 296.373 167.285 294.951 168.094 293.467C169.164 292.97 170.225 292.476 171.299 291.98C170.44 293.349 169.579 294.677 168.72 296.018C167.696 296.625 166.68 297.223 165.661 297.827ZM163.061 302.489C163.823 301.158 164.583 299.757 165.344 298.399C166.338 297.811 167.326 297.231 168.322 296.64C167.52 297.889 166.718 299.187 165.916 300.409C164.96 301.109 164.01 301.799 163.061 302.489ZM160.379 307.07C161.148 305.763 161.915 304.505 162.683 303.17C163.582 302.519 164.476 301.878 165.377 301.218C164.558 302.459 163.74 303.629 162.922 304.844C162.071 305.595 161.224 306.335 160.379 307.07ZM157.795 311.414C158.481 310.275 159.164 309.119 159.849 307.96C160.62 307.292 161.39 306.638 162.163 305.962C161.464 306.993 160.765 308.046 160.067 309.059C159.309 309.853 158.552 310.641 157.795 311.414ZM155.545 315.177C156.066 314.33 156.585 313.432 157.106 312.573C157.718 311.951 158.33 311.349 158.944 310.716C158.334 311.591 157.724 312.406 157.114 313.268C156.592 313.901 156.067 314.556 155.545 315.177ZM154.05 317.53C154.131 317.401 154.213 317.278 154.293 317.147C154.355 317.074 154.417 317.006 154.479 316.933C154.336 317.13 154.194 317.334 154.05 317.53ZM189.113 236.274C189.856 234.267 190.602 232.283 191.344 230.231C193.054 231.17 194.753 232.07 196.488 233.095C195.701 234.984 194.912 236.849 194.121 238.694C192.432 237.822 190.78 237.069 189.113 236.274ZM186.728 242.591C187.478 240.609 188.228 238.649 188.976 236.638C190.638 237.429 192.283 238.174 193.97 239.044C193.167 240.915 192.359 242.724 191.554 244.566C189.928 243.853 188.333 243.235 186.728 242.591ZM184.377 248.821C185.12 246.913 185.855 244.9 186.595 242.946C188.194 243.587 189.786 244.2 191.406 244.907C190.61 246.726 189.816 248.586 189.018 250.365C187.457 249.809 185.917 249.318 184.377 248.821ZM181.923 254.921C182.694 252.988 183.471 251.138 184.24 249.166C185.778 249.66 187.313 250.147 188.872 250.699C188.051 252.524 187.228 254.257 186.406 256.047C184.9 255.641 183.41 255.276 181.923 254.921ZM179.501 260.931C180.265 259.067 181.024 257.162 181.785 255.259C183.267 255.613 184.752 255.971 186.254 256.374C185.44 258.147 184.623 259.908 183.808 261.645C182.364 261.385 180.929 261.149 179.501 260.931ZM177.063 266.834C177.832 265.002 178.6 263.138 179.367 261.267C180.789 261.482 182.218 261.714 183.656 261.971C182.84 263.707 182.023 265.449 181.205 267.149C179.817 267.029 178.435 266.918 177.063 266.834ZM174.571 272.631C175.353 270.814 176.137 269.026 176.917 267.171C178.284 267.254 179.66 267.36 181.042 267.477C180.211 269.203 179.374 270.863 178.54 272.553C177.214 272.571 175.884 272.586 174.571 272.631ZM172.127 278.316C172.894 276.578 173.657 274.75 174.423 272.974C175.731 272.928 177.051 272.909 178.374 272.891C177.558 274.544 176.742 276.242 175.924 277.861C174.655 278.009 173.382 278.149 172.127 278.316ZM169.589 283.907C170.383 282.156 171.182 280.465 171.973 278.676C173.223 278.508 174.488 278.364 175.75 278.219C174.908 279.88 174.063 281.456 173.219 283.083C172.008 283.355 170.789 283.62 169.589 283.907ZM167.069 289.39C167.852 287.711 168.632 286.007 169.412 284.291C170.604 284.005 171.813 283.738 173.017 283.466C172.191 285.057 171.364 286.642 170.537 288.199C169.379 288.594 168.219 288.988 167.069 289.39ZM164.566 294.739C165.339 293.123 166.108 291.457 166.881 289.805C168.018 289.407 169.169 289.018 170.316 288.627C169.495 290.169 168.674 291.707 167.853 293.215C166.754 293.723 165.655 294.232 164.566 294.739ZM161.979 299.999C162.764 298.404 163.55 296.844 164.332 295.213C165.406 294.712 166.492 294.21 167.575 293.707C166.747 295.221 165.917 296.683 165.09 298.164C164.051 298.778 163.013 299.392 161.979 299.999ZM159.49 305.064C160.233 303.593 160.973 302.043 161.714 300.539C162.728 299.944 163.749 299.339 164.769 298.736C163.985 300.133 163.202 301.585 162.419 302.952C161.441 303.661 160.465 304.367 159.49 305.064ZM156.912 310.046C157.668 308.59 158.426 307.184 159.181 305.694C160.126 305.017 161.074 304.331 162.023 303.645C161.208 305.057 160.391 306.377 159.577 307.758C158.689 308.525 157.8 309.288 156.912 310.046ZM154.402 314.814C155.099 313.504 155.797 312.176 156.494 310.839C157.344 310.116 158.196 309.381 159.048 308.646C158.307 309.894 157.567 311.16 156.826 312.383C156.018 313.197 155.21 314.007 154.402 314.814ZM152.075 319.194C152.678 318.09 153.279 316.927 153.88 315.803C154.632 315.055 155.385 314.298 156.138 313.542C155.426 314.707 154.714 315.83 154.002 316.973C153.36 317.714 152.718 318.452 152.075 319.194ZM149.71 323.378C150.223 322.463 150.738 321.58 151.252 320.651C151.769 320.058 152.286 319.459 152.803 318.864C152.22 319.787 151.638 320.709 151.056 321.616C150.608 322.215 150.159 322.784 149.71 323.378ZM148.195 326.059C148.3 325.875 148.404 325.688 148.509 325.503C148.667 325.297 148.825 325.089 148.982 324.885C148.719 325.284 148.457 325.661 148.195 326.059ZM47.084 295.187C47.498 294.045 47.9056 292.893 48.3261 291.76C77.7289 232.329 122.818 192.788 191.049 230.068C190.306 232.126 189.558 234.117 188.811 236.129C122.448 204.616 77.3018 240.873 47.084 295.187ZM44.7904 301.684C45.2731 300.279 45.7578 298.873 46.2522 297.481C76.3967 242.196 121.714 204.784 188.675 236.493C187.926 238.512 187.172 240.48 186.42 242.468C121.123 216.424 75.7121 251.081 44.7904 301.684ZM42.6444 308.086C43.1675 306.481 43.7079 304.894 44.2474 303.305C75.1102 252.097 120.624 216.712 186.286 242.824C185.543 244.786 184.805 246.807 184.06 248.722C119.904 228.198 74.2644 261.226 42.6444 308.086ZM40.6076 314.556C41.141 312.839 41.66 311.107 42.2081 309.404C73.7765 262.101 119.49 228.524 183.921 249.066C183.149 251.046 182.369 252.905 181.593 254.847C118.677 239.956 72.893 271.426 40.6076 314.556ZM38.6034 321.153C39.1585 319.27 39.7299 317.397 40.3046 315.529C72.54 272.121 118.373 240.314 181.456 255.185C180.692 257.097 179.928 259.011 179.162 260.884C117.468 251.628 71.5442 281.652 38.6034 321.153ZM36.6778 327.832C37.2293 325.871 37.7969 323.915 38.3694 321.965C71.2621 282.27 117.217 252 179.027 261.22C178.255 263.104 177.482 264.971 176.706 266.816C116.274 263.234 70.2497 291.897 36.6778 327.832ZM34.834 334.605C35.3753 332.585 35.9098 330.558 36.4706 328.548C69.9968 292.468 116.041 263.617 176.561 267.154C175.776 269.02 174.987 270.821 174.2 272.649C115.082 274.772 69.0041 302.162 34.834 334.605ZM33.015 341.537C33.5536 339.428 34.1083 337.324 34.6686 335.224C68.7945 302.687 114.879 275.167 174.052 272.994C173.281 274.781 172.514 276.625 171.741 278.374C113.905 286.205 67.7743 312.465 33.015 341.537ZM31.2477 348.608C31.7767 346.432 32.3256 344.257 32.8778 342.086C67.5943 312.958 113.721 286.614 171.586 278.733C170.785 280.541 169.977 282.24 169.173 284.009C112.677 297.581 66.5529 322.818 31.2477 348.608ZM29.5479 355.825C30.0663 353.588 30.5803 351.346 31.1217 349.11C66.3818 323.295 112.492 298.007 168.996 284.394C168.209 286.122 167.421 287.848 166.633 289.538C111.474 308.855 65.3826 333.202 29.5479 355.825ZM27.8813 363.195C28.3898 360.892 28.9088 358.587 29.4418 356.282C65.2301 333.659 111.295 309.296 166.442 289.958C165.655 291.64 164.868 293.32 164.079 294.965C110.258 320.033 64.2203 343.621 27.8813 363.195ZM26.2527 370.713C26.7476 368.354 27.2684 365.986 27.7888 363.62C64.0765 344.069 110.066 320.497 163.847 295.438C163.05 297.095 162.25 298.691 161.453 300.311C108.996 331.123 63.058 354.082 26.2527 370.713ZM24.6925 378.372C25.1747 375.958 25.6644 373.537 26.1708 371.111C62.9216 354.516 108.796 331.602 161.186 300.851C160.428 302.386 159.67 303.981 158.91 305.482C107.794 342.066 61.956 364.556 24.6925 378.372ZM23.1771 386.186C23.646 383.715 24.119 381.238 24.6144 378.749C61.8181 364.975 107.573 342.563 158.6 306.113C157.807 307.673 157.008 309.122 156.214 310.645C106.498 352.938 60.8399 375.07 23.1771 386.186ZM21.7052 394.14C22.1595 391.62 22.6268 389.088 23.1082 386.545C60.6865 375.479 106.217 353.471 155.797 311.439C155.062 312.84 154.329 314.253 153.593 315.624C105.246 363.666 59.7668 385.587 21.7052 394.14ZM20.2973 380.327C19.7645 382.713 19.2583 385.085 18.7538 387.452C17.5102 387.796 16.2833 388.12 15.0593 388.439C15.6067 386.162 16.1607 383.882 16.7376 381.586C17.915 381.174 19.0997 380.756 20.2973 380.327ZM21.9774 372.997C21.4343 375.319 20.9005 377.639 20.3848 379.949C19.1903 380.378 18.011 380.794 16.8371 381.202C17.3969 378.982 17.9713 376.753 18.5605 374.52C19.6864 374.021 20.8319 373.509 21.9774 372.997ZM23.7023 365.827C23.1481 368.084 22.5967 370.344 22.0681 372.594C20.9261 373.104 19.786 373.614 18.6632 374.112C19.2349 371.945 19.8339 369.773 20.432 367.599C21.5127 367.012 22.6073 366.42 23.7023 365.827ZM25.46 358.823C24.8971 361.014 24.3478 363.203 23.8094 365.393C22.7201 365.983 21.6278 366.573 20.556 367.155C21.1372 365.05 21.7368 362.945 22.344 360.835C23.3753 360.166 24.4109 359.496 25.46 358.823ZM27.2395 351.991C26.6688 354.11 26.1282 356.231 25.5825 358.352C24.5414 359.02 23.5088 359.685 22.4844 360.349C23.0741 358.312 23.6657 356.275 24.2795 354.238C25.258 353.49 26.2396 352.741 27.2395 351.991ZM29.0975 345.294C28.5182 347.353 27.9385 349.414 27.3819 351.476C26.3927 352.216 25.4187 352.957 24.4446 353.697C25.0415 351.724 25.65 349.753 26.2704 347.783C27.2057 346.952 28.141 346.12 29.0975 345.294ZM30.9689 338.807C30.3899 340.776 29.8148 342.746 29.2571 344.72C28.3101 345.538 27.3858 346.358 26.4584 347.179C27.0638 345.267 27.6949 343.364 28.3224 341.459C29.1938 340.571 30.0785 339.687 30.9689 338.807ZM32.8371 332.541C32.2653 334.399 31.7204 336.27 31.1692 338.137C30.286 339.006 29.4177 339.881 28.5526 340.756C29.1572 338.93 29.769 337.11 30.3942 335.294C31.1952 334.37 32.0203 333.458 32.8371 332.541ZM34.7875 326.402C34.2152 328.181 33.6426 329.961 33.0885 331.751C32.2829 332.649 31.4781 333.549 30.6895 334.454C31.2815 332.742 31.8755 331.03 32.487 329.329C33.2435 328.347 34.0175 327.375 34.7875 326.402ZM36.7357 320.486C36.1766 322.147 35.62 323.812 35.078 325.485C34.34 326.412 33.588 327.333 32.8626 328.269C33.4461 326.659 34.0593 325.07 34.661 323.472C35.3488 322.473 36.0383 321.476 36.7357 320.486ZM38.6588 314.844C38.135 316.336 37.6335 317.844 37.1249 319.347C36.4765 320.258 35.8209 321.164 35.1832 322.082C35.7226 320.664 36.2699 319.252 36.8225 317.845C37.4349 316.844 38.0342 315.833 38.6588 314.844ZM40.5667 309.588C40.0977 310.867 39.6184 312.136 39.161 313.424C38.6415 314.237 38.1244 315.053 37.6136 315.874C38.0793 314.707 38.5433 313.538 39.0178 312.379C39.5318 311.446 40.043 310.512 40.5667 309.588ZM42.1223 305.344C41.8554 306.049 41.6049 306.769 41.3405 307.477C40.9764 308.108 40.6236 308.75 40.2684 309.388C40.6343 308.518 41.0158 307.664 41.3849 306.799C41.6286 306.311 41.8772 305.829 42.1223 305.344ZM193.508 223.132C126.323 181.675 82.1287 219.123 53.3204 279.066C81.223 212.059 125.585 168.96 195.716 216.901C194.982 219.009 194.244 221.053 193.508 223.132ZM199.131 226.691C197.331 225.492 195.566 224.412 193.796 223.315C194.529 221.242 195.265 219.202 195.997 217.099C197.815 218.347 199.637 219.612 201.488 220.977C200.705 222.919 199.916 224.776 199.131 226.691ZM204.764 230.687C202.974 229.389 201.173 228.052 199.416 226.869C200.2 224.96 200.985 223.108 201.767 221.172C203.576 222.516 205.423 223.996 207.268 225.467C206.433 227.23 205.598 228.949 204.764 230.687ZM210.505 234.901C208.66 233.484 206.852 232.196 205.036 230.883C205.869 229.149 206.702 227.437 207.534 225.679C209.402 227.168 211.255 228.6 213.156 230.206C212.272 231.779 211.388 233.35 210.505 234.901ZM216.244 239.538C214.408 238.028 212.57 236.508 210.765 235.113C211.647 233.566 212.528 232.001 213.41 230.433C215.257 232.005 217.15 233.733 219.033 235.435C218.104 236.802 217.174 238.189 216.244 239.538ZM222.072 244.439C220.199 242.814 218.346 241.259 216.503 239.745C217.43 238.402 218.358 237.017 219.285 235.654C221.186 237.37 223.09 239.096 225.023 240.933C224.041 242.097 223.054 243.292 222.072 244.439ZM227.933 249.665C226.046 247.94 224.175 246.274 222.32 244.659C223.299 243.516 224.282 242.326 225.263 241.166C227.173 242.986 229.103 244.874 231.048 246.818C230.01 247.765 228.968 248.729 227.933 249.665ZM233.831 255.226C231.936 253.404 230.044 251.594 228.18 249.886C229.211 248.954 230.25 247.993 231.283 247.049C233.21 248.979 235.159 250.994 237.12 253.049C236.024 253.775 234.925 254.507 233.831 255.226ZM239.841 261.079C237.898 259.131 235.987 257.303 234.075 255.464C235.163 254.746 236.259 254.017 237.352 253.296C239.32 255.364 241.288 257.416 243.29 259.603C242.14 260.094 240.987 260.586 239.841 261.079ZM245.812 267.286C243.901 265.276 241.977 263.221 240.098 261.328C241.24 260.839 242.387 260.349 243.531 259.859C245.471 261.985 247.45 264.266 249.422 266.523C248.219 266.778 247.012 267.029 245.812 267.286ZM251.98 273.789C249.988 271.622 248.043 269.63 246.08 267.568C247.274 267.312 248.474 267.062 249.672 266.808C251.69 269.114 253.685 271.329 255.733 273.75C254.48 273.761 253.227 273.772 251.98 273.789ZM258.003 280.606C256.087 278.424 254.153 276.178 252.269 274.117C253.512 274.1 254.757 274.088 256.004 274.079C257.937 276.376 259.921 278.865 261.889 281.295C260.59 281.057 259.296 280.831 258.003 280.606ZM264.263 287.762C262.274 285.432 260.319 283.233 258.356 281.005C259.639 281.228 260.92 281.448 262.21 281.688C264.222 284.166 266.216 286.576 268.257 289.17C266.915 288.673 265.592 288.226 264.263 287.762ZM270.387 295.159C268.475 292.827 266.556 290.473 264.674 288.258C265.866 288.675 267.052 289.073 268.257 289.521L268.271 289.527L268.287 289.529L268.569 289.577C270.475 292.008 272.419 294.578 274.355 297.127L273.852 296.948C272.687 296.32 271.54 295.748 270.387 295.159ZM276.724 302.938C274.775 300.498 272.85 298.152 270.927 295.809C271.85 296.282 272.77 296.739 273.704 297.243L273.713 297.249L273.727 297.255C274.06 297.372 274.391 297.49 274.725 297.608C276.675 300.174 278.614 302.692 280.589 305.353C280.172 305.133 279.754 304.91 279.335 304.689C278.457 304.078 277.592 303.515 276.724 302.938ZM282.928 310.89C281.069 308.483 279.209 306.077 277.377 303.774C277.969 304.166 278.557 304.551 279.158 304.967L279.167 304.973L279.176 304.977C279.796 305.306 280.415 305.633 281.033 305.961C282.88 308.463 284.757 311.082 286.633 313.696L284.823 312.432C284.182 311.896 283.556 311.397 282.928 310.89ZM289.308 319.233C287.474 316.793 285.653 314.411 283.842 312.064C284.098 312.27 284.353 312.474 284.613 312.693L284.618 312.698L284.625 312.703C285.495 313.309 286.36 313.914 287.223 314.518C289.092 317.122 290.946 319.671 292.833 322.354C291.99 321.63 291.144 320.902 290.296 320.174C289.963 319.847 289.636 319.541 289.308 319.233ZM295.496 327.615C293.784 325.278 292.067 322.935 290.375 320.677C291.443 321.595 292.509 322.509 293.569 323.422C295.253 325.83 296.96 328.339 298.668 330.844L295.782 327.921C295.685 327.815 295.59 327.718 295.496 327.615ZM301.709 336.188C300.102 333.926 298.512 331.723 296.931 329.558L299.732 332.396C301.396 334.841 303.034 337.181 304.708 339.667L301.709 336.188ZM307.207 344.025C306.013 342.328 304.806 340.581 303.617 338.909L306.083 341.77C307.23 343.492 308.398 345.3 309.561 347.085L307.207 344.025ZM312.198 351.137C311.983 350.823 311.776 350.542 311.563 350.231L311.944 350.726C312.105 350.973 312.264 351.215 312.425 351.463L312.198 351.137ZM301.449 336.393C301.627 336.643 301.812 336.915 301.992 337.169C301.685 336.761 301.378 336.362 301.07 335.955L301.449 336.393ZM295.238 327.825C296.57 329.64 297.878 331.363 299.22 333.217C298.338 332.137 297.472 331.127 296.592 330.061C295.357 328.448 294.128 326.864 292.906 325.307C293.681 326.138 294.452 326.951 295.238 327.825ZM289.054 319.446C290.507 321.375 291.985 323.404 293.46 325.415C292.298 324.139 291.151 322.919 289.999 321.677C288.5 319.804 286.995 317.907 285.506 316.071C286.684 317.185 287.859 318.284 289.054 319.446ZM282.679 311.116C284.422 313.366 286.159 315.589 287.92 317.914C286.593 316.629 285.281 315.395 283.966 314.152C282.237 312.039 280.533 310.016 278.823 307.973C280.104 309.01 281.384 310.037 282.679 311.116ZM276.488 303.179C278.226 305.357 279.998 307.658 281.763 309.942C280.384 308.801 279.013 307.694 277.643 306.585C275.907 304.52 274.171 302.457 272.458 300.478C273.798 301.369 275.138 302.257 276.488 303.179ZM270.162 295.414C272.048 297.704 273.927 299.964 275.835 302.342C274.443 301.397 273.056 300.47 271.672 299.552C269.805 297.414 267.97 295.391 266.124 293.331C267.466 294.015 268.812 294.707 270.162 295.414ZM264.055 288.04C265.886 290.192 267.759 292.497 269.622 294.764C268.243 294.047 266.864 293.33 265.493 292.631C263.679 290.604 261.861 288.562 260.075 286.638C261.397 287.094 262.726 287.568 264.055 288.04ZM257.815 280.91C259.754 283.107 261.679 285.251 263.644 287.545C262.298 287.069 260.948 286.583 259.607 286.122C257.696 284.079 255.824 282.181 253.935 280.222C255.223 280.44 256.522 280.68 257.815 280.91ZM251.817 274.122C253.67 276.145 255.577 278.366 257.463 280.51C256.158 280.28 254.843 280.034 253.545 279.816C251.714 277.911 249.87 275.957 248.071 274.161C249.311 274.138 250.569 274.138 251.817 274.122ZM245.68 267.653C247.619 269.686 249.543 271.661 251.509 273.793C250.256 273.809 248.992 273.812 247.744 273.838C245.837 271.95 243.975 270.223 242.093 268.424C243.283 268.162 244.483 267.91 245.68 267.653ZM239.744 261.481C241.609 263.355 243.516 265.381 245.412 267.371C244.209 267.629 243.003 267.885 241.805 268.149C239.97 266.391 238.126 264.604 236.318 262.952C237.457 262.462 238.6 261.971 239.744 261.481ZM233.77 255.664C235.665 257.484 237.561 259.303 239.486 261.23C238.336 261.723 237.187 262.217 236.042 262.711C234.171 261.008 232.335 259.425 230.489 257.815C231.582 257.1 232.674 256.385 233.77 255.664ZM227.91 250.133C229.764 251.829 231.643 253.618 233.527 255.428C232.427 256.153 231.329 256.872 230.233 257.588C228.407 255.995 226.584 254.418 224.785 252.928C225.827 252 226.867 251.078 227.91 250.133ZM222.08 244.935C223.925 246.537 225.787 248.201 227.663 249.913C226.614 250.861 225.57 251.786 224.525 252.718C222.701 251.211 220.896 249.771 219.099 248.361C220.092 247.221 221.084 246.097 222.08 244.935ZM216.287 240.054C218.123 241.561 219.967 243.098 221.832 244.715C220.833 245.881 219.836 247.01 218.839 248.152C217.035 246.738 215.248 245.389 213.471 244.073C214.409 242.736 215.348 241.415 216.287 240.054ZM210.576 235.443C212.371 236.829 214.202 238.346 216.03 239.846C215.086 241.212 214.145 242.537 213.203 243.879C211.429 242.566 209.658 241.265 207.911 240.053C208.8 238.516 209.688 236.999 210.576 235.443ZM204.865 231.238C206.675 232.545 208.475 233.819 210.314 235.231C209.423 236.793 208.532 238.315 207.64 239.857C205.863 238.631 204.118 237.515 202.369 236.382C203.201 234.673 204.034 232.968 204.865 231.238ZM199.261 227.247C201.013 228.423 202.807 229.749 204.593 231.042C203.759 232.777 202.924 234.489 202.089 236.204C200.364 235.082 198.625 233.914 196.93 232.897C197.707 231.027 198.485 229.139 199.261 227.247ZM193.657 223.703C195.421 224.795 197.182 225.874 198.975 227.067C198.197 228.964 197.42 230.855 196.641 232.729C194.897 231.696 193.195 230.8 191.477 229.855C192.206 227.83 192.931 225.752 193.657 223.703ZM50.5889 285.868C79.2333 222.393 124.02 180.808 193.371 223.52C192.642 225.577 191.915 227.659 191.185 229.69C123.906 192.827 79.0918 230.557 49.5864 288.415C49.9161 287.563 50.2554 286.719 50.5889 285.868ZM45.0337 298.943C45.3011 298.276 45.5569 297.595 45.8285 296.933C46.1753 296.198 46.508 295.445 46.8588 294.715C46.5385 295.595 46.2173 296.474 45.8994 297.358C45.6115 297.886 45.3203 298.41 45.0337 298.943ZM42.3451 305.788C42.8392 304.486 43.3529 303.205 43.8587 301.917C44.27 301.129 44.6879 300.35 45.1093 299.574C44.6965 300.762 44.3073 301.976 43.903 303.174C43.3834 304.045 42.8595 304.912 42.3451 305.788ZM40.0434 312.07C40.5791 310.585 41.1191 309.104 41.6696 307.633C42.222 306.677 42.7916 305.738 43.3588 304.795C42.8596 306.285 42.3543 307.768 41.8687 309.272C41.2591 310.204 40.6495 311.135 40.0434 312.07ZM37.8449 318.343C38.394 316.746 38.9346 315.139 39.4996 313.555C40.1529 312.534 40.8174 311.524 41.4831 310.513C40.9681 312.129 40.4687 313.76 39.9685 315.39C39.2504 316.366 38.5534 317.359 37.8449 318.343ZM35.6976 324.706C36.2702 322.954 36.8655 321.218 37.4569 319.481C38.1821 318.464 38.9073 317.447 39.6424 316.437C39.0968 318.225 38.5656 320.023 38.0379 321.823C37.2498 322.778 36.4733 323.741 35.6976 324.706ZM33.6684 331.097C34.2394 329.268 34.817 327.44 35.4071 325.623C36.2026 324.626 36.9938 323.624 37.8036 322.637C37.2432 324.557 36.6789 326.476 36.1384 328.41C35.3088 329.301 34.4817 330.195 33.6684 331.097ZM31.689 337.615C32.259 335.703 32.8265 333.789 33.4171 331.887C34.2499 330.959 35.0903 330.035 35.941 329.115C35.3919 331.092 34.8709 333.088 34.3412 335.075C33.4511 335.92 32.559 336.764 31.689 337.615ZM29.7286 344.32C30.3017 342.303 30.8959 340.292 31.4907 338.285C32.3727 337.417 33.2737 336.556 34.1747 335.695C33.6242 337.768 33.0852 339.845 32.5567 341.925C31.6072 342.722 30.6605 343.52 29.7286 344.32ZM27.8376 351.138C28.4033 349.052 28.9835 346.965 29.5724 344.886C30.5084 344.08 31.464 343.277 32.4195 342.474C31.8747 344.625 31.3271 346.78 30.8035 348.937C29.8055 349.671 28.8196 350.404 27.8376 351.138ZM26.0099 358.08C26.564 355.939 27.1169 353.794 27.6941 351.654C28.681 350.915 29.6769 350.176 30.6818 349.438C30.1472 351.653 29.6419 353.872 29.1292 356.089C28.0783 356.754 27.0453 357.416 26.0099 358.08ZM24.2155 365.173C24.7609 362.966 25.3186 360.758 25.8885 358.549C26.9296 357.881 27.9665 357.215 29.0243 356.545C28.4971 358.833 27.9859 361.123 27.4821 363.41C26.3836 364.001 25.2958 364.588 24.2155 365.173ZM22.4591 372.42C22.9924 370.155 23.5507 367.879 24.1103 365.607C25.1961 365.02 26.2861 364.431 27.3884 363.836C26.8727 366.187 26.3582 368.542 25.8668 370.886C24.7226 371.403 23.5849 371.917 22.4591 372.42ZM20.7659 379.815C21.2871 377.492 21.8187 375.16 22.3672 372.824C23.4953 372.319 24.638 371.805 25.7865 371.287C25.2833 373.699 24.7925 376.11 24.3143 378.512C23.124 378.951 21.9353 379.393 20.7659 379.815ZM19.1251 387.346C19.6332 384.969 20.1443 382.587 20.6796 380.193C21.8528 379.771 23.0447 379.329 24.2373 378.888C23.7451 381.365 23.2773 383.83 22.81 386.291C21.5724 386.654 20.3447 387.006 19.1251 387.346ZM17.5257 395.022C18.0183 392.594 18.5237 390.158 19.0469 387.705C20.2695 387.365 21.5023 387.013 22.7423 386.649C22.2619 389.186 21.7987 391.711 21.3465 394.225C20.0616 394.512 18.7946 394.764 17.5257 395.022ZM38.0078 425.623C72.6379 418.338 110.033 391.536 146.148 329.68C147.881 327.117 149.611 324.494 151.342 321.796C153.362 319.092 155.385 316.291 157.407 313.435C159.47 310.955 161.536 308.43 163.604 305.823C165.647 303.66 167.695 301.439 169.747 299.179C172.054 297.076 174.369 294.937 176.692 292.746C178.918 291.05 181.153 289.325 183.395 287.576C185.807 286.108 188.234 284.62 190.669 283.121C193.176 281.986 195.697 280.849 198.234 279.709C200.814 278.95 203.413 278.204 206.026 277.469C208.787 277.097 211.566 276.75 214.369 276.436C217.163 276.511 219.982 276.629 222.822 276.793C225.884 277.367 228.973 278.002 232.091 278.708C235.094 279.76 238.128 280.892 241.188 282.097C244.684 283.878 248.221 285.778 251.795 287.789C254.913 289.885 258.07 292.114 261.253 294.422C265.177 297.665 269.157 301.1 273.179 304.676C276.463 307.913 279.787 311.303 283.146 314.811C287.479 319.722 291.888 324.922 296.34 330.277C299.674 334.568 303.042 338.983 306.46 343.596L306.462 343.6L306.943 344.226C308.599 346.576 310.241 348.869 311.925 351.326L311.926 351.327L318.284 360.453C325.574 371.856 332.68 382.986 339.566 393.77C350.557 410.979 360.976 427.296 370.884 442.766L371.156 442.575C361.25 427.109 350.833 410.798 339.846 393.59C334.397 385.058 328.812 376.311 323.058 367.306L331.511 379.446C346.702 401.263 360.861 421.599 374.099 440.493L374.369 440.302C361.133 421.41 346.974 401.075 331.782 379.257C327.46 373.049 323.054 366.721 318.562 360.274L317.668 358.875C316.631 357.252 315.626 355.765 314.599 354.184C319.511 360.575 324.324 366.84 329.039 372.979C346.893 396.221 363.351 417.644 378.607 437.306L378.878 437.114C363.621 417.45 347.161 396.025 329.303 372.777C323.743 365.538 318.048 358.125 312.213 350.536C310.713 348.23 309.206 345.902 307.726 343.677C316.492 353.851 324.955 363.692 333.129 373.198C351.754 394.858 368.887 414.782 384.738 432.97L385.011 432.778C369.156 414.584 352.015 394.651 333.382 372.982C324.701 362.887 315.699 352.417 306.35 341.57C304.574 338.904 302.814 336.316 301.06 333.741C316.306 349.2 330.659 363.858 344.223 377.71C361.697 395.557 377.863 412.066 392.908 427.195L393.183 427C378.128 411.864 361.951 395.342 344.461 377.479C330.499 363.219 315.701 348.107 299.995 332.188C298.175 329.516 296.352 326.838 294.557 324.27C319 345.31 341.322 364.966 361.851 383.041C376.665 396.086 390.536 408.298 403.61 419.628L403.889 419.43C390.8 408.087 376.909 395.857 362.071 382.792C341.285 364.489 318.658 344.565 293.822 323.199C291.888 320.44 289.973 317.761 288.064 315.102C324.214 340.416 355.991 364.155 384.418 385.392C395.928 393.991 406.888 402.179 417.369 409.898L417.654 409.697C407.148 401.961 396.158 393.751 384.618 385.128C355.985 363.737 323.953 339.808 287.471 314.284C285.542 311.594 283.607 308.895 281.706 306.321C331.049 332.562 372.825 358.859 409.445 381.91C418.118 387.368 426.5 392.645 434.627 397.697L434.921 397.489C426.759 392.416 418.337 387.115 409.623 381.63C372.851 358.483 330.882 332.064 281.265 305.712C279.264 303.011 277.288 300.412 275.314 297.818C338.015 320.054 389.542 347.661 434.357 371.675C441.564 375.538 448.6 379.308 455.481 382.947L455.785 382.733C448.858 379.068 441.773 375.273 434.511 371.381C389.575 347.302 337.892 319.609 274.941 297.333C272.972 294.744 270.997 292.127 269.06 289.66C343.894 302.238 404.437 330.719 457.337 355.608C464.875 359.154 472.25 362.622 479.497 365.966L479.809 365.745C472.507 362.376 465.075 358.882 457.478 355.31C404.475 330.373 343.804 301.831 268.763 289.275C266.73 286.694 264.732 284.249 262.728 281.78L262.815 281.796L262.833 281.8L262.852 281.799C347.844 279.342 416.733 309.132 477.642 335.473C487.178 339.596 496.513 343.629 505.69 347.446L506.01 347.22C496.774 343.379 487.376 339.32 477.774 335.168C416.839 308.816 347.919 279.014 262.86 281.468C262.709 281.439 262.558 281.413 262.407 281.387C260.414 278.927 258.403 276.402 256.444 274.075C256.754 274.07 257.066 274.065 257.38 274.065L257.401 274.066L257.419 274.062C350.087 252.331 426.689 284.296 495.308 312.931C508.09 318.264 520.596 323.483 532.88 328.218L533.205 327.988C520.861 323.234 508.289 317.988 495.437 312.624C426.774 283.972 350.126 251.986 257.359 273.734C256.963 273.734 256.57 273.742 256.176 273.747C254.112 271.306 252.096 269.05 250.063 266.728C250.689 266.595 251.313 266.458 251.944 266.33L251.961 266.326L251.979 266.318C350.399 221.905 434.58 257.234 510.734 289.194C527.552 296.253 543.979 303.146 560.085 308.983L560.414 308.75C544.248 302.9 527.752 295.977 510.863 288.889C434.652 256.904 350.405 221.548 251.861 266.01C251.174 266.15 250.495 266.298 249.814 266.443C247.828 264.172 245.831 261.851 243.88 259.714C244.755 259.339 245.627 258.965 246.508 258.588L246.52 258.583L246.537 258.573C349.108 188.812 440.94 228.74 524.401 265.029C545.681 274.281 566.417 283.296 586.652 290.2L586.986 289.964C566.691 283.054 545.887 274.009 524.534 264.725C440.996 228.4 349.082 188.439 246.366 258.285C245.452 258.674 244.546 259.064 243.638 259.453C241.621 257.249 239.64 255.177 237.654 253.094C238.791 252.344 239.924 251.597 241.066 250.836L241.077 250.829L241.086 250.82C346.525 153.596 446.217 199.348 536.734 240.889C562.678 252.796 587.868 264.355 612.228 272.11L612.569 271.87C588.151 264.121 562.891 252.528 536.873 240.588C446.264 199.005 346.471 153.208 240.873 250.568C239.718 251.337 238.572 252.091 237.424 252.85C235.454 250.784 233.49 248.74 231.556 246.801C232.908 245.567 234.26 244.345 235.619 243.087L235.625 243.081L235.632 243.073C342.918 116.651 450.772 169.433 548.085 217.059C578.781 232.081 608.431 246.592 636.691 254.813L637.038 254.567C608.729 246.368 579.006 231.823 548.232 216.762C450.811 169.084 342.839 116.244 235.389 242.851C234.027 244.111 232.674 245.336 231.319 246.571C229.363 244.616 227.422 242.714 225.5 240.885C227.054 239.048 228.608 237.224 230.166 235.34L230.171 235.333L230.175 235.326C338.498 78.2333 454.873 139.25 558.726 193.7C594.237 212.318 628.284 230.168 660.06 238.288L660.415 238.037C628.599 229.959 594.476 212.07 558.881 193.407C454.907 138.893 338.397 77.8058 229.907 235.132C228.355 237.007 226.81 238.824 225.263 240.652C223.322 238.81 221.407 237.059 219.5 235.339C221.235 232.788 222.972 230.228 224.71 227.591L224.715 227.583C333.426 38.5206 458.727 108.983 568.867 170.92C609.291 193.653 647.675 215.234 682.467 222.444L682.838 222.181C648.017 215.046 609.548 193.417 569.029 170.63C458.756 108.619 333.304 38.0723 224.431 227.41C222.701 230.033 220.975 232.578 219.249 235.116C217.356 233.407 215.456 231.67 213.599 230.091C215.483 226.736 217.366 223.338 219.249 219.845L219.251 219.838C303.739 46.9085 404.023 57.696 499.092 103.974C526.203 117.171 552.891 133.253 578.669 148.787C624.242 176.25 666.972 201.995 704.192 207.082L704.586 206.804C667.352 201.84 624.525 176.034 578.84 148.504C553.055 132.966 526.358 116.879 499.237 103.677C404.012 57.3221 303.567 46.5111 218.955 219.688C217.086 223.157 215.216 226.531 213.344 229.865C211.437 228.256 209.577 226.806 207.702 225.313C209.735 221.012 211.761 216.611 213.784 212.1L213.786 212.098C289.396 32.5221 382.897 24.3272 474.019 62.5306C513.064 78.8987 551.679 103.784 588.262 127.36C638.817 159.938 685.5 190.022 724.138 191.728C724.706 191.752 725.272 191.762 725.837 191.775L726.289 191.455C725.579 191.443 724.868 191.428 724.152 191.397C685.601 189.694 638.956 159.635 588.441 127.082C551.843 103.497 513.216 78.604 474.147 62.2256C382.857 23.9534 289.193 32.1447 213.478 211.97C211.469 216.451 209.452 220.825 207.434 225.1C205.587 223.625 203.734 222.133 201.922 220.786C204.064 215.469 206.195 209.97 208.319 204.359L208.319 204.357C278.085 14.1722 368.152 -6.84143 457.707 25.8477C505.584 43.3237 553.329 76.147 597.752 106.684C644.059 138.517 686.756 167.866 722.271 174.792L721.995 174.402C686.62 167.371 644.074 138.124 597.941 106.41C553.504 75.8622 505.742 43.03 457.822 25.5376C368.096 -7.21488 277.867 13.8103 208.009 204.242C205.895 209.827 203.775 215.297 201.644 220.589C199.788 219.218 197.959 217.951 196.138 216.699C198.393 210.21 200.632 203.514 202.854 196.618C268.184 -6.04783 356.372 -37.333 445.527 -8.75516C500.778 8.95489 556.418 49.6477 607.222 86.8036C642.844 112.854 676.088 137.167 705.176 150.616L704.79 150.071C675.863 136.591 642.816 112.424 607.418 86.5345C556.594 49.3651 500.932 8.65542 445.629 -9.07149C356.298 -37.7056 267.949 -6.39943 202.539 196.516C200.328 203.378 198.1 210.042 195.856 216.5C123.116 166.731 78.0193 214.603 50.2488 285.694C48.6152 289.32 47.0266 293.008 45.4983 296.766C43.9708 300.011 42.4917 303.315 41.0498 306.654C39.3399 310.08 37.6729 313.55 36.072 317.074C34.4265 320.191 32.8312 323.35 31.2828 326.541C29.4759 329.74 27.7147 332.966 26.0155 336.225C24.227 339.159 22.4918 342.118 20.8073 345.092C18.8738 348.002 17.0064 350.932 15.1867 353.867C13.1862 356.592 11.2362 359.322 9.35996 362.052C7.30853 364.547 5.32527 367.038 3.40303 369.52C2.42829 370.556 1.46944 371.589 0.524165 372.618L0.719543 372.895L1.28087 372.29L0.771291 372.963L1.03152 373.331C1.71462 372.727 2.4059 372.123 3.09751 371.517C2.56378 372.354 2.03971 373.187 1.51874 374.02L1.72627 374.313C2.47636 373.117 3.23923 371.918 4.01337 370.717C4.8661 369.978 5.74207 369.233 6.61574 368.49C5.87597 369.824 5.15485 371.156 4.4388 372.488C3.53717 373.119 2.64865 373.744 1.76323 374.368L1.95293 374.636C2.65913 374.139 3.37383 373.639 4.08969 373.137C3.62724 373.999 3.17019 374.859 2.71822 375.719L2.93386 376.024C3.51555 374.921 4.10459 373.817 4.7002 372.709C5.67353 372.031 6.66734 371.346 7.66426 370.66C6.92073 372.25 6.1908 373.838 5.47478 375.42L3.34279 376.599L3.53492 376.871L5.25091 375.923C4.94031 376.612 4.63086 377.3 4.32453 377.988L4.54828 378.304C4.94269 377.422 5.3394 376.538 5.73921 375.653C6.79619 375.069 7.86857 374.478 8.9475 373.883C8.23611 375.685 7.53127 377.483 6.84887 379.274L5.61028 379.806L5.80484 380.081L6.68739 379.701L6.28558 380.761L6.51825 381.09C6.71658 380.567 6.91606 380.042 7.11554 379.517C8.23879 379.034 9.37467 378.542 10.5197 378.044C9.85651 380.028 9.19637 382.012 8.56395 383.981L8.80716 384.325L8.82777 384.264C10.007 383.877 11.1973 383.479 12.3967 383.075C11.9666 384.596 11.5491 386.109 11.1363 387.619L11.39 387.978C11.8473 386.304 12.3092 384.628 12.7888 382.942C13.9681 382.543 15.1535 382.138 16.353 381.722C15.7804 384.005 15.2336 386.273 14.6894 388.537C13.8668 388.751 13.0468 388.961 12.2318 389.166L12.4329 389.45C13.153 389.269 13.8768 389.084 14.6022 388.896C14.3851 389.803 14.1707 390.706 13.9594 391.609L14.2213 391.979C14.4694 390.921 14.721 389.861 14.976 388.799C16.2031 388.48 17.4328 388.157 18.6795 387.812C18.1603 390.253 17.6586 392.68 17.1687 395.097L16.514 395.226L16.7216 395.52L17.0953 395.446L17.0004 395.914L17.2688 396.294L17.4561 395.372C18.7278 395.116 19.9972 394.861 21.2837 394.578C20.9289 396.557 20.5791 398.531 20.2391 400.494L20.5148 400.884C20.8806 398.765 21.259 396.631 21.6443 394.493C59.5881 385.997 104.899 364.243 153.075 316.614C152.369 317.923 151.662 319.207 150.953 320.489C104.407 373.778 59.542 395.699 21.34 402.051L21.5573 402.359C59.4951 396.018 103.973 374.346 150.131 321.941C149.491 323.09 148.848 324.216 148.208 325.343C105.621 380.886 63.5387 403.613 26.5852 409.469L26.813 409.791C63.3716 403.961 104.923 381.643 147.008 327.465C146.625 328.129 146.244 328.839 145.86 329.495C106.961 387.036 67.633 411.136 32.1076 417.279L32.3516 417.624C66.8004 411.635 104.805 388.81 142.523 335.019C107.447 392.87 71.2925 418.239 37.75 425.259L38.0078 425.623Z" fill="#496AD0"/>
</g>
</g>
<defs>
<clipPath id="clip0_2931_55136">
<rect width="324" height="368" fill="white" transform="translate(0.483398 0.796875)"/>
</clipPath>
<clipPath id="clip1_2931_55136">
<rect width="703.516" height="388.091" fill="white" transform="matrix(0.816496 -0.577351 -0.577351 -0.816496 157.048 593.973)"/>
</clipPath>
</defs>
</svg>
