<svg id="Layer_1" data-name="Layer 1" xmlns="http://www.w3.org/2000/svg" viewBox="0 0 21.83 23.61"><defs><style>.cls-1{fill:#2a7576;fill-rule:evenodd;}</style></defs><path class="cls-1" d="M18.35,10.29A1.21,1.21,0,0,0,17.2,11.5v4.24a.61.61,0,0,1-.61.61,1,1,0,0,0-.56.24,3.05,3.05,0,0,0-.63.78,4.44,4.44,0,0,0-.62,2H13.56a5.63,5.63,0,0,1,.8-2.63,4.21,4.21,0,0,1,.91-1.1,2.32,2.32,0,0,1,.72-.41V11.5a2.42,2.42,0,0,1,2.42-2.43H19a.61.61,0,0,1,.61.61v6.67a12.26,12.26,0,0,1-1.22,4.89c-.74,1.58-1.86,3.09-3.29,3.57l-.39-1.15a5.42,5.42,0,0,0,2.59-2.93,11.25,11.25,0,0,0,1.09-4.38ZM9.48,22.82a2.69,2.69,0,0,0,.88.88l-.58,1.06a3.9,3.9,0,0,1-1.29-1.24,9,9,0,0,1-1-1.8,16.62,16.62,0,0,1-1.09-4l1.2-.16a15.52,15.52,0,0,0,1,3.75A7.83,7.83,0,0,0,9.48,22.82Z" transform="translate(-1.44 -1.2)"/><path class="cls-1" d="M3.29,6a.65.65,0,0,0-.64.65v9.62a.65.65,0,0,0,.64.65H14.78v1.21H3.29a1.85,1.85,0,0,1-1.85-1.86V6.69A1.85,1.85,0,0,1,3.29,4.83H21.41a1.85,1.85,0,0,1,1.85,1.86v9.62a1.85,1.85,0,0,1-1.85,1.86h-2.2V17h2.2a.64.64,0,0,0,.64-.65V6.69A.64.64,0,0,0,21.41,6Z" transform="translate(-1.44 -1.2)"/><path class="cls-1" d="M12.35,13.32v2.45H11.14V13.32Z" transform="translate(-1.44 -1.2)"/><path class="cls-1" d="M11.14,9.68V7.26h1.21V9.68Z" transform="translate(-1.44 -1.2)"/><path class="cls-1" d="M10.53,9.68a.61.61,0,0,0,0,1.21H13a1.82,1.82,0,0,1,0,3.64H8.71V13.32H13a.61.61,0,0,0,0-1.21H10.53a1.82,1.82,0,1,1,0-3.64h3V9.68Z" transform="translate(-1.44 -1.2)"/><path class="cls-1" d="M15.38,4.22a.61.61,0,0,0-.6.61H13.56a1.82,1.82,0,1,1,3.64,0H16A.61.61,0,0,0,15.38,4.22Z" transform="translate(-1.44 -1.2)"/><path class="cls-1" d="M10.53,4.22a.61.61,0,0,0-.6.61H8.71a1.82,1.82,0,1,1,3.64,0H11.14A.61.61,0,0,0,10.53,4.22Z" transform="translate(-1.44 -1.2)"/><path class="cls-1" d="M13,2.41a.61.61,0,0,0-.61.61V4.83H11.14V3h0a1.82,1.82,0,0,1,3.64,0V5.48H13.56V3A.6.6,0,0,0,13,2.41Z" transform="translate(-1.44 -1.2)"/></svg>