<svg width="27" height="25" viewBox="0 0 27 25" fill="none" xmlns="http://www.w3.org/2000/svg">
<path d="M12.4956 16.2461C12.4956 16.3984 12.5507 16.5508 12.6608 16.6523C12.7709 16.7539 12.881 16.8555 13.1013 16.957V15.5352C12.9361 15.5859 12.7709 15.6875 12.6608 15.8398C12.5507 15.9414 12.4956 16.0937 12.4956 16.2461Z" fill="white"/>
<path d="M13.707 18.3281V19.9531C13.9273 19.9023 14.0924 19.8008 14.2576 19.6484C14.4228 19.4961 14.4779 19.293 14.4779 19.0898C14.4779 18.8867 14.4228 18.7344 14.3127 18.6328C14.2026 18.4805 13.9823 18.3789 13.707 18.3281Z" fill="white"/>
<path d="M0.162598 10.9648V24.8281H26.591V10.9648H0.162598ZM24.8842 21.121C24.8842 21.4257 24.6089 21.6288 24.3336 21.6288C23.6729 21.6288 23.1774 22.0859 23.1774 22.6952C23.1774 22.9999 22.9021 23.2031 22.6268 23.2031H4.18192C3.85157 23.2031 3.63133 22.9492 3.63133 22.6952C3.63133 22.0859 3.1358 21.6288 2.47508 21.6288C2.14473 21.6288 1.92449 21.3749 1.92449 21.121V14.6719C1.92449 14.3672 2.19979 14.164 2.47508 14.164C3.1358 14.164 3.63133 13.707 3.63133 13.0976C3.63133 12.793 3.90663 12.5898 4.18192 12.5898H22.5717C22.9021 12.5898 23.1223 12.8437 23.1223 13.0976C23.1223 13.707 23.6178 14.164 24.2785 14.164C24.6089 14.164 24.8291 14.418 24.8291 14.6719V21.121H24.8842Z" fill="white"/>
<path d="M22.0764 13.6055H4.67766C4.45742 14.3672 3.85177 14.9258 3.02588 15.1289V20.664C3.85177 20.8671 4.45742 21.4257 4.67766 22.1875H22.0764C22.2966 21.4257 22.9023 20.8671 23.7281 20.664V15.1289C22.9023 14.9766 22.2966 14.3672 22.0764 13.6055ZM6.60473 18.4297H5.17319C4.84283 18.4297 4.6226 18.1758 4.6226 17.9219C4.6226 17.6172 4.89789 17.414 5.17319 17.414H6.60473C6.93508 17.414 7.15532 17.6679 7.15532 17.9219C7.15532 18.2265 6.93508 18.4297 6.60473 18.4297ZM15.0838 20.207C14.7535 20.5625 14.313 20.7656 13.7074 20.8164V21.5781H13.0467V20.8164C12.5511 20.7656 12.1107 20.5625 11.7803 20.2578C11.4499 19.9531 11.2297 19.5468 11.1746 18.9883L12.3309 18.8867C12.3859 19.0898 12.4961 19.2929 12.6062 19.4453C12.7163 19.5976 12.8815 19.6992 13.0467 19.8007V18.0742C12.441 17.9219 12.0005 17.6679 11.7252 17.3633C11.4499 17.0586 11.3398 16.6523 11.3398 16.2461C11.3398 15.7891 11.505 15.4336 11.7803 15.1289C12.1107 14.8242 12.4961 14.6211 13.0467 14.6211V14.2148H13.7074V14.6211C14.2029 14.6719 14.5883 14.8242 14.8636 15.0781C15.1389 15.332 15.3041 15.6367 15.4142 16.0937L14.258 16.1953C14.2029 15.8906 13.9827 15.6367 13.7074 15.5351V17.1601C14.4231 17.3633 14.9187 17.5664 15.194 17.8711C15.4693 18.1758 15.5794 18.5312 15.5794 18.9883C15.5794 19.4453 15.4142 19.8515 15.0838 20.207ZM21.5808 18.4297H20.1493C19.8189 18.4297 19.5987 18.1758 19.5987 17.9219C19.5987 17.6172 19.874 17.414 20.1493 17.414H21.5808C21.9112 17.414 22.1314 17.6679 22.1314 17.9219C22.1865 18.2265 21.9112 18.4297 21.5808 18.4297Z" fill="white"/>
<path d="M17.0108 3.4492C17.1209 3.34764 17.2861 3.34764 17.4513 3.34764C17.6165 3.39842 17.7266 3.4492 17.8367 3.55076C18.1671 4.00779 18.9379 4.16014 19.4334 3.85545C19.5435 3.75389 19.7087 3.75389 19.8739 3.75389C19.984 3.80467 20.1492 3.90623 20.2042 4.00779L23.3426 8.27339C23.4527 8.37496 23.4527 8.5273 23.4527 8.67964C23.3977 8.83199 23.3426 8.93355 23.2325 9.03511C22.9572 9.18745 22.792 9.44136 22.737 9.69526C22.737 9.74604 22.737 9.8476 22.737 9.89839H26.3158L19.3233 0.453125L4.12695 9.94917H6.65968L17.0108 3.4492Z" fill="white"/>
<path d="M12.4407 9.49216L12.771 9.94919H21.5255C21.5255 9.79685 21.5255 9.6445 21.5805 9.54294C21.6356 9.18748 21.8558 8.83201 22.1311 8.52732L19.5433 5.02344C18.7725 5.27734 17.8365 5.125 17.2308 4.61719L8.6416 9.94919H10.899C11.0091 9.6445 11.1743 9.3906 11.4496 9.13669L11.2294 8.83201L11.7249 8.52732L11.9452 8.83201C12.3306 8.67967 12.6609 8.5781 12.9913 8.62888C13.3216 8.67967 13.652 8.83201 13.9273 9.08591L13.1565 9.69529C12.9913 9.49216 12.716 9.44138 12.4407 9.49216ZM18.0017 7.86717L19.0478 7.20702C19.3231 7.05467 19.6534 7.10546 19.8186 7.35936C19.9838 7.61327 19.9287 7.91795 19.6534 8.07029L18.6073 8.73045C18.4972 8.78123 18.3871 8.83201 18.277 8.83201C18.1118 8.83201 17.8916 8.73045 17.7814 8.5781C17.6713 8.37498 17.7264 8.01951 18.0017 7.86717Z" fill="white"/>
</svg>
