<svg id="Layer_1" data-name="Layer 1" xmlns="http://www.w3.org/2000/svg" viewBox="0 0 28 26"><defs><style>.cls-1{fill:#2a7576;fill-rule:evenodd;}</style></defs><path class="cls-1" d="M8,16v9a3,3,0,0,0,3,3H21a3,3,0,0,0,3-3V16h3a3,3,0,0,0,3-3V5a3,3,0,0,0-3-3H5A3,3,0,0,0,2,5v8a3,3,0,0,0,3,3Zm14-6V25a1,1,0,0,1-.29.71A1.05,1.05,0,0,1,21,26H11a1.05,1.05,0,0,1-.71-.29A1,1,0,0,1,10,25V10Zm-7,4a2.57,2.57,0,0,0-1.51,1A2.52,2.52,0,0,0,13,16.51c0,1.29.89,1.94,2.13,2.3.45.13.94.23,1.37.37a2.06,2.06,0,0,1,.37.16c.06,0,.13.08.13.17,0,.39-.3.55-.63.59a2.82,2.82,0,0,1-1.81-.42,1,1,0,0,0-1.12,1.66A4.74,4.74,0,0,0,15,22v0a1,1,0,0,0,2,0,1.58,1.58,0,0,0,.31-.09A2.37,2.37,0,0,0,19,19.51c0-1.29-.89-2-2.13-2.31-.45-.13-.94-.22-1.37-.37a2,2,0,0,1-.37-.15c-.06,0-.13-.08-.13-.17,0-.41.3-.57.64-.61a2.62,2.62,0,0,1,1.79.43,1,1,0,0,0,1.39-.25,1,1,0,0,0-.25-1.39A4.46,4.46,0,0,0,17,14h0a1,1,0,0,0-2,0Zm9,0h3a1,1,0,0,0,1-1V5a1,1,0,0,0-1-1H5A1,1,0,0,0,4,5v8a1,1,0,0,0,1,1H8V10H7A1,1,0,0,1,7,8H25a1,1,0,0,1,0,2H24ZM23,7h2a1,1,0,0,0,0-2H23a1,1,0,0,0,0,2Z" transform="translate(-2 -2)"/></svg>