<svg id="Layer_1" data-name="Layer 1" xmlns="http://www.w3.org/2000/svg" viewBox="0 0 15.48 19.73"><defs><style>.cls-1{fill:#2a7576;}</style></defs><path class="cls-1" d="M10.47,20.81a4.74,4.74,0,0,1-.51-.37L5.27,15.76A.87.87,0,0,1,5,15.25a.67.67,0,0,1,.61-.77c.42,0,.83,0,1.25,0h1V14.2c0-2.44,0-4.88,0-7.32A.77.77,0,0,1,8.68,6C9,6,9.26,6,9.52,6L6.38,2.87,3.24,6h.92A.72.72,0,0,1,5,6.82v5.44a.71.71,0,1,1-1.41,0V7.43h-2C1,7.41.71,7.1.76,6.67A.85.85,0,0,1,1,6.2Q3.41,3.74,5.87,1.31a.7.7,0,0,1,1.06,0l4.83,4.83A.7.7,0,0,1,12,7a.69.69,0,0,1-.7.44H9.2v7.62c0,.56-.26.82-.83.82H7.45L10.62,19l3.15-3.15h-1a.69.69,0,0,1-.71-.64,1.34,1.34,0,0,1,0-.2V9.66a1.08,1.08,0,0,1,.05-.36.7.7,0,0,1,.74-.47.72.72,0,0,1,.62.64v5h2c.5,0,.84.32.79.76a.87.87,0,0,1-.23.47q-2.43,2.45-4.87,4.88a2,2,0,0,1-.37.24Z" transform="translate(-0.76 -1.07)"/></svg>